<svg width="58" height="57" viewBox="0 0 58 57" fill="none" xmlns="http://www.w3.org/2000/svg">
<path d="M5.03879 31.9719L10.7277 37.6598L13.0575 40.7745C11.9739 41.885 11.9739 43.6997 13.0575 44.7831L14.5745 46.2999L17.4461 49.1709L20.3176 52.0419L21.8347 53.5587C22.3765 54.1004 23.0808 54.3983 23.8665 54.3983C24.6521 54.3983 25.3564 54.1004 25.8982 53.5587L26.738 52.719L29.4741 55.4546C30.0159 55.9963 30.7203 56.2942 31.5059 56.2942C32.2915 56.2942 32.9958 55.9963 33.5376 55.4546L33.7002 55.2921C34.2149 54.7775 34.4858 54.1004 34.5129 53.4232C35.2172 53.3962 35.8945 53.0982 36.3821 52.6107L36.5446 52.4482C37.0594 51.9336 37.3303 51.2565 37.3573 50.5793C38.0617 50.5522 38.7389 50.2543 39.2266 49.7668L39.3891 49.6043C39.9038 49.0896 40.1747 48.4125 40.2018 47.7354C40.9062 47.7083 41.5834 47.4104 42.071 46.9228L42.2336 46.7603C43.1276 45.8665 43.2901 44.5123 42.7483 43.4289L46.5138 37.6868L52.1757 32.0261C52.5549 31.6469 52.5549 31.051 52.1757 30.6718L41.6918 20.1899C41.3125 19.8107 40.7165 19.8107 40.3373 20.1899L34.7025 25.8236L30.2597 28.4779H26.7109C26.7109 28.4779 26.4942 28.4779 26.4129 28.5321L21.5367 26.6903L15.9561 21.1108C15.5769 20.7316 14.9809 20.7316 14.6016 21.1108L5.06588 30.6447C4.68662 31.0239 4.68662 31.6198 5.06588 31.999L5.03879 31.9719ZM14.412 42.0746L15.5227 40.9641C15.8749 40.612 16.4979 40.612 16.8772 40.9641L17.0397 41.1266C17.419 41.5058 17.419 42.1017 17.0397 42.4809L15.2518 44.2685L14.412 43.4289C14.0327 43.0497 14.0327 42.4538 14.412 42.0746ZM19.7487 43.8081L19.9113 43.9706C20.2905 44.3498 20.2905 44.9456 19.9113 45.3248L18.1233 47.1124L16.6063 45.5957L18.3942 43.8081C18.7464 43.456 19.3695 43.456 19.7487 43.8081ZM22.6203 46.6791L22.7828 46.8416C23.1621 47.2208 23.1621 47.8166 22.7828 48.1958L20.9949 49.9834L19.4778 48.4667L21.2658 46.6791C21.618 46.327 22.241 46.327 22.6203 46.6791ZM25.6544 51.0668L24.5437 52.1773C24.1915 52.5294 23.5685 52.5294 23.1892 52.1773L22.3494 51.3377L24.1374 49.5501C24.4895 49.198 25.1126 49.198 25.4919 49.5501L25.6544 49.7126C26.0337 50.0918 26.0337 50.6876 25.6544 51.0668ZM41.0416 22.1671L50.1981 31.3219L45.8095 35.7096L36.653 26.5549L41.0416 22.1671ZM30.5577 30.3468C30.7203 30.3468 30.9099 30.2926 31.0453 30.2114L35.1901 27.7195L44.6175 37.1451L41.5292 41.8579L39.8496 40.1787L38.8202 39.1765L33.1042 34.4096C32.9417 34.2741 32.7249 34.1929 32.4811 34.1929H29.6096C29.6096 34.1929 29.3928 34.1929 29.3116 34.247L26.44 35.195C26.44 35.195 26.2233 35.2763 26.142 35.3575L23.3788 37.5785C23.1079 37.7952 22.7828 37.9035 22.4849 37.9306C22.4849 37.9306 22.4849 37.9306 22.4578 37.9306C22.3494 37.9306 22.2139 37.9306 22.1056 37.9035C22.0514 37.9035 21.9972 37.9035 21.9701 37.8764C21.8618 37.8494 21.7534 37.7952 21.6451 37.7139C21.5909 37.6868 21.5638 37.6598 21.5096 37.6056C21.4554 37.5785 21.4283 37.5243 21.3742 37.4972C21.3471 37.4702 21.32 37.4431 21.2929 37.416C21.2658 37.3889 21.2387 37.3347 21.2116 37.3077C21.022 37.0097 20.9407 36.6847 20.9407 36.3597V36.3055C20.9407 36.143 20.9949 35.9805 21.0762 35.8451C21.0762 35.8451 21.0762 35.818 21.1033 35.7909C21.1845 35.6555 21.2929 35.493 21.4283 35.3846L27.0902 30.4281H30.5577V30.3468ZM20.1822 33.8678C20.0196 34.0304 19.8571 34.1929 19.7217 34.3825C19.6675 34.4637 19.6133 34.545 19.5862 34.6262C19.5049 34.7346 19.4508 34.8429 19.3966 34.9783C19.3424 35.0867 19.3153 35.195 19.2611 35.3033C19.234 35.4117 19.1799 35.52 19.1528 35.6284C19.1257 35.7367 19.0986 35.8721 19.0715 35.9805C19.0715 36.0888 19.0715 36.2243 19.0715 36.3326C19.0715 36.4138 19.0715 36.4951 19.0715 36.5763C19.0715 36.5763 19.0715 36.6305 19.0715 36.6576C19.0715 36.8743 19.1257 37.091 19.1799 37.3077C19.1799 37.3618 19.234 37.416 19.234 37.4702C19.2882 37.6327 19.3424 37.8223 19.4508 37.9848C19.4778 38.066 19.532 38.1202 19.5862 38.1744C19.6404 38.2556 19.6946 38.364 19.7487 38.4452C19.7758 38.4994 19.83 38.5265 19.8571 38.5536C19.9113 38.6348 19.9926 38.689 20.0467 38.7702C20.1551 38.8786 20.2635 38.9598 20.3718 39.0682C20.426 39.0953 20.4531 39.1494 20.5073 39.1765C20.5615 39.2307 20.6427 39.2578 20.724 39.3119C20.7511 39.3119 20.7782 39.3661 20.8324 39.3661C21.4012 39.6911 22.0243 39.8266 22.6745 39.7995C22.7828 39.7995 22.8912 39.7995 22.9996 39.7724C23.0808 39.7724 23.1621 39.7724 23.2434 39.7182C23.3788 39.6911 23.5143 39.664 23.6226 39.6099C23.6768 39.6099 23.731 39.5557 23.7852 39.5557C23.9206 39.5015 24.029 39.4474 24.1644 39.3932C24.2728 39.339 24.3541 39.2849 24.4353 39.2036C24.4895 39.1494 24.5708 39.1224 24.625 39.0682H24.6792L27.3069 36.9285L29.8534 36.0888H32.2102L37.6012 40.5849L41.0145 43.9977C41.3938 44.3769 41.3938 44.9727 41.0145 45.3519L40.852 45.5144C40.4998 45.8665 39.8767 45.8665 39.4975 45.5144L37.0323 43.0497L35.6778 44.4039L38.143 46.8687C38.5222 47.2479 38.5222 47.8437 38.143 48.2229L37.9804 48.3854C37.6283 48.7375 37.0052 48.7375 36.6259 48.3854L34.1607 45.9207L32.8062 47.2749L35.2714 49.7397C35.6507 50.1189 35.6507 50.7147 35.2714 51.0939L35.1089 51.2565C34.7567 51.6086 34.1336 51.6086 33.7544 51.2565L31.2892 48.7917L29.9346 50.146L32.3998 52.6107C32.7791 52.9899 32.7791 53.5858 32.3998 53.965L32.2373 54.1275C31.8851 54.4796 31.2621 54.4796 30.8828 54.1275L27.8216 51.0668C28.0383 50.1459 27.7945 49.1167 27.0631 48.4125L26.9005 48.25C26.3858 47.7354 25.7086 47.4916 25.0313 47.4645C25.0042 46.7603 24.7333 46.0832 24.2186 45.5686L24.0561 45.4061C23.5414 44.8915 22.8641 44.6477 22.1869 44.6206C22.1598 43.9164 21.8889 43.2393 21.3742 42.7247L21.2116 42.5621C20.6969 42.0475 20.0196 41.8038 19.3424 41.7767C19.3153 41.0725 19.0444 40.3953 18.5297 39.8807L18.3671 39.7182C17.3648 38.7161 15.6581 38.6619 14.5474 39.5286L12.8137 37.2264L21.3471 28.6946L24.8146 29.9947L20.2635 33.9762L20.1822 33.8678ZM15.306 23.1151L19.6946 27.5029L11.5133 35.6826L7.12473 31.2948L15.306 23.1151Z" fill="#010101"/>
<path d="M27.957 21.4901C28.1467 21.6797 28.3905 21.7609 28.6343 21.7609C28.8781 21.7609 29.1219 21.6797 29.3116 21.4901L39.7954 11.0082C42.2606 8.54344 42.2606 4.50777 39.7954 2.01595C37.3302 -0.475872 33.2938 -0.448787 30.8015 2.01595L28.6072 4.20983L26.4129 2.01595C23.9477 -0.448787 19.9113 -0.448787 17.419 2.01595C14.9538 4.48069 14.9538 8.51636 17.419 11.0082L27.9029 21.4901H27.957ZM18.8006 3.3702C19.6675 2.50348 20.8052 2.07011 21.943 2.07011C23.0808 2.07011 24.2186 2.50348 25.0855 3.3702L27.957 6.24121C28.3363 6.6204 28.9323 6.6204 29.3116 6.24121L32.1831 3.3702C33.9169 1.63676 36.7343 1.63676 38.468 3.3702C40.2018 5.10365 40.2018 7.92049 38.468 9.65393L28.6343 19.4858L18.8006 9.65393C17.0668 7.92049 17.0668 5.10365 18.8006 3.3702Z" fill="#00AEEF"/>
<path d="M2.65485 16.344L4.38862 17.1566C4.65952 16.6149 4.93042 16.0461 5.22841 15.5044L3.54882 14.5835C3.22374 15.1523 2.92575 15.7481 2.65485 16.344Z" fill="#010101"/>
<path d="M4.57825 12.9042L6.17657 13.9334C6.50165 13.4188 6.85382 12.9042 7.23308 12.4166L5.71603 11.2791C5.30968 11.7937 4.93042 12.3354 4.57825 12.9042Z" fill="#010101"/>
<path d="M0.352173 23.8735L2.24848 24.1714C2.35684 23.5755 2.46521 22.9526 2.60066 22.3567L0.731435 21.9233C0.595984 22.5734 0.460533 23.2234 0.352173 23.8735Z" fill="#010101"/>
<path d="M1.24615 20.0276L3.06119 20.5964C3.25082 20.0005 3.44045 19.4317 3.65717 18.8629L1.86922 18.1858C1.62541 18.8087 1.40869 19.4317 1.21906 20.0547L1.24615 20.0276Z" fill="#010101"/>
<path d="M5.55348 41.9122C5.25549 41.3705 4.9575 40.8288 4.6866 40.2871L2.97992 41.1267C3.27791 41.7226 3.5759 42.2914 3.92808 42.8602L5.58057 41.8851L5.55348 41.9122Z" fill="#010101"/>
<path d="M11.2424 5.67236C10.7277 6.07864 10.213 6.48491 9.72534 6.91827L10.9986 8.35378C11.4591 7.9475 11.9196 7.56831 12.4344 7.18912L11.2695 5.67236H11.2424Z" fill="#010101"/>
<path d="M6.93506 9.7353L8.37084 10.9812C8.77719 10.5208 9.18354 10.0603 9.61698 9.62696L8.26248 8.27271C7.80194 8.73315 7.34141 9.22068 6.93506 9.70821V9.7353Z" fill="#010101"/>
<path d="M0 27.801L1.89631 27.8551C1.89631 27.2322 1.95049 26.6363 2.00467 26.0133L0.108361 25.8508C0.0541803 26.5009 0 27.178 0 27.828L0 27.801Z" fill="#010101"/>
<path d="M2.76318 35.1409C2.60064 34.545 2.46519 33.9491 2.35683 33.3533L0.48761 33.7054C0.59597 34.3554 0.758511 35.0054 0.921052 35.6284L2.76318 35.1409Z" fill="#010101"/>
<path d="M0 29.778C0.0270902 30.4281 0.0812705 31.1052 0.162541 31.7552L2.05885 31.5386C1.97758 30.9156 1.95049 30.3197 1.9234 29.6968L0.0270902 29.778H0Z" fill="#010101"/>
<path d="M3.9281 38.6348C3.68428 38.066 3.46756 37.4972 3.27793 36.9014L1.46289 37.4972C1.67961 38.1202 1.89633 38.7432 2.14014 39.339L3.90101 38.6077L3.9281 38.6348Z" fill="#010101"/>
<path d="M10.1047 47.6814C9.67121 47.248 9.23777 46.8147 8.83142 46.3542L7.42273 47.6272C7.85617 48.1148 8.3167 48.6023 8.80433 49.0357L10.1317 47.6543L10.1047 47.6814Z" fill="#010101"/>
<path d="M19.3965 53.5045C18.8276 53.2878 18.2587 53.0711 17.6899 52.8003L16.9042 54.5337C17.5002 54.8046 18.1233 55.0483 18.7464 55.2921L19.3965 53.5045Z" fill="#010101"/>
<path d="M11.4591 48.9272L10.2401 50.3898C10.7548 50.7961 11.2695 51.2295 11.7842 51.6087L12.8949 50.0648C12.4073 49.7127 11.9196 49.3335 11.432 48.9272H11.4591Z" fill="#010101"/>
<path d="M14.439 51.094L13.4367 52.7191C14.0056 53.0712 14.5745 53.3962 15.1434 53.7212L16.0374 52.042C15.4956 51.744 14.9538 51.4461 14.439 51.1211V51.094Z" fill="#010101"/>
<path d="M4.95752 44.5666C5.33678 45.1083 5.71604 45.65 6.1224 46.1646L7.61235 44.9728C7.23309 44.4853 6.85383 43.9978 6.52875 43.4832L4.95752 44.5666Z" fill="#010101"/>
<path d="M45.7012 48.9814C45.2406 49.3606 44.7259 49.7669 44.2383 50.119L45.349 51.6629C45.8908 51.2837 46.4055 50.8774 46.9202 50.444L45.7012 48.9814Z" fill="#010101"/>
<path d="M46.0533 5.72656L44.8884 7.24334C45.3761 7.62253 45.8637 8.0017 46.2971 8.40798L47.5704 6.97247C47.0827 6.53911 46.568 6.10575 46.0533 5.72656Z" fill="#010101"/>
<path d="M47.0826 47.7354L48.4101 49.1167C48.8706 48.6563 49.3311 48.1958 49.7917 47.7083L48.383 46.4353C47.9766 46.8957 47.5432 47.3291 47.1097 47.7625L47.0826 47.7354Z" fill="#010101"/>
<path d="M52.2298 44.6208L50.6586 43.5374C50.3064 44.0249 49.9542 44.5395 49.575 45.027L51.0649 46.2188C51.4713 45.7042 51.8776 45.1625 52.2298 44.6208Z" fill="#010101"/>
<path d="M39.4704 52.8545C38.9015 53.0983 38.3326 53.342 37.7637 53.5316L38.4138 55.3192C39.0369 55.1026 39.6329 54.8588 40.256 54.5879L39.4704 52.8545Z" fill="#010101"/>
<path d="M42.7211 51.1211C42.2064 51.4461 41.6646 51.744 41.1228 52.042L42.0168 53.7213C42.5857 53.4233 43.1546 53.0983 43.7235 52.7462L42.7211 51.1211Z" fill="#010101"/>
<path d="M50.0626 12.4708C50.4148 12.9583 50.767 13.473 51.1191 13.9876L52.7175 12.9584C52.3653 12.4166 51.986 11.875 51.6068 11.3333L50.0626 12.4708Z" fill="#010101"/>
<path d="M53.5843 18.9171C53.8011 19.4859 53.9907 20.0818 54.1803 20.6505L55.9954 20.0818C55.8057 19.4588 55.589 18.8358 55.3452 18.2129L53.5573 18.89L53.5843 18.9171Z" fill="#010101"/>
<path d="M54.2344 41.2351L52.5278 40.3684C52.2569 40.9101 51.9589 41.4518 51.6338 41.9935L53.2863 42.9686C53.6114 42.3998 53.9365 41.831 54.2344 41.2351Z" fill="#010101"/>
<path d="M52.0402 15.5854C52.3382 16.1271 52.6091 16.6688 52.88 17.2376L54.6137 16.4251C54.3428 15.8292 54.0448 15.2333 53.7198 14.6646L52.0402 15.5854Z" fill="#010101"/>
<path d="M47.6516 9.68091C48.0851 10.1143 48.4914 10.5747 48.8978 11.0352L50.3335 9.78925C49.9001 9.30172 49.4667 8.81419 49.0061 8.32666L47.6516 9.65384V9.68091Z" fill="#010101"/>
<path d="M57.1331 25.905L55.2368 26.0675C55.291 26.6634 55.3181 27.2864 55.3452 27.9093H57.2415C57.2415 27.2051 57.1873 26.5551 57.1331 25.905Z" fill="#010101"/>
<path d="M54.668 22.438C54.8034 23.0339 54.9118 23.6297 55.0201 24.2527L56.9165 23.9548C56.8081 23.3047 56.6997 22.6547 56.5372 22.0046L54.668 22.438Z" fill="#010101"/>
<path d="M55.7516 37.5785L53.9365 36.9556C53.7469 37.5244 53.5302 38.1202 53.2864 38.689L55.0472 39.4203C55.291 38.8244 55.5349 38.2015 55.7516 37.5785Z" fill="#010101"/>
<path d="M57.2144 29.8593L55.3181 29.7781C55.291 30.401 55.2368 30.9969 55.1555 31.6199L57.0518 31.8365C57.1331 31.1865 57.1873 30.5365 57.2144 29.8593Z" fill="#010101"/>
<path d="M56.7538 33.7596L54.8846 33.4075C54.7763 34.0033 54.6408 34.5992 54.4783 35.1951L56.3204 35.6826C56.4829 35.0597 56.6184 34.4096 56.7538 33.7596Z" fill="#010101"/>
</svg>
