<svg width="56" height="57" viewBox="0 0 56 57" fill="none" xmlns="http://www.w3.org/2000/svg">
<path d="M54.5304 0H20.9893C20.176 0 19.5254 0.650651 19.5254 1.46396V54.5571C19.5254 55.3704 20.176 56.0211 20.9893 56.0211H54.5304C55.3437 56.0211 55.9944 55.3704 55.9944 54.5571V1.46396C55.9944 0.650651 55.3437 0 54.5304 0ZM45.9418 2.92793V53.1257H29.9033V2.92793H45.9418ZM22.4533 2.92793H27.0079V53.1257H22.4533V2.92793ZM53.0664 53.1257H48.8697V2.92793H53.0664V53.1257Z" fill="#010101"/>
<path d="M37.2874 11.4515C38.914 12.1021 39.4671 12.3949 39.4671 13.8914C39.4671 15.0626 39.0116 15.3229 37.5477 15.941C36.0186 16.5916 33.7088 17.5676 33.7088 20.951C33.7088 24.1066 35.9536 25.0501 37.4176 25.7007C38.9466 26.3514 39.4996 26.6442 39.4996 28.0431C39.4996 29.2793 39.0442 29.5396 37.5477 30.1577C36.0186 30.7758 33.7414 31.7193 33.7414 35.0701C33.7414 38.421 35.9861 39.2668 37.4826 39.8849C38.9791 40.5031 39.4996 40.7958 39.4996 42.1947C39.4996 43.431 39.0442 43.6912 37.5802 44.2768C36.0512 44.895 33.7414 45.8384 33.7414 49.2543C33.7414 50.0676 34.392 50.7183 35.2053 50.7183C36.0186 50.7183 36.6693 50.0676 36.6693 49.2543C36.6693 47.8554 37.1898 47.5952 38.6863 46.977C40.1503 46.3589 42.395 45.448 42.395 42.2273C42.395 38.8114 40.0852 37.8679 38.5887 37.2173C37.1248 36.5992 36.6368 36.3389 36.6368 35.1026C36.6368 33.8664 37.1573 33.5086 38.6538 32.8904C40.1503 32.2723 42.4275 31.3614 42.4275 28.1082C42.4275 24.8549 40.1178 23.7488 38.5887 23.0981C37.1248 22.48 36.6693 22.2198 36.6693 21.0486C36.6693 19.6497 37.1898 19.3569 38.7514 18.7062C40.2153 18.0881 42.4601 17.1447 42.4601 13.989C42.4601 10.4755 40.0527 9.49953 38.4586 8.84888C36.897 8.23076 36.344 7.93797 36.344 6.60413C36.344 5.79082 35.6933 5.14017 34.88 5.14017C34.0667 5.14017 33.416 5.79082 33.416 6.60413C33.416 9.95499 35.7909 10.931 37.32 11.5491L37.2874 11.4515Z" fill="#00AEEF"/>
<path d="M13.3107 37.8679C12.7901 38.486 12.172 38.9089 11.5539 39.0716C10.9358 39.2342 10.3176 39.1692 9.82966 38.8764C9.63446 38.7788 9.47184 38.6161 9.30917 38.486C9.17904 38.3884 9.08144 38.3233 8.95131 38.2257C8.26813 37.7052 7.61744 37.3799 6.93426 37.2172C5.76309 36.9244 4.46182 37.0545 3.16052 37.6076C2.05441 38.0956 1.89175 38.2257 0.460314 39.527C-0.125272 40.0801 -0.157819 40.991 0.395235 41.5766C0.688028 41.8694 1.07842 42.032 1.46881 42.032C1.82667 42.032 2.18452 41.9019 2.47732 41.6742C3.27979 40.9368 3.90875 40.4705 4.36421 40.2753C4.8522 40.0801 5.56792 39.8523 6.2511 40.015C6.5439 40.0801 6.90173 40.2753 7.29212 40.5681C7.38972 40.6331 7.48735 40.6982 7.58495 40.7633C7.81268 40.9585 8.07291 41.1537 8.3657 41.3163C9.53687 42.032 11.0009 42.2272 12.3998 41.8368C13.6035 41.5115 14.7096 40.7633 15.6205 39.6897C16.141 39.0716 16.0434 38.1607 15.4253 37.6401C14.8071 37.1196 13.8963 37.2172 13.3757 37.8353L13.3107 37.8679Z" fill="#010101"/>
<path d="M13.3107 27.0672C12.7901 27.6853 12.172 28.1082 11.5539 28.2709C10.9358 28.4335 10.3176 28.3685 9.82966 28.0757C9.63446 27.9781 9.47184 27.8154 9.30917 27.6853C9.17904 27.5877 9.08144 27.5226 8.95131 27.425C8.26813 26.9045 7.61744 26.5792 6.93426 26.4165C5.76309 26.0912 4.46182 26.2538 3.16052 26.8069C2.05441 27.2949 1.89175 27.425 0.460314 28.7263C-0.125272 29.2794 -0.157819 30.1903 0.395235 30.7759C0.688028 31.0687 1.07842 31.2313 1.46882 31.2313C1.82667 31.2313 2.18452 31.1012 2.47732 30.8735C3.27979 30.1361 3.90875 29.6698 4.36421 29.4746C4.8522 29.2794 5.56792 29.0516 6.2511 29.2143C6.5439 29.3119 6.90173 29.4746 7.29212 29.7674C7.38972 29.8324 7.48735 29.8975 7.58495 29.9625C7.81268 30.1577 8.07294 30.3529 8.39827 30.5156C9.56944 31.2313 11.0334 31.4265 12.4323 31.0361C13.636 30.7108 14.7421 29.9625 15.653 28.889C16.1735 28.2709 16.0759 27.3599 15.4578 26.8394C14.8397 26.3189 13.9288 26.4165 13.4083 27.0346L13.3107 27.0672Z" fill="#010101"/>
<path d="M13.3107 16.5916C12.7901 17.2097 12.172 17.6326 11.5539 17.7953C10.9358 17.958 10.3176 17.8929 9.82966 17.6001C9.63446 17.5025 9.47184 17.3398 9.30917 17.2097C9.17904 17.1121 9.08144 17.047 8.95131 16.9494C8.26813 16.4289 7.61744 16.1036 6.93426 15.9409C5.76309 15.6481 4.46182 15.7783 3.16052 16.3313C2.05441 16.8193 1.89175 16.9494 0.460314 18.2507C-0.125272 18.8038 -0.157819 19.7147 0.395235 20.3003C0.688028 20.5931 1.07842 20.7558 1.46881 20.7558C1.82667 20.7558 2.18452 20.6256 2.47732 20.3979C3.27979 19.6605 3.90875 19.1942 4.36421 18.999C4.8522 18.8038 5.56792 18.5761 6.2511 18.7387C6.57643 18.8363 6.90173 18.999 7.29212 19.2918C7.38972 19.3569 7.48735 19.4219 7.58495 19.487C7.81268 19.6822 8.07291 19.8774 8.3657 20.04C9.53687 20.7558 11.0009 20.9509 12.3998 20.5606C13.6035 20.2352 14.7096 19.487 15.6205 18.4134C16.141 17.7953 16.0434 16.8844 15.4253 16.3639C14.8071 15.8433 13.8963 15.9409 13.3757 16.5591L13.3107 16.5916Z" fill="#010101"/>
</svg>
