<?xml version="1.0" encoding="UTF-8"?>
<svg id="Layer_2" data-name="Layer 2" xmlns="http://www.w3.org/2000/svg" viewBox="0 0 218.46 92.29">
  <defs>
    <style>
      .cls-1 {
        fill: #fff;
      }
    </style>
  </defs>
  <g id="Layer_1-2" data-name="Layer 1">
    <g>
      <polygon class="cls-1" points="148.36 81.22 149.85 81.22 149.85 92.17 148.5 92.17 141.18 83.73 141.18 92.17 139.71 92.17 139.71 81.22 140.98 81.22 148.36 89.72 148.36 81.22"/>
      <g>
        <path class="cls-1" d="m152.02,92.15v-10.93h3.69c1.49,0,2.67.22,3.53.67.87.45,1.56,1.1,2.07,1.97.51.87.77,1.81.77,2.84,0,.73-.14,1.43-.42,2.1-.28.67-.68,1.26-1.21,1.76-.53.52-1.15.92-1.86,1.18-.41.16-.79.27-1.14.32-.34.06-1,.08-1.97.08h-3.46Zm3.53-9.54h-1.96v8.14h2.01c.78,0,1.39-.05,1.83-.16.43-.11.8-.24,1.09-.41.29-.16.56-.37.8-.61.77-.78,1.16-1.77,1.16-2.97s-.4-2.14-1.19-2.88c-.29-.28-.63-.51-1.01-.68-.38-.18-.74-.3-1.08-.35-.34-.06-.89-.09-1.64-.09"/>
        <path class="cls-1" d="m171.46,81.22h1.58v6.21c0,.84-.06,1.48-.18,1.9-.12.43-.28.79-.46,1.07-.18.29-.4.54-.66.77-.87.75-2,1.12-3.4,1.12s-2.57-.37-3.43-1.11c-.26-.23-.48-.49-.66-.77-.18-.28-.33-.63-.45-1.04-.12-.41-.18-1.06-.18-1.94v-6.2h1.57v6.21c0,1.03.12,1.75.35,2.15.23.4.59.72,1.07.97.48.24,1.05.36,1.7.36.93,0,1.69-.24,2.27-.73.31-.26.53-.57.67-.93.14-.35.2-.96.2-1.83v-6.21Z"/>
        <path class="cls-1" d="m177.73,87.58l-1.19-.72c-.75-.46-1.28-.91-1.6-1.35-.32-.44-.47-.95-.47-1.52,0-.86.3-1.56.9-2.1.6-.54,1.37-.81,2.33-.81s1.75.26,2.52.77v1.78c-.79-.76-1.64-1.14-2.55-1.14-.51,0-.93.12-1.26.36-.33.24-.49.54-.49.91,0,.33.12.63.36.92.24.29.63.59,1.17.9l1.2.71c1.34.8,2,1.82,2,3.05,0,.88-.29,1.59-.88,2.14-.59.55-1.35.82-2.29.82-1.08,0-2.07-.33-2.96-1v-1.99c.85,1.07,1.83,1.61,2.94,1.61.49,0,.9-.14,1.23-.41.33-.27.49-.62.49-1.03,0-.67-.48-1.3-1.44-1.9"/>
        <polygon class="cls-1" points="181.24 81.2 190.39 81.2 190.39 82.6 186.57 82.6 186.57 92.17 185 92.17 185 82.6 181.24 82.6 181.24 81.2"/>
        <path class="cls-1" d="m191.72,92.17v-10.95h2.74c1.11,0,1.99.27,2.64.82.65.55.98,1.29.98,2.23,0,.64-.16,1.19-.48,1.65-.32.46-.78.81-1.37,1.04.35.23.69.54,1.03.94.33.4.81,1.09,1.41,2.08.38.62.69,1.09.92,1.4l.58.78h-1.86l-.48-.72s-.05-.07-.09-.13l-.31-.43-.49-.8-.52-.85c-.32-.45-.62-.81-.89-1.07-.27-.27-.51-.46-.73-.57-.22-.12-.58-.18-1.09-.18h-.41v4.77h-1.57Zm2.04-9.62h-.47v3.46h.6c.79,0,1.34-.07,1.63-.2.3-.14.53-.34.69-.61s.25-.59.25-.94-.09-.66-.27-.94c-.18-.28-.44-.48-.77-.59-.33-.11-.88-.17-1.65-.17"/>
        <rect class="cls-1" x="201.2" y="81.22" width="1.57" height="10.95"/>
        <polygon class="cls-1" points="205 81.22 211.21 81.22 211.21 82.61 206.57 82.61 206.57 85.95 211.05 85.95 211.05 87.35 206.57 87.35 206.57 90.76 211.36 90.76 211.36 92.15 205 92.15 205 81.22"/>
        <path class="cls-1" d="m215.54,87.58l-1.19-.72c-.75-.46-1.28-.91-1.6-1.35-.31-.44-.47-.95-.47-1.52,0-.86.3-1.56.9-2.1.6-.54,1.38-.81,2.33-.81s1.75.26,2.52.77v1.78c-.79-.76-1.64-1.14-2.55-1.14-.51,0-.93.12-1.26.36-.33.24-.49.54-.49.91,0,.33.12.63.36.92.24.29.63.59,1.17.9l1.2.71c1.34.8,2.01,1.82,2.01,3.05,0,.88-.3,1.59-.88,2.14-.59.55-1.35.82-2.29.82-1.08,0-2.07-.33-2.96-1v-1.99c.85,1.07,1.83,1.61,2.94,1.61.49,0,.9-.14,1.23-.41.33-.27.49-.62.49-1.03,0-.67-.48-1.3-1.44-1.9"/>
        <path class="cls-1" d="m3,25.47c-1.13,1.5-1.98,2.62-3,3.99h11.38v31.46h5.49v-31.46h11.7v-3.99H3Z"/>
        <path class="cls-1" d="m3,25.47c-1.13,1.5-1.98,2.62-3,3.99h11.38v31.46h5.49v-31.46h11.7v-3.99H3Z"/>
        <polygon class="cls-1" points="58.54 60.93 58.54 45.01 38.18 45.01 38.18 60.93 32.69 60.93 32.69 25.48 38.18 25.48 38.18 40.86 58.54 40.86 58.54 25.48 64.03 25.48 64.03 60.93 58.54 60.93"/>
        <polygon class="cls-1" points="58.54 60.93 58.54 45.01 38.18 45.01 38.18 60.93 32.69 60.93 32.69 25.48 38.18 25.48 38.18 40.86 58.54 40.86 58.54 25.48 64.03 25.48 64.03 60.93 58.54 60.93"/>
        <path class="cls-1" d="m130.44,25.57h-4.79l-14.11,35.45h5l3.19-8.57h16.55l3.28,8.67c1.03-1.53,2.32-3.42,3.36-4.96l-12.5-30.59Zm-9.21,22.94l6.81-18.47,6.81,18.47h-13.63Z"/>
        <path class="cls-1" d="m130.44,25.57h-4.79l-14.11,35.45h5l3.19-8.57h16.55l3.28,8.67c1.03-1.53,2.32-3.42,3.36-4.96l-12.5-30.59Zm-9.21,22.94l6.81-18.47,6.81,18.47h-13.63Z"/>
        <polyline class="cls-1" points="147.99 47.97 147.99 48.69 152.88 41.43 152.88 25.21 147.99 25.21 147.99 48.19"/>
        <polyline class="cls-1" points="147.99 47.97 147.99 48.69 152.88 41.43 152.88 25.21 147.99 25.21 147.99 48.19"/>
        <path class="cls-1" d="m183.31,25.57l-.19-.36h-1.62v28.2l-19.97-28.2h-4.57v35.81h4.68v-27.84l19.85,27.84h4.68v-30.14c-.69-1.27-2.18-4.04-2.87-5.31"/>
        <path class="cls-1" d="m183.31,25.57l-.19-.36h-1.62v28.2l-19.97-28.2h-4.57v35.81h4.68v-27.84l19.85,27.84h4.68v-30.14c-.69-1.27-2.18-4.04-2.87-5.31"/>
        <polygon class="cls-1" points="154.36 43.75 121.81 92.17 128.55 92.17 154.37 53.76 154.36 43.75"/>
        <path class="cls-1" d="m184.22,0l-6.73,10.01h3.16c1.13,0,2.26,0,3.18,0L190.44.19c-2.05,0-4.34-.03-6.33-.03"/>
        <path class="cls-1" d="m176.8,11.01l-10.82,16.05,3.28,4.64,13.93-20.72c-1.11,0-2.15,0-3.19.01-.75,0-1.51.01-3.19.01"/>
        <polygon class="cls-1" points="211.13 25.21 216.35 25.21 204.5 47.02 204.5 61.02 199.6 61.02 199.6 47.02 187.75 25.21 192.97 25.21 202.05 42.5 211.13 25.21"/>
        <polygon class="cls-1" points="211.13 25.21 216.35 25.21 204.5 47.02 204.5 61.02 199.6 61.02 199.6 47.02 187.75 25.21 192.97 25.21 202.05 42.5 211.13 25.21"/>
        <path class="cls-1" d="m116.2,24.69l-11.52,30.61-7.22-30.61h-7.56l-9.14,30.39-11.85-30.39h-1.56c0,2.96.04,9.01.04,11.98l9.78,25.07h8.84l7.56-30.27,7.64,30.27h6.55l14.67-37.05h-6.23Z"/>
        <path class="cls-1" d="m116.2,24.69l-11.52,30.61-7.22-30.61h-7.56l-9.14,30.39-11.85-30.39h-1.56c0,2.96.04,9.01.04,11.98l9.78,25.07h8.84l7.56-30.27,7.64,30.27h6.55l14.67-37.05h-6.23Z"/>
      </g>
    </g>
  </g>
</svg>