<svg width="54" height="54" viewBox="0 0 54 54" fill="none" xmlns="http://www.w3.org/2000/svg">
<path fill-rule="evenodd" clip-rule="evenodd" d="M1 1.84097V34.5267C1 36.8253 2.87818 38.7035 5.17683 38.7035C6.29813 38.7035 7.36337 38.255 8.12024 37.4701C8.87711 36.6852 9.35363 35.6199 9.35363 34.4986V18.5482C9.35363 18.1278 9.52183 17.7353 9.80215 17.455C10.0825 17.1747 10.503 17.0065 10.8954 17.0065C11.3159 17.0065 11.7083 17.1747 11.9887 17.455C12.269 17.7353 12.4372 18.1558 12.4372 18.5482V34.3305C12.4372 35.4798 12.8857 36.573 13.6986 37.414C14.5116 38.2269 15.6049 38.6755 16.7822 38.6755C17.9315 38.6755 19.0248 38.2269 19.8658 37.414C20.6787 36.6011 21.1272 35.5078 21.1272 34.3305V19.0809C21.1272 18.5202 21.3515 17.9876 21.744 17.5951C22.1364 17.2027 22.669 16.9784 23.2297 16.9784C23.7903 16.9784 24.3229 17.2027 24.7154 17.5951C25.1078 17.9876 25.3321 18.5202 25.3321 19.0809V34.4706C25.3321 36.7973 27.2103 38.6755 29.5369 38.6755C31.8636 38.6755 33.7418 36.7973 33.7418 34.4706V19.165C33.7418 17.9596 34.7229 16.9784 35.9283 16.9784C37.1337 16.9784 38.1148 17.9596 38.1148 19.165V34.5547C38.1148 35.648 38.5353 36.6852 39.3202 37.442C40.0771 38.1989 41.1423 38.6474 42.2075 38.6474C43.3008 38.6474 44.338 38.2269 45.0949 37.442C45.8517 36.6852 46.3003 35.6199 46.3003 34.5547V19.5013C46.3003 18.8286 46.5525 18.1838 47.0291 17.7353C47.5056 17.2588 48.1504 17.0065 48.7952 17.0065C50.1968 17.0065 51.318 18.1278 51.318 19.5294V53C51.318 53.4485 51.6825 53.841 52.159 53.841C52.6356 53.841 53 53.4765 53 53V19.5294C53 17.2307 51.1218 15.3526 48.8232 15.3526C47.7019 15.3526 46.6367 15.8011 45.8798 16.586C45.1229 17.3709 44.6464 18.4361 44.6464 19.5574V34.6108C44.6464 35.2555 44.3941 35.8722 43.9456 36.3207C43.4971 36.7693 42.8803 37.0216 42.2356 37.0216C41.5908 37.0216 40.9741 36.7693 40.5256 36.3207C40.0771 35.8722 39.8248 35.2555 39.8248 34.6108V19.221C39.8248 17.0906 38.0868 15.3526 35.9563 15.3526C33.8259 15.3526 32.0879 17.0906 32.0879 19.221V34.5267C32.0879 35.9283 30.9666 37.0496 29.565 37.0496C28.1633 37.0496 27.0421 35.9283 27.0421 34.5267V19.1369C27.0421 18.1278 26.6496 17.1747 25.9488 16.4738C25.248 15.773 24.2949 15.3806 23.2857 15.3806C22.2765 15.3806 21.3234 15.773 20.6226 16.4738C19.9218 17.1747 19.5294 18.1278 19.5294 19.1369V34.3865C19.5294 35.0873 19.2491 35.7881 18.7445 36.2647C18.2399 36.7693 17.5671 37.0496 16.8663 37.0496C16.1655 37.0496 15.4647 36.7693 14.9882 36.2647C14.4836 35.7601 14.2033 35.0873 14.2033 34.3865V18.6043C14.2033 17.7353 13.8668 16.9224 13.2501 16.3337C12.6334 15.745 11.8205 15.3806 10.9795 15.3806C10.1105 15.3806 9.29757 15.717 8.70889 16.3337C8.12021 16.9504 7.7558 17.7633 7.7558 18.6043V34.5547C7.7558 35.2275 7.50353 35.8722 7.02698 36.3207C6.55043 36.7973 5.90567 37.0496 5.26093 37.0496C3.85931 37.0496 2.73799 35.9283 2.73799 34.5267V1.84097C2.73799 1.39245 2.37361 1 1.89706 1C1.42051 1 1.05608 1.36442 1.05608 1.84097H1Z" fill="#010101" stroke="black" stroke-width="0.25" stroke-miterlimit="10"/>
<path fill-rule="evenodd" clip-rule="evenodd" d="M11.6803 4.02748L8.23233 7.47546C7.98004 7.72775 7.92398 8.06414 8.06414 8.37249C8.2043 8.68085 8.48462 8.87708 8.84904 8.87708H10.2787L7.81186 11.3439C7.47547 11.6803 7.47547 12.1849 7.81186 12.5213C8.14825 12.8577 8.65283 12.8577 8.98921 12.5213L12.8857 8.62479C13.138 8.37249 13.1941 8.03611 13.0539 7.72775C12.9137 7.4194 12.6334 7.22317 12.269 7.22317H10.8394L12.8576 5.20485C13.194 4.86846 13.194 4.36387 12.8576 4.02748C12.5213 3.6911 12.0167 3.6911 11.6803 4.02748Z" fill="#00AEEF" stroke="#00AEEF" stroke-width="0.25" stroke-miterlimit="10"/>
<path fill-rule="evenodd" clip-rule="evenodd" d="M47.0296 42.3197L43.5817 45.7677C43.3294 46.02 43.2733 46.3563 43.4135 46.6647C43.5537 46.9731 43.834 47.1693 44.1704 47.1693H45.6L43.1332 49.6361C42.7968 49.9725 42.7968 50.4771 43.1332 50.8135C43.4695 51.1499 43.9741 51.1499 44.3105 50.8135L48.207 46.917C48.4593 46.6647 48.5154 46.3283 48.3752 46.0199C48.2351 45.7116 47.9547 45.5154 47.5903 45.5154H46.1606L48.179 43.497C48.5154 43.1606 48.5154 42.6561 48.179 42.3197C47.8426 41.9833 47.338 41.9833 47.0016 42.3197H47.0296Z" fill="#00AEEF" stroke="#00AEEF" stroke-width="0.25" stroke-miterlimit="10"/>
</svg>
