<?xml version="1.0" encoding="UTF-8"?>
<svg id="Layer_2" data-name="Layer 2" xmlns="http://www.w3.org/2000/svg" viewBox="0 0 29.33 25.95">
  <defs>
    <style>
      .cls-1, .cls-2 {
        stroke-width: 0px;
      }

      .cls-2 {
        fill: #27aae1;
      }
    </style>
  </defs>
  <g id="Layer_1-2" data-name="Layer 1">
    <g>
      <path class="cls-1" d="m29.33,14c-.05.22-.09.44-.15.66-.63,2.52-2.78,4.18-5.45,4.18-4.31,0-8.62,0-12.94,0-.12,0-.24,0-.38,0v2.31c.22,0,.43,0,.64,0,.46.02.81.23.97.67.16.42.1.82-.23,1.13-.83.8-1.66,1.61-2.53,2.37-.96.84-2.37.81-3.32-.05-.82-.74-1.62-1.51-2.42-2.27-.37-.35-.46-.77-.27-1.2.19-.44.54-.65,1.02-.65.19,0,.38,0,.59,0v-2.23c-.6-.14-1.19-.23-1.76-.41-.37-.12-.7-.34-1.03-.54-.26-.15-.31-.42-.17-.63.15-.22.38-.25.65-.08.86.53,1.5.73,2.33.68,0-.27,0-.54,0-.81,0-.99.67-1.7,1.67-1.73.72-.02,1.45-.02,2.18,0,.99.03,1.64.71,1.66,1.71,0,.27,0,.55,0,.85.13,0,.22,0,.31,0,4.36,0,8.72,0,13.08,0,2.33,0,4.13-1.48,4.6-3.75.49-2.39-1.23-4.91-3.64-5.32-.57-.1-.64-.18-.57-.75.22-1.76-.18-3.35-1.25-4.77-.19-.26-.17-.52.05-.68.22-.16.45-.1.66.17.99,1.33,1.49,2.82,1.46,4.48,0,.24,0,.47,0,.72,1.11.27,2.06.82,2.83,1.68.73.82,1.18,1.77,1.34,2.85,0,.06.04.13.06.19v1.2Zm-19.8,5.3c0-.72,0-1.43,0-2.15,0-.58-.3-.88-.88-.88-.63,0-1.26,0-1.89,0-.73,0-1.01.28-1.01,1,0,1.37,0,2.75,0,4.12,0,.52-.11.63-.64.63-.27,0-.53,0-.8,0-.08,0-.2.06-.23.12-.03.06.02.19.07.24.81.77,1.61,1.55,2.44,2.29.6.54,1.53.52,2.13-.02.81-.74,1.6-1.5,2.4-2.25.06-.06.13-.19.1-.24-.04-.07-.16-.14-.25-.14-.26-.02-.51,0-.77,0-.56,0-.67-.11-.67-.66,0-.69,0-1.37,0-2.06Z"/>
      <path class="cls-1" d="m4.87,9.25c.45-2.41,2.96-4.26,5.84-3.3.04-.15.08-.31.12-.46C11.57,2.56,14.02.39,17.02.05c1.88-.21,3.61.24,5.15,1.37.3.22.36.45.19.67-.16.22-.42.23-.7.03-3.72-2.68-8.85-.84-9.99,3.59-.07.26-.11.52-.14.79-.06.5-.32.65-.79.43-1.97-.97-4.27.02-4.9,2.1-.07.22-.1.44-.14.67-.06.35-.22.48-.57.45-1.76-.14-3.38.88-3.99,2.54-.4,1.1-.32,2.17.21,3.21.03.05.06.1.08.15.15.29.1.54-.14.67-.23.12-.46.04-.62-.24-.89-1.63-.92-3.27.03-4.87.89-1.51,2.27-2.26,4.01-2.35.05,0,.09,0,.16,0Z"/>
      <path class="cls-2" d="m20.62,11.84c0,1.7-1.42,3.12-3.11,3.11-1.7,0-3.12-1.43-3.11-3.12.01-1.69,1.41-3.09,3.1-3.09,1.71,0,3.12,1.4,3.12,3.1Zm-5.34-.04c-.02,1.23.94,2.24,2.16,2.27,1.27.03,2.29-.96,2.3-2.22,0-1.21-.97-2.21-2.2-2.25-1.21-.04-2.24.96-2.27,2.2Z"/>
      <path class="cls-2" d="m11.9,14.07c.51.01.95-.16,1.31-.54.24-.25.47-.28.67-.08.2.19.18.44-.06.7-.92.97-2.54,1.07-3.71.22-1.14-.83-1.59-2.26-1.13-3.55.47-1.32,1.75-2.17,3.16-2.07.51.03.99.2,1.42.47.27.17.34.4.21.63-.14.24-.39.29-.67.11-1.33-.82-2.97-.09-3.35,1.3-.39,1.43.67,2.82,2.15,2.82Z"/>
      <path class="cls-2" d="m22.8,14.42c.28,0,.5,0,.72,0,.3.01.5.19.49.45,0,.24-.19.42-.48.43-.49.01-.97.02-1.46-.01-.17-.01-.38-.13-.49-.26-.15-.19-.02-.39.11-.57.34-.46.68-.92,1.01-1.39.11-.15.21-.32.28-.5.08-.19,0-.37-.19-.45-.2-.08-.38-.02-.48.18,0,0,0,.02,0,.03-.17.37-.37.48-.62.36-.26-.12-.32-.39-.17-.74.27-.6.96-.89,1.58-.65.62.24.95.91.72,1.54-.11.28-.28.54-.44.8-.16.26-.35.49-.56.79Z"/>
    </g>
  </g>
</svg>