<?xml version="1.0" encoding="UTF-8"?>
<svg id="Layer_2" data-name="Layer 2" xmlns="http://www.w3.org/2000/svg" viewBox="0 0 26.31 26.2">
  <defs>
    <style>
      .cls-1, .cls-2 {
        stroke-width: 0px;
      }

      .cls-2 {
        fill: #27aae1;
      }
    </style>
  </defs>
  <g id="Layer_1-2" data-name="Layer 1">
    <g>
      <path class="cls-1" d="m0,1.28c.03-.08.06-.16.09-.24C.32.41.89,0,1.56,0,7.88,0,14.2,0,20.52,0c.86,0,1.56.69,1.57,1.54.01,1.07,0,2.14,0,3.21,0,.28-.15.44-.39.44-.24,0-.38-.16-.38-.44,0-1,0-2,0-3.01,0-.67-.3-.98-.97-.98-2.87,0-5.74,0-8.61,0-.08,0-.17,0-.28,0,0,.1-.02.19-.02.28,0,.82,0,1.64,0,2.47,0,.6-.08.67-.69.68-.25,0-.52,0-.76.06-.73.19-1.19.9-1.1,1.64.09.73.72,1.31,1.47,1.34.2,0,.39,0,.59,0,.35,0,.49.14.49.51,0,.86,0,1.73,0,2.59,0,.09,0,.18,0,.29h2.63c-.03-.81.25-1.49.87-2.01.44-.36.94-.53,1.52-.52,1.27.03,2.02.87,2.25,2.52h2.61c0-.1,0-.19,0-.28,0-1.17,0-2.35,0-3.52,0-.08,0-.15,0-.23.02-.22.18-.38.38-.38.2,0,.37.16.39.37.01.16,0,.33,0,.49,0,1.28,0,2.55,0,3.83,0,.39-.14.53-.52.53-1.05,0-2.11,0-3.16,0-.38,0-.51-.15-.52-.54,0-.29.01-.59-.05-.87-.17-.74-.87-1.22-1.6-1.15-.75.07-1.36.72-1.39,1.48,0,.18,0,.36,0,.54,0,.4-.13.53-.54.53-.85,0-1.7,0-2.54,0-.09,0-.19,0-.3,0v2.63c.84-.03,1.56.24,2.08.93.33.44.48.94.45,1.49-.06,1.27-.88,1.99-2.55,2.22,0,.09,0,.18,0,.27,0,.85,0,1.7,0,2.54,0,.45-.11.57-.56.57-1.4,0-2.79,0-4.19,0-.24,0-.4-.08-.46-.32-.06-.25.14-.45.44-.46,1.19,0,2.38,0,3.57,0,.12,0,.24,0,.39,0,0-.1.01-.19.01-.28,0-.86,0-1.71,0-2.57,0-.45.13-.57.58-.58.28,0,.57.01.84-.05.76-.18,1.23-.9,1.13-1.67-.09-.73-.73-1.3-1.48-1.32-.21,0-.41,0-.62,0-.32,0-.46-.15-.46-.48,0-.87,0-1.75,0-2.62,0-.09,0-.18,0-.29h-2.62c.03.87-.28,1.6-1,2.11-.47.33-.99.44-1.56.4-1.14-.08-1.88-.98-2.08-2.51H.78c0,.09-.01.17-.01.25,0,2.89,0,5.77,0,8.66,0,.63.32.95.95.95.99,0,1.99,0,2.98,0,.09,0,.18,0,.25.02.19.08.28.23.24.43-.04.2-.17.31-.38.32-1.13,0-2.26.03-3.39-.01-.63-.02-1.07-.41-1.32-.99-.03-.08-.07-.15-.1-.22C0,14.33,0,7.81,0,1.28Zm10.63-.51h-.29c-2.87,0-5.73,0-8.6,0-.67,0-.97.31-.97.97,0,2.87,0,5.73,0,8.6,0,.09,0,.18,0,.3.12,0,.21,0,.3,0,.87,0,1.75,0,2.62,0,.36,0,.49.14.5.5,0,.21,0,.43.01.64.05.73.68,1.36,1.39,1.41.77.05,1.47-.47,1.6-1.22.05-.26.04-.53.05-.79,0-.41.12-.54.53-.54.86,0,1.71,0,2.57,0,.09,0,.18,0,.3,0v-2.63c-.69.04-1.3-.14-1.79-.6-.5-.46-.75-1.03-.75-1.71,0-1.32.83-2.08,2.52-2.32V.77Z"/>
      <path class="cls-2" d="m22.92,14.76c.52,0,1.02,0,1.53,0,.45,0,.91,0,1.36,0,.36,0,.5.14.5.49,0,3.12,0,6.25,0,9.37,0,.87-.69,1.57-1.56,1.57-3.13,0-6.27,0-9.4,0-.32,0-.47-.14-.47-.47,0-1.08,0-2.16,0-3.24,0-.35.15-.48.51-.49.29,0,.59.02.87-.05.76-.17,1.25-.87,1.17-1.64-.08-.74-.74-1.33-1.51-1.36-.19,0-.38,0-.57,0-.34,0-.47-.14-.48-.49,0-.59,0-1.18,0-1.77,0-.44,0-.87,0-1.31,0-.51.11-.62.61-.62.92,0,1.85,0,2.8,0-.03-.88.27-1.6.98-2.12.48-.35,1.02-.46,1.6-.41,1.16.1,1.93,1.04,2.05,2.53Zm2.62.79h-.31c-.84,0-1.68,0-2.52,0-.49,0-.6-.11-.6-.61,0-.17,0-.34,0-.51-.04-.76-.64-1.38-1.39-1.43-.78-.05-1.47.46-1.6,1.22-.05.26-.04.53-.05.79,0,.43-.12.54-.55.55-.86,0-1.71,0-2.57,0-.09,0-.18,0-.26.01v2.61c1.55.14,2.47.96,2.51,2.23.02.58-.15,1.1-.52,1.54-.51.63-1.2.87-2,.85v2.63h.29c2.87,0,5.74,0,8.6,0,.66,0,.97-.31.97-.98,0-2.87,0-5.74,0-8.6v-.3Z"/>
    </g>
  </g>
</svg>