<?xml version="1.0" encoding="UTF-8"?>
<svg id="Layer_2" data-name="Layer 2" xmlns="http://www.w3.org/2000/svg" viewBox="0 0 29.47 25.92">
  <defs>
    <style>
      .cls-1 {
        fill: #0b0a0a;
      }

      .cls-1, .cls-2 {
        stroke-width: 0px;
      }

      .cls-2 {
        fill: #27aae1;
      }
    </style>
  </defs>
  <g id="Layer_1-2" data-name="Layer 1">
    <g>
      <path class="cls-1" d="m29.47,15.96c-.13.3-.14.64-.23.95-.69,2.47-2.88,4.34-5.42,4.64-.77.09-1.52.02-2.28-.12-.44-.16-.88-.31-1.32-.47-1.5-.8-2.59-1.96-3.2-3.55-.07-.25-.1-.54-.23-.75-.17-.26-.48-.06-.73-.1-.02,0-.04.01-.05.02-1.08,0-2.17-.01-3.25-.01-1.57,0-3.15,0-4.72.01-.09,0-.19-.02-.28-.02-1.4,0-2.81,0-4.21,0-.4,0-.8-.03-1.2.02-.52,0-1.04,0-1.55-.01-.15,0-.31,0-.45-.07-.26-.13-.39-.41-.34-.7.06-.29.32-.5.65-.51.45,0,.9-.01,1.35,0,.21,0,.25-.06.25-.25,0-2.44.02-4.87-.02-7.31-.01-1.01.73-1.98,1.95-1.94.47.01.94,0,1.41,0,1.18,0,1.93.76,1.94,1.95,0,2.41,0,4.81,0,7.22,0,.29.08.35.35.33.42-.02.84-.02,1.27,0,.23.01.26-.07.26-.27,0-3.22,0-6.44,0-9.67,0-.88.54-1.57,1.38-1.78.17-.04.34-.04.51-.04.52,0,1.04,0,1.55,0,1.08.01,1.83.78,1.83,1.86,0,3.05,0,6.1,0,9.15,0,.24-.08.56.04.69.14.16.47.04.71.05.29,0,.58-.01.86,0,.21.01.25-.06.25-.26,0-2.36,0-4.72,0-7.08,0-1.99,0-3.97,0-5.96,0-1.23.74-1.98,1.96-1.97.63,0,1.27-.07,1.89.05.84.16,1.42.88,1.42,1.74,0,2.27,0,4.55,0,6.82,0,.13-.06.26.2.22,3.3-.52,6.35,1.47,7.25,4.69.08.29.08.59.21.87v1.55Zm-1.27-.77c0-2.82-2.3-5.14-5.12-5.16-2.83-.01-5.17,2.3-5.17,5.13,0,2.83,2.32,5.16,5.15,5.16,2.82,0,5.14-2.32,5.15-5.14Zm-17.54-4.96c0,1.59,0,3.18,0,4.77,0,.21.04.28.26.27.72-.02,1.44-.02,2.16,0,.26,0,.31-.07.31-.32,0-3.14,0-6.29,0-9.43,0-.07,0-.13,0-.2-.03-.36-.21-.53-.57-.54-.46,0-.92,0-1.38,0-.63,0-.77.13-.77.78,0,1.55,0,3.11,0,4.66Zm7.16,1.22c.39-.51.76-.91,1.19-1.26.43-.35.9-.65,1.41-.87.13-.06.11-.16.11-.26,0-2.38,0-4.75,0-7.13,0-.44-.19-.63-.63-.64-.45,0-.9,0-1.35,0-.59,0-.73.14-.73.72,0,2.93,0,5.87,0,8.8,0,.18,0,.36,0,.64Zm-11.59-.11c0-1.22,0-2.43,0-3.65,0-.46-.16-.62-.62-.62-.49,0-.98,0-1.47,0-.44,0-.62.18-.62.63,0,2.44,0,4.89,0,7.33,0,.18.03.25.23.24.75-.01,1.5-.01,2.24,0,.2,0,.25-.05.25-.25,0-1.23,0-2.45,0-3.68Z"/>
      <path class="cls-2" d="m20.23,20.96c.44.16.88.31,1.32.47-.61.61-1.2,1.24-1.83,1.83-.62.58-1.56.52-2.21-.09-.15-.14-.3-.29-.45-.45-.16-.17-.34-.21-.54-.11-.44.21-.89.4-1.35.56-.19.06-.26.2-.27.4,0,.32.02.63-.03.95-.14.8-.78,1.38-1.59,1.39-.82.02-1.65.02-2.47,0-.9-.02-1.6-.74-1.63-1.64,0-.23,0-.46,0-.69,0-.21-.1-.34-.29-.41-.45-.15-.88-.33-1.3-.54-.21-.1-.4-.08-.57.1-.19.2-.39.4-.6.57-.6.48-1.43.51-2.01,0-.72-.63-1.41-1.31-2.03-2.03-.51-.59-.43-1.51.13-2.1.16-.17.33-.34.51-.51.14-.13.18-.29.11-.45-.23-.49-.43-.98-.62-1.48-.02-.06-.08-.1-.13-.15.4-.05.8-.02,1.2-.02,1.4,0,2.81,0,4.21,0,.09,0,.19.01.28.02.01.08.06.14.11.2,1.54,1.9,4.21,2.41,6.34,1.2.61-.35,1.16-.77,1.52-1.4.02,0,.04-.02.05-.02.24.05.56-.15.73.1.14.21.16.5.23.75-.3.35-.6.69-.95.99-2.95,2.52-7.51,1.74-9.44-1.61-.08-.14-.17-.2-.33-.2-.77,0-1.53,0-2.3,0-.06,0-.13-.03-.19.05.1.31.24.61.39.91.36.73.24,1.42-.33,2-.14.14-.29.28-.43.43-.2.22-.2.39,0,.6.55.55,1.09,1.1,1.65,1.65.21.21.37.2.6,0,.16-.15.31-.32.47-.47.52-.48,1.12-.63,1.78-.36.5.2.99.41,1.48.62.65.27,1,.78,1.01,1.5,0,.21,0,.42,0,.63.01.35.15.49.5.49.74,0,1.48,0,2.21,0,.33,0,.47-.14.48-.47,0-.2,0-.4,0-.6,0-.77.38-1.32,1.1-1.58.45-.17.89-.36,1.33-.55.6-.27,1.18-.2,1.7.22.22.18.42.39.63.59.19.19.38.2.58,0,.43-.43.85-.86,1.27-1.29Z"/>
      <path class="cls-1" d="m24.65,13.33c0,.57-.51.86-.96.61-.17-.09-.33-.2-.53-.16-.11.02-.23.06-.25.2-.02.13.06.2.16.24.26.12.52.23.79.33.63.25,1.03.69,1.07,1.39.05.71-.26,1.26-.87,1.63-.13.08-.23.14-.25.33-.03.28-.31.49-.59.5-.3.01-.57-.16-.64-.47-.03-.14-.08-.18-.21-.22-.21-.06-.41-.16-.59-.29-.3-.21-.38-.56-.2-.86.17-.3.53-.41.85-.24.24.13.48.23.76.2.25-.02.41-.15.47-.39.06-.26-.12-.35-.32-.43-.34-.12-.67-.26-.99-.44-1.04-.58-.9-1.98-.03-2.53.14-.09.25-.16.28-.35.04-.26.33-.46.59-.46.27,0,.53.16.61.44.05.17.14.24.29.3.3.14.58.32.58.64Z"/>
    </g>
  </g>
</svg>