<?xml version="1.0" encoding="UTF-8"?>
<svg id="Layer_2" data-name="Layer 2" xmlns="http://www.w3.org/2000/svg" viewBox="0 0 26.07 26.07">
  <defs>
    <style>
      .cls-1, .cls-2 {
        stroke-width: 0px;
      }

      .cls-2 {
        fill: #27aae1;
      }
    </style>
  </defs>
  <g id="Layer_1-2" data-name="Layer 1">
    <g>
      <path class="cls-1" d="m20.29,16.63c0,1.55,0,3.11,0,4.66,0,.39-.08.47-.48.47-.44,0-.88,0-1.32,0-.37,0-.46-.1-.46-.47,0-3.1,0-6.19,0-9.29,0-.19-.05-.31-.22-.42-1.52-.99-1.5-3.19.03-4.17.15-.09.2-.19.19-.36,0-.75,0-1.5,0-2.25,0-.36.09-.45.45-.45.47,0,.94,0,1.4,0,.32,0,.41.09.41.41,0,.78,0,1.55,0,2.33,0,.1.08.23.16.28,1.58,1.02,1.6,3.23.01,4.24-.14.09-.18.18-.18.34,0,1.56,0,3.12,0,4.68Zm-1.12-5.27c1.04,0,1.89-.85,1.85-1.87-.03-1.02-.73-1.81-1.89-1.84-1.01-.02-1.84.85-1.84,1.86,0,1.03.84,1.86,1.87,1.85Zm-.5.65v9.11h.98v-9.11h-.98Zm.98-4.98v-2.03h-.98v2.03h.98Z"/>
      <path class="cls-1" d="m5.79,17.91c0-1.12,0-2.24,0-3.36,0-.16-.04-.27-.19-.36-1.56-.98-1.56-3.21,0-4.2.16-.1.2-.21.2-.38,0-1.6,0-3.19,0-4.79,0-.39.07-.47.46-.47.46,0,.92,0,1.38,0,.34,0,.44.09.44.44,0,1.6,0,3.21,0,4.81,0,.19.05.29.21.4,1.51.97,1.52,3.18.01,4.16-.17.11-.23.22-.23.42,0,2.21,0,4.43,0,6.64,0,.42-.07.49-.49.49-.44,0-.88,0-1.32,0-.38,0-.45-.08-.45-.47,0-1.11,0-2.22,0-3.33Zm1.13-3.97c1.04,0,1.87-.82,1.86-1.86,0-1.03-.84-1.85-1.88-1.85-1.01,0-1.85.84-1.85,1.86,0,1.03.83,1.85,1.87,1.85Zm-.49.64v6.5h.98v-6.5h-.98Zm0-9.58v4.63h.97v-4.63h-.97Z"/>
      <path class="cls-2" d="m14.17,8.73c0,1.31,0,2.61,0,3.92,0,.19.06.3.22.4,1.52.98,1.51,3.19-.01,4.17-.15.1-.21.2-.21.38,0,1.21,0,2.42,0,3.62,0,.43-.07.49-.49.49-.44,0-.88,0-1.32,0-.37,0-.45-.08-.45-.45,0-1.22,0-2.43,0-3.65,0-.19-.05-.3-.21-.4-1.52-.98-1.52-3.19,0-4.17.17-.11.21-.22.21-.41,0-2.58,0-5.15,0-7.73,0-.52.04-.56.56-.56.42,0,.85,0,1.27,0,.35,0,.44.08.44.43,0,1.31,0,2.63,0,3.94Zm-1.14,4.55c-1.03,0-1.85.8-1.85,1.83,0,1.04.81,1.86,1.85,1.87,1.03,0,1.86-.82,1.86-1.86,0-1.04-.81-1.84-1.87-1.84Zm.5-.64v-7.66h-.98v7.66h.98Zm-.98,4.97v3.46h.98v-3.46h-.98Z"/>
      <path class="cls-1" d="m24.15,1.9c-.12,0-.23,0-.35,0-3.3,0-6.6,0-9.9,0-.11,0-.25.02-.34-.03-.1-.07-.21-.2-.21-.31,0-.09.13-.2.23-.27.06-.04.17-.02.26-.02,3.48,0,6.95,0,10.43,0,.47,0,.52.05.52.52,0,3.18,0,6.35,0,9.53v.28s.05.04.08.05c.2-.22.39-.44.6-.65.19-.19.36-.21.51-.06.13.14.11.33-.07.51-.38.39-.77.78-1.16,1.16-.17.17-.36.17-.53,0-.39-.39-.78-.79-1.18-1.18-.15-.15-.21-.31-.06-.49.13-.16.31-.14.5.05.2.2.4.41.65.68V1.9Z"/>
      <path class="cls-1" d="m1.92,14.38v9.79c.12,0,.23,0,.34,0,3.3,0,6.6,0,9.89,0,.11,0,.25-.02.34.03.1.06.22.2.22.3,0,.1-.14.22-.24.28-.07.04-.19.02-.29.02-3.46,0-6.91,0-10.37,0-.48,0-.53-.05-.53-.53,0-3.17,0-6.35,0-9.52v-.31s-.06-.04-.08-.05c-.19.21-.38.43-.58.63-.21.21-.38.24-.52.07-.16-.19-.08-.35.07-.51.38-.37.75-.75,1.12-1.12.23-.23.36-.23.58,0,.38.38.76.76,1.14,1.14.19.19.21.37.06.51-.19.17-.35.09-.5-.07-.2-.21-.4-.41-.65-.65Z"/>
      <path class="cls-1" d="m11.64,1.27c-.25-.26-.45-.47-.65-.67-.16-.16-.23-.32-.06-.51.13-.14.33-.11.51.06.38.38.75.77,1.12,1.16.19.2.19.33,0,.52-.37.39-.75.77-1.12,1.16-.15.16-.31.24-.51.08-.16-.13-.14-.32.06-.52.19-.2.39-.4.62-.64H1.9c0,.11,0,.22,0,.33,0,3.31,0,6.61,0,9.92,0,.11.02.25-.03.34-.07.1-.2.2-.31.2-.09,0-.2-.13-.26-.23-.04-.06-.02-.17-.02-.26,0-3.47,0-6.95,0-10.42,0-.47.05-.52.52-.52,3.16,0,6.31,0,9.47,0,.1,0,.2,0,.38,0Z"/>
      <path class="cls-1" d="m24.18,24.15c0-.14,0-.26,0-.37,0-3.29,0-6.58,0-9.87,0-.11,0-.21.02-.32.03-.17.15-.29.32-.24.11.03.21.15.28.26.04.06.01.17.01.26,0,3.47,0,6.93,0,10.4,0,.48-.05.53-.53.53-3.16,0-6.31,0-9.47,0-.09,0-.19,0-.37,0,.25.26.45.46.64.67.2.21.22.39.06.52-.19.15-.36.07-.51-.09-.37-.39-.75-.77-1.12-1.16-.17-.17-.17-.33,0-.5.38-.39.76-.79,1.14-1.18.18-.19.37-.21.5-.06.17.19.09.36-.07.51-.21.19-.42.37-.62.56.02.03.04.05.06.08h9.66Z"/>
    </g>
  </g>
</svg>