<?xml version="1.0" encoding="UTF-8"?>
<svg id="Layer_2" data-name="Layer 2" xmlns="http://www.w3.org/2000/svg" viewBox="0 0 26.12 26.12">
  <defs>
    <style>
      .cls-1, .cls-2 {
        stroke-width: 0px;
      }

      .cls-2 {
        fill: #27aae1;
      }
    </style>
  </defs>
  <g id="Layer_1-2" data-name="Layer 1">
    <g>
      <path class="cls-1" d="m12.38,26.12c-.24,0-.44,0-.64,0-.06,0-.12,0-.21,0,0-.62,0-1.22,0-1.82,0-.2-.04-.33-.23-.44-.38-.22-.69-.52-.94-.9-.61-.94-1.24-1.87-1.87-2.8-.47-.69-.37-1.59.25-2.11.67-.57,1.68-.43,2.12.11.01.02.04.02.09.06,0-.12,0-.21,0-.3,0-2.18,0-4.35,0-6.53,0-.65.49-1.2,1.11-1.26.67-.06,1.26.36,1.4,1.01.02.11.02.23.02.34,0,.82,0,1.65,0,2.4.36.06.7.08,1.01.19.33.11.51.42.64.75.79-.19,1.36.07,1.69.83.16-.02.32-.04.48-.05.67,0,1.23.54,1.24,1.21,0,1.29.03,2.58,0,3.87-.04,1.17-.55,2.13-1.47,2.85-.15.12-.21.24-.21.44.01.71,0,1.42,0,2.15h-.84c0-.51,0-1,0-1.5,0-.36,0-.72,0-1.08,0-.2.06-.35.24-.46,1.01-.65,1.45-1.59,1.44-2.78,0-1.07,0-2.14,0-3.21,0-.07,0-.14,0-.21-.02-.25-.2-.42-.42-.42-.22,0-.41.18-.42.43-.01.27,0,.54,0,.82h-.84c0-.31,0-.62,0-.94,0-.22,0-.44,0-.66,0-.3-.18-.5-.43-.49-.24,0-.41.2-.41.49,0,.43,0,.86,0,1.29,0,.1,0,.19,0,.31h-.84c0-.26,0-.52,0-.78,0-.55,0-1.11,0-1.66,0-.29-.17-.48-.41-.49-.25,0-.43.19-.43.49,0,.81,0,1.61,0,2.43h-.84v-.29c0-1.92,0-3.84,0-5.77,0-.08,0-.16,0-.24-.02-.25-.2-.43-.42-.43-.22,0-.4.18-.42.42,0,.08,0,.16,0,.24,0,2.54,0,5.07,0,7.61,0,.25-.03.47-.29.56-.25.09-.41-.06-.56-.24-.22-.26-.45-.52-.68-.77-.27-.3-.67-.34-.96-.1-.29.23-.36.64-.14.97.62.93,1.26,1.86,1.87,2.8.24.38.56.66.95.84.29.13.39.32.39.64-.02.73,0,1.45,0,2.22Z"/>
      <path class="cls-2" d="m14.43,11.19c.21.07.38.13.59.2.17-.28.34-.56.45-.73-.15-.21-.27-.37-.38-.55-.13-.21-.12-1.46,0-1.67.1-.18.21-.35.32-.52l.15.11c-.17-.29-.35-.58-.53-.87-.17.06-.32.14-.48.16-.36.06-1.5-.54-1.66-.87-.07-.15-.09-.33-.13-.53h-1.06c-.05.19-.08.4-.17.57-.14.28-1.25.86-1.55.83-.18-.02-.35-.1-.56-.16-.16.27-.34.56-.51.84.14.13.3.23.41.37.2.26.2,1.54,0,1.8-.11.13-.26.23-.4.36.17.27.34.56.52.85.2-.07.37-.13.59-.2,0,.29,0,.53,0,.77,0,.06-.06.14-.12.18-.38.25-.86.17-1.12-.2-.25-.36-.48-.74-.68-1.12-.19-.36-.06-.79.31-1,.17-.1.22-.2.19-.38-.01-.08-.01-.16,0-.24.03-.23,0-.38-.24-.51-.35-.2-.44-.64-.24-.99.2-.36.41-.71.64-1.06.26-.39.68-.48,1.11-.25.13.07.23.1.35-.02.03-.03.07-.05.11-.07.29-.14.52-.28.56-.68.03-.35.37-.56.73-.56.42,0,.84,0,1.26,0,.43,0,.77.33.78.76,0,.16.04.27.21.31.06.01.11.05.16.08.25.19.47.27.8.09.31-.17.7.01.91.33.22.34.43.68.62,1.04.22.39.1.82-.28,1.05-.16.1-.22.2-.19.38.01.09.02.18,0,.26-.04.22.03.36.24.48.34.21.44.64.24,1-.2.36-.41.71-.64,1.06-.18.27-.44.39-.77.37-.37-.03-.5-.17-.5-.53,0-.17,0-.33,0-.55Z"/>
      <path class="cls-1" d="m24,4.21c-1.16,0-2.09-.94-2.09-2.11C21.91.93,22.84,0,24.01,0c1.18,0,2.11.94,2.11,2.13,0,1.16-.95,2.09-2.12,2.09Zm.04-3.37c-.68-.02-1.26.55-1.28,1.23-.02.68.56,1.28,1.25,1.29.67.01,1.26-.57,1.27-1.25,0-.68-.56-1.26-1.24-1.28Z"/>
      <path class="cls-1" d="m4.21,15.16c0,1.17-.93,2.11-2.09,2.11C.93,17.27,0,16.34,0,15.16c0-1.16.94-2.1,2.11-2.1,1.17,0,2.1.93,2.1,2.1Zm-.84,0c0-.69-.59-1.27-1.28-1.27-.67,0-1.24.58-1.24,1.25,0,.69.58,1.28,1.27,1.28.68,0,1.26-.58,1.26-1.26Z"/>
      <path class="cls-1" d="m2.53,1.68C2.53.74,3.28,0,4.22,0c.94,0,1.68.75,1.68,1.69,0,.94-.75,1.68-1.69,1.68-.94,0-1.68-.75-1.68-1.69Zm2.53.01c0-.45-.38-.84-.83-.85-.45,0-.84.38-.85.83,0,.45.38.84.83.85.44,0,.85-.39.85-.83Z"/>
      <path class="cls-1" d="m22.74,15.16c-.94,0-1.68-.75-1.67-1.69,0-.94.75-1.68,1.69-1.67.94,0,1.68.75,1.67,1.69,0,.93-.75,1.68-1.69,1.67Zm.01-2.53c-.45,0-.84.39-.84.84,0,.45.39.84.84.84.45,0,.84-.39.84-.84,0-.45-.39-.84-.84-.84Z"/>
      <path class="cls-1" d="m21.27,3.43c.16.25.3.47.46.72-1.55.99-3.09,1.97-4.64,2.95-.16-.25-.3-.47-.46-.72,1.55-.99,3.08-1.96,4.64-2.95Z"/>
      <path class="cls-2" d="m13.95,9.97c-.21-.16-.42-.33-.63-.5-.04-.04-.05-.12-.05-.18-.02-.64-.45-1.08-1.05-1.08-.61,0-1.03.44-1.06,1.09,0,.07-.04.15-.09.19-.19.17-.39.32-.59.48-.36-.54-.16-1.54.42-2.09.68-.64,1.72-.69,2.46-.13.7.54.96,1.53.58,2.22Z"/>
      <path class="cls-1" d="m20.67,11.87c-.16.25-.31.48-.46.72-.99-.64-1.96-1.26-2.95-1.9.16-.24.3-.47.46-.71.98.63,1.95,1.26,2.95,1.9Z"/>
      <path class="cls-1" d="m7.37,11.42c.15.26.28.48.42.74-.98.56-1.95,1.12-2.95,1.69-.14-.24-.28-.48-.43-.74.98-.56,1.96-1.12,2.95-1.69Z"/>
      <path class="cls-1" d="m6.28,3.51c.17-.24.32-.46.48-.7.92.63,1.82,1.26,2.74,1.9-.17.24-.32.46-.48.7-.92-.64-1.82-1.26-2.74-1.9Z"/>
    </g>
  </g>
</svg>