<?xml version="1.0" encoding="UTF-8"?>
<svg id="Layer_2" data-name="Layer 2" xmlns="http://www.w3.org/2000/svg" viewBox="0 0 26.69 25.36">
  <defs>
    <style>
      .cls-1, .cls-2 {
        stroke-width: 0px;
      }

      .cls-2 {
        fill: #27aae1;
      }
    </style>
  </defs>
  <g id="Layer_1-2" data-name="Layer 1">
    <g>
      <path class="cls-2" d="m12.15,9.55c-.52.23-.95.49-1.42.62-.74.21-1.47.06-2.14-.3-1.56-.86-2.6-2.17-3.23-3.82-.16-.41,0-.59.44-.57,1.3.05,2.6.14,3.86.46.65.16,1.27.39,1.81.79.63.47.95,1.1.92,1.88,0,.18.03.31.17.44.15.14.28.3.45.48.04-.44.08-.84.12-1.24.04-.37.08-.73.14-1.1.03-.16-.02-.22-.15-.3-.31-.21-.64-.41-.91-.67-.6-.58-.71-1.29-.4-2.06.29-.71.8-1.25,1.36-1.76.97-.89,2.06-1.61,3.18-2.29.26-.16.49-.11.56.15.38,1.32.61,2.66.27,4.03-.39,1.57-1.48,2.43-3,2.81-.13.03-.24.06-.26.22-.1.98-.21,1.96-.31,2.93.03.01.06.02.09.03.2-.21.4-.42.59-.64.04-.05.04-.14.03-.2-.12-.96.25-1.69,1.04-2.22.7-.47,1.5-.71,2.32-.83,1.08-.15,2.16-.23,3.24-.33.37-.03.56.17.43.5-.7,1.83-1.82,3.29-3.66,4.07-1.05.45-2.04.23-2.99-.48-.35.43-.7.85-1.04,1.28-.05.06-.03.18-.03.27.05.95.1,1.9.15,2.85.01.22-.05.39-.29.42-.2.03-.36-.11-.37-.35-.06-1.17-.12-2.34-.16-3.51,0-.3-.07-.56-.25-.79-.21-.27-.41-.54-.58-.76Zm1.96-3.19c.06,0,.09.02.11,0,1.02-.29,1.81-.86,2.2-1.88.33-.86.31-1.75.18-2.64-.05-.32-.12-.64-.2-1.05-.86.63-1.68,1.18-2.43,1.81-.51.43-.98.93-1.35,1.48-.58.87-.19,1.8.78,2.13.23-.65.43-1.31.69-1.94.13-.33.36-.62.57-.91.11-.16.29-.16.44-.04.15.12.18.27.08.44-.03.05-.08.1-.11.16-.52.73-.74,1.56-.94,2.42Zm-2.41,1.94c-.07-.46-.26-.77-.57-.98-.29-.2-.59-.37-.92-.5-.88-.35-1.81-.47-2.75-.56-.44-.04-.87-.07-1.32-.1,0,.06,0,.09.01.11.03.08.07.15.11.22.4.75.91,1.43,1.54,2.01.56.52,1.19.94,1.97,1.06.66.1,1.24-.1,1.82-.56-.44-.23-.81-.46-1.21-.63-.37-.15-.77-.24-1.16-.35-.2-.06-.34-.18-.29-.4.04-.21.2-.3.42-.26.06.01.13.02.19.04.75.17,1.45.46,2.15.9Zm3.53,1.38c.07.05.11.09.16.12.84.53,1.68.47,2.51,0,1.19-.68,2.01-1.71,2.62-2.92.02-.03.02-.07.03-.14-.54.04-1.05.08-1.56.13-.87.09-1.73.23-2.56.54-.42.16-.83.37-1.12.73-.19.22-.33.47-.3.82.21-.15.38-.29.57-.41.61-.4,1.25-.7,1.99-.74.22-.01.36.09.37.31.01.21-.1.33-.31.35-.95.09-1.69.58-2.4,1.21Z"/>
      <path class="cls-1" d="m4.82,21.62c0-.25.02-.46,0-.67-.02-.11-.11-.22-.2-.3-.96-.9-1.95-1.77-2.89-2.7-.46-.46-.85-.99-1.25-1.51C.14,16.02,0,15.52,0,14.97c0-3.03,0-6.05,0-9.08,0-1,.75-1.78,1.72-1.79.97,0,1.74.77,1.77,1.78.05,1.77.1,3.54.16,5.31,0,.05.01.11.02.15.24-.05.47-.13.71-.14.34-.01.65.11.91.35,1.14,1.09,2.26,2.2,3.42,3.28.96.89,1.27,2.01,1.34,3.26.06,1.18.17,2.35.26,3.55.55,0,1.06,0,1.58,0,.43,0,.52.09.52.52,0,.9,0,1.79,0,2.69,0,.42-.1.52-.52.52-2.85,0-5.7,0-8.55,0-.41,0-.49-.08-.49-.48,0-.93,0-1.86,0-2.8,0-.35.1-.45.44-.45.42,0,.83,0,1.25,0,.1,0,.2,0,.32,0Zm4.79-.01c-.1-1.33-.21-2.62-.3-3.92-.06-.89-.34-1.67-1.01-2.29-.64-.6-1.27-1.21-1.9-1.82-.5-.49-1.01-.98-1.51-1.46-.32-.3-.73-.32-1.01-.04-.28.27-.26.7.04,1.01.05.05.11.1.16.15.65.63,1.3,1.26,1.95,1.89.24.23.2.55-.09.6-.12.02-.3-.06-.4-.15-.67-.62-1.31-1.28-1.98-1.9-.39-.36-.56-.79-.57-1.32-.04-2.14-.11-4.28-.17-6.42-.02-.7-.5-1.19-1.1-1.17-.63.02-1.05.5-1.05,1.21,0,2.96,0,5.92,0,8.89,0,.47.12.9.41,1.26.39.49.76,1.01,1.21,1.44.96.93,1.96,1.82,2.95,2.71.18.16.28.33.26.57-.01.25,0,.49,0,.76h4.12Zm-6.11,3.06h8.18v-2.35H3.5v2.35Z"/>
      <path class="cls-1" d="m23.03,11.36c.02-.36.04-.72.05-1.08.04-1.48.08-2.95.12-4.43.02-.92.71-1.67,1.6-1.75.87-.08,1.66.52,1.85,1.41.03.14.03.29.03.44,0,2.99,0,5.98,0,8.97,0,.61-.18,1.14-.53,1.62-.92,1.26-2.04,2.33-3.2,3.36-.21.18-.4.4-.63.54-.47.28-.52.69-.42,1.2.46,0,.94,0,1.42,0,.5,0,.55.06.55.56,0,.9,0,1.81,0,2.71,0,.36-.1.45-.46.45-2.88,0-5.76,0-8.64,0-.35,0-.46-.11-.47-.46,0-.93,0-1.86,0-2.8,0-.36.11-.46.46-.47.53,0,1.07,0,1.63,0,.06-.68.11-1.34.17-2,.08-.92.16-1.84.27-2.75.08-.66.39-1.23.86-1.7.87-.87,1.77-1.73,2.66-2.59.3-.3.62-.59.91-.89.48-.5,1.03-.65,1.68-.36.02.01.05,0,.1.02Zm-1.84,10.26c0-.29,0-.56,0-.82,0-.2.07-.35.22-.47.42-.35.83-.7,1.24-1.06,1.09-.97,2.14-1.98,2.99-3.17.23-.33.37-.68.37-1.08,0-3.04,0-6.09,0-9.13,0-.35-.13-.65-.42-.87-.34-.26-.71-.31-1.09-.13-.45.21-.63.6-.64,1.08-.06,2.16-.12,4.32-.17,6.47-.01.48-.16.88-.51,1.21-.35.33-.69.67-1.03,1-.35.34-.7.69-1.06,1.01-.08.07-.26.11-.37.08-.09-.03-.21-.19-.2-.28,0-.12.1-.25.19-.34.69-.68,1.39-1.35,2.08-2.03.28-.28.29-.7.03-.97-.27-.28-.7-.29-.99-.01-1.15,1.1-2.29,2.22-3.45,3.32-.66.63-.94,1.4-1,2.29-.07,1.1-.17,2.21-.26,3.31-.02.2-.02.4-.03.61h4.11Zm1.99,3.06v-2.36h-8.17v2.36h8.17Z"/>
    </g>
  </g>
</svg>