<?xml version="1.0" encoding="UTF-8"?>
<svg id="Layer_2" data-name="Layer 2" xmlns="http://www.w3.org/2000/svg" viewBox="0 0 25.69 25.69">
  <defs>
    <style>
      .cls-1, .cls-2 {
        stroke-width: 0px;
      }

      .cls-2 {
        fill: #27aae1;
      }
    </style>
  </defs>
  <g id="Layer_1-2" data-name="Layer 1">
    <g>
      <path class="cls-1" d="m.25,25.69c-.18-.12-.31-.27-.23-.5.08-.23.28-.26.49-.25.22,0,.43,0,.67,0,0-.08.02-.15.02-.22,0-1.05,0-2.09,0-3.14,0-.11-.05-.24-.12-.33-.29-.38-.37-.79-.18-1.22.19-.43.53-.7,1.01-.7.9-.02,1.81,0,2.71-.01.1,0,.2,0,.33,0,0-.1.02-.19.02-.28.09-3.9.17-7.81.25-11.71,0-.35.15-.49.49-.49.69,0,1.39,0,2.08,0,.49,0,.6.1.61.6.02.84.04,1.69.06,2.53.05,2.51.11,5.02.16,7.52,0,.06,0,.12.01.19h1.03c.04-.59.08-1.17.12-1.76.09-1.41.17-2.82.26-4.23.02-.28.16-.43.45-.44.49-.01.99,0,1.48,0,.3,0,.44.14.46.45.06.88.11,1.77.16,2.65.07,1.1.14,2.2.21,3.32h.89c.04-.55.08-1.1.11-1.65.09-1.43.17-2.87.26-4.3.02-.35.16-.47.51-.48.44,0,.89,0,1.33,0,.4,0,.53.14.55.54.12,1.95.24,3.9.36,5.88h.89c.03-.43.07-.86.09-1.29.09-1.46.18-2.92.27-4.38,0-.04,0-.08,0-.13.03-.54.13-.63.67-.63.39,0,.79,0,1.18,0,.4,0,.52.13.55.52.11,1.74.22,3.49.33,5.23.01.16.02.32.02.48,0,.17.06.23.24.23.72,0,1.44,0,2.16,0,.65,0,1.08.32,1.23.9.1.38,0,.72-.23,1.03-.06.08-.12.19-.12.28,0,1.65,0,3.29,0,4.94,0,.02,0,.03.02.09.35,0,.7.01,1.06,0,.23,0,.41.05.53.25v.5c-8.48,0-16.96,0-25.43,0Zm6.95-5.62v4.85h16.1v-4.86c-.28,0-.54,0-.8,0-.24-.01-.38-.17-.38-.38,0-.21.14-.36.39-.37.19,0,.38,0,.58,0,.42,0,.64-.15.63-.44,0-.28-.21-.41-.63-.41-5.23,0-10.45,0-15.68,0-.08,0-.17,0-.25,0-.22.03-.35.16-.36.38-.01.22.09.37.31.42.12.03.25.03.37.03,4.38,0,8.76,0,13.14,0,.1,0,.2,0,.3,0,.21.02.32.15.34.34.02.19-.09.32-.27.38-.1.03-.21.03-.32.03-4.37,0-8.74,0-13.12,0h-.35Zm-1.23-12.46c-.13,5.79-.26,11.55-.38,17.31h.83c0-1.69,0-3.36,0-5.03,0-.08-.05-.17-.11-.24-.29-.37-.38-.78-.19-1.22.19-.44.54-.7,1.03-.72.23-.01.46,0,.72,0-.08-3.39-.15-6.74-.22-10.1h-1.67Zm-1.06,13.32v-.85h-.24c-.83,0-1.65,0-2.48,0-.41,0-.6.11-.63.38-.03.24.12.35.49.49.12.04.26.19.27.3,0,.12-.11.27-.19.39-.03.04-.12.05-.16.07v3.23h2.87v-3.25c-.35,0-.73,0-1.1,0-.08,0-.17,0-.25-.02-.19-.06-.3-.19-.28-.39.02-.21.15-.34.37-.34.43,0,.87,0,1.33,0Zm9.9-8.88c-.12,1.9-.24,3.76-.35,5.64h1.6c-.12-1.89-.24-3.76-.35-5.64h-.89Zm-4.37,5.64h1.6c-.12-1.89-.24-3.76-.35-5.64h-.9c-.12,1.89-.23,3.76-.35,5.64Zm9.29-5.65c-.26,0-.49,0-.71,0-.16,0-.19.07-.2.21-.1,1.58-.2,3.17-.29,4.75-.01.23,0,.46,0,.69h1.56c-.12-1.89-.23-3.75-.35-5.65Z"/>
      <path class="cls-2" d="m25.69,5.32c-.05.22-.09.44-.15.65-.54,1.91-1.78,3.14-3.71,3.52-1.93.38-3.56-.26-4.77-1.83-.16-.2-.28-.25-.53-.19-1.2.29-2.28.02-3.23-.77-.07-.06-.2-.11-.27-.08-1.08.35-2.04.16-2.84-.54-.39.11-.73.22-1.08.29-.26.05-.44-.13-.45-.35,0-.21.15-.37.41-.39.29-.02.52-.14.73-.34.27-.27.45-.26.71.03.69.75,1.54.92,2.48.49.24-.11.42-.07.6.11.91.92,1.97,1.15,3.19.7.33-.12.44-.09.64.23.54.88,1.3,1.48,2.28,1.81,2.31.78,4.93-.87,5.21-3.3.27-2.37-1.31-4.35-3.68-4.58-1.11-.11-2.09.24-2.94.96-.4.34-.45.35-.88.03-1.19-.9-2.75-.78-3.78.28-.26.26-.35.28-.68.13-1.13-.52-2.37,0-2.8,1.17-.15.42-.3.49-.72.32-.63-.24-1.26.11-1.39.76-.08.43-.23.52-.64.39-.28-.09-.49.02-.57.31-.01.04-.02.08-.03.12-.06.24-.21.35-.43.32-.2-.03-.33-.21-.32-.44.03-.58.51-1.06,1.11-1.1.16,0,.23-.07.29-.2.34-.71,1.12-1.12,1.88-.98.15.03.21-.03.27-.14.57-1.01,1.43-1.51,2.59-1.49.27,0,.54.11.81.15.09.01.22,0,.28-.04,1.21-.99,2.52-1.18,3.95-.56.04.02.09.03.11.05.34.34.61.2.97-.04,2.88-1.86,6.69-.2,7.32,3.18.02.1.05.21.07.31v1.05Z"/>
      <path class="cls-1" d="m9.24,21.69c0-.13-.01-.27,0-.4.03-.24.17-.38.39-.37.23,0,.35.14.37.36.02.27.01.55,0,.82-.01.22-.14.36-.37.36-.23,0-.35-.14-.38-.35-.02-.14,0-.28,0-.42,0,0,0,0,0,0Z"/>
      <path class="cls-1" d="m11.63,21.69c-.01.17-.01.32-.04.48-.03.19-.16.29-.34.3-.18,0-.35-.09-.36-.27-.03-.34-.03-.68,0-1.01.02-.19.18-.27.37-.26.18,0,.3.1.33.28.03.16.03.33.04.49Z"/>
      <path class="cls-1" d="m14.85,21.7c-.01.16-.02.33-.05.49-.04.19-.17.28-.36.28-.18,0-.34-.1-.35-.29-.02-.32-.02-.65,0-.97.01-.19.16-.28.35-.29.19,0,.32.09.36.28.03.16.03.33.05.5Z"/>
      <path class="cls-1" d="m16.44,21.69c0,.14.02.28,0,.42-.03.21-.15.36-.38.36-.22,0-.36-.14-.37-.36-.01-.28-.01-.56,0-.85.01-.21.14-.33.36-.34.22,0,.34.12.38.32.03.15.02.3.02.45,0,0,0,0-.01,0Z"/>
      <path class="cls-1" d="m13.24,21.7c-.01.16-.02.33-.05.49-.04.19-.19.31-.36.27-.13-.03-.32-.16-.33-.26-.04-.33-.03-.68,0-1.01.01-.17.16-.26.34-.26.19,0,.32.09.36.28.03.16.03.33.05.5Z"/>
      <path class="cls-1" d="m21.27,21.7c0,.13,0,.27,0,.4-.02.23-.19.38-.39.38-.2,0-.35-.16-.36-.38,0-.27-.01-.54,0-.8,0-.23.15-.36.36-.37.22,0,.37.14.39.37.01.13,0,.27,0,.4Z"/>
      <path class="cls-1" d="m17.28,21.68c0-.15,0-.3.02-.45.03-.19.15-.29.34-.31.19-.01.35.08.37.26.03.33.03.67,0,1-.02.2-.18.3-.38.29-.19-.02-.33-.13-.34-.34-.01-.15,0-.3,0-.45,0,0-.01,0-.02,0Z"/>
      <path class="cls-1" d="m19.66,21.71c0,.13,0,.25,0,.38-.02.23-.18.39-.38.39-.2,0-.36-.16-.37-.39-.01-.26-.01-.52,0-.78.01-.24.16-.38.37-.38.21,0,.36.15.38.39,0,.13,0,.27,0,.4Z"/>
    </g>
  </g>
</svg>