<svg width="77" height="68" viewBox="0 0 77 68" fill="none" xmlns="http://www.w3.org/2000/svg">
<path d="M69.8655 25.1782C69.8114 23.228 66.9669 23.228 66.9127 25.1782C66.9669 27.1283 69.8114 27.1283 69.8655 25.1782Z" fill="#010101"/>
<path d="M9.15652 34.8746C10.4027 34.9288 11.107 33.3037 10.2401 32.4099V27.7783C10.2401 27.2637 9.80665 26.8303 9.29194 26.8303C8.77722 26.8303 8.34381 27.2637 8.34381 27.7783V32.139C7.93745 32.3828 7.66655 32.8432 7.66655 33.3307L5.71606 34.36C4.84917 34.7933 5.22844 36.1747 6.14951 36.1205C6.4475 36.2017 8.56053 34.9288 8.85853 34.8204C8.9398 34.8204 9.04813 34.8475 9.1294 34.8475L9.15652 34.8746Z" fill="#010101"/>
<path d="M48.8435 14.1815C50.6586 13.7753 50.6586 12.3939 50.6586 11.5814C50.6586 10.7688 50.6586 9.3875 48.8435 8.95413C48.5184 8.87288 48.2205 8.60202 48.0579 8.24992C47.5432 6.62481 49.7375 6.21854 47.5161 3.99757C46.9472 3.42878 45.972 2.45372 44.3737 3.42878C43.8048 3.86214 42.6941 3.29336 42.5857 2.67041C42.1793 0.855708 40.7977 0.855713 39.9579 0.855713C39.1182 0.855713 37.7636 0.855708 37.3302 2.67041C37.2218 3.4017 36.0299 3.75382 35.5152 3.40171C33.9439 2.42665 32.9687 3.40171 32.3727 3.9705C31.8038 4.53928 30.8286 5.51433 31.8038 7.11235C32.2373 7.70822 31.6683 8.79163 31.0453 8.89997C29.2302 9.30625 29.2302 10.6876 29.2302 11.5272C29.2302 12.3669 29.2302 13.7211 31.0453 14.1545C31.7767 14.2628 32.1289 15.4546 31.7767 15.9692C30.8015 17.5401 31.7767 18.5151 32.3456 19.0839C32.9145 19.6527 33.8898 20.6278 35.4881 19.6527C36.057 19.2194 37.1676 19.7882 37.276 20.4111C37.6824 22.2258 39.064 22.2258 39.9038 22.2258C40.7435 22.2258 42.0981 22.2258 42.5315 20.4111C42.6128 20.0861 42.8837 19.7882 43.2358 19.6256C43.6693 19.4902 44.0756 19.5173 44.3465 19.6798C45.9178 20.6549 46.893 19.6798 47.489 19.111C48.0579 18.5422 49.0332 17.5672 48.0579 15.9692C47.8954 15.7254 47.8954 15.3191 48.0037 14.9129C48.2204 14.5337 48.5184 14.2357 48.7893 14.1815H48.8435ZM46.3512 14.1003C45.8365 15.2379 46.1074 16.4025 46.6221 17.2963C46.5137 17.513 45.8907 18.136 45.674 18.2443C44.78 17.7568 43.8319 17.4859 42.6399 17.8922C41.5021 18.3256 40.9061 19.3006 40.6081 20.3299C40.3914 20.4111 39.4974 20.384 39.2807 20.3299C38.9827 19.3277 38.5493 18.5152 37.3844 17.9464C36.3008 17.4318 35.1359 17.7026 34.2148 18.2443C33.9981 18.136 33.375 17.513 33.2667 17.2963C33.7543 16.4025 34.0252 15.4816 33.6189 14.2899C33.2125 13.1252 32.2102 12.5023 31.1536 12.2314C31.0724 12.0147 31.0995 11.1209 31.1536 10.9043C32.156 10.6063 32.9687 10.173 33.5376 9.00832C34.0523 7.92491 33.7814 6.76024 33.2396 5.83935C33.348 5.62267 33.971 4.99972 34.1877 4.89138C35.0817 5.37891 36.0028 5.64977 37.1947 5.2435C38.3596 4.83722 38.9827 3.83506 39.2536 2.77875C39.4703 2.69749 40.3643 2.72458 40.581 2.77875C40.879 3.75381 41.2854 4.56637 42.4232 5.13515C43.5068 5.70394 44.6987 5.40599 45.6198 4.86429C45.8365 4.97263 46.4596 5.5956 46.568 5.81228C46.0532 6.76026 45.8365 7.7353 46.2158 8.84579C46.6492 10.0104 47.6244 10.5792 48.6539 10.8772C48.7351 11.0938 48.708 11.9877 48.6539 12.2044C47.6515 12.5023 46.8659 12.9085 46.27 14.0732L46.3512 14.1003Z" fill="#00AEEF"/>
<path d="M39.9851 7.03101C33.9981 7.19352 33.9981 15.942 39.9851 16.1045C45.972 15.942 45.972 7.19352 39.9851 7.03101ZM39.9851 14.2356C36.4904 14.1544 36.4904 9.00821 39.9851 8.92695C43.4797 9.00821 43.4797 14.1544 39.9851 14.2356Z" fill="#00AEEF"/>
<path d="M35.8945 67.9725H42.1523C42.667 67.9725 43.1005 67.5391 43.1005 67.0245V56.6238C43.1005 54.9987 43.9132 53.5091 45.2677 52.6153L52.2028 48.0921L54.0178 50.8006C54.7493 51.9652 56.6727 51.586 56.8894 50.2318L58.8941 40.0749C59.0566 39.2081 58.5148 38.3956 57.6479 38.206L47.4891 36.2017C46.1617 35.8767 45.051 37.5289 45.8637 38.6394L47.6787 41.3208L43.1276 44.2731V34.6579H46.3784C47.7329 34.712 48.4914 32.8973 47.4891 31.9494L40.1748 24.6364C39.5788 24.0135 38.5223 24.0135 37.9263 24.6364L30.6119 31.9494C29.6096 32.8702 30.3681 34.712 31.7226 34.6579H34.9735V44.2731L30.4223 41.3208L32.2373 38.6394C33.05 37.5289 31.9394 35.8767 30.6119 36.2017L20.4531 38.206C19.5862 38.3685 19.0444 39.2081 19.207 40.0749L21.2117 50.2318C21.4284 51.586 23.3518 51.9652 24.0832 50.8006L25.8982 48.0921L32.8333 52.6153C34.1878 53.5091 35.0005 54.9987 35.0005 56.6238V67.0245C35.0005 67.5391 35.434 67.9725 35.9487 67.9725H35.8945ZM49.7376 41.1312L47.7871 38.2331L56.9706 40.0478L55.1556 49.2296L53.2051 46.3315C52.9071 45.8982 52.3382 45.7898 51.9048 46.0607C50.469 47.1441 43.3172 51.2068 42.4503 52.7236C41.9898 51.2339 41.2313 49.8526 40.256 48.6067C41.0958 47.6587 48.2747 43.2438 49.4396 42.4313C49.873 42.1604 50.0085 41.5375 49.7105 41.1312H49.7376ZM35.8945 32.8432H32.3999L39.0099 26.2344L45.6199 32.8432H42.1523C41.6376 32.8432 41.2042 33.2765 41.2042 33.7911V45.5732C40.4185 46.0607 39.6871 46.6024 39.0099 47.2524C38.3597 46.6295 37.6012 46.0607 36.8156 45.5732V33.7911C36.8156 33.2765 36.3821 32.8432 35.8674 32.8432H35.8945ZM33.8086 51.0714L26.115 46.0607C25.6815 45.7898 25.1126 45.8982 24.8146 46.3315L22.8642 49.2296L21.0491 40.0478L30.2327 38.2331L28.2822 41.1312C28.1467 41.3479 28.0925 41.5916 28.1467 41.8354C28.2009 42.0792 28.3363 42.2959 28.5531 42.4313C29.0949 42.7834 35.8132 47.1712 36.1925 47.3878C42.9921 51.8027 40.8791 59.2782 41.2042 66.0765H36.8156V56.6238C36.8156 54.3758 35.6778 52.2902 33.7815 51.0443L33.8086 51.0714Z" fill="#010101"/>
<path d="M71.6805 33.7098C72.6287 32.0306 73.5769 30.3784 74.525 28.6991C75.0397 27.8053 75.3106 26.8032 75.3377 25.801C75.4461 22.2529 72.6016 19.0839 69.107 18.8402C65.3685 18.3797 61.7927 21.6841 61.7927 25.3947C61.7656 26.9657 62.199 28.2387 62.9576 29.4575C63.7703 30.8659 64.5559 32.2743 65.3686 33.6828C62.6866 34.089 60.2485 35.0641 60.2485 36.8246C60.2485 39.1539 64.5558 40.2102 68.5652 40.2102C72.5745 40.2102 76.8819 39.1539 76.8819 36.8246C76.8819 35.037 74.3896 34.062 71.6805 33.6557V33.7098ZM64.6101 28.5366C62.7408 25.8823 63.8515 21.9008 67.1023 20.9257C70.1906 19.8965 73.5769 22.4425 73.4685 25.7468C73.4685 26.4511 73.2518 27.1553 72.8996 27.7782C71.7077 29.8638 70.5428 31.9493 69.3508 34.0078C69.2425 34.1974 68.6465 35.2537 68.5381 35.4162C67.1836 33.1411 65.9104 30.8117 64.6101 28.5095V28.5366ZM68.5652 38.3685C64.5017 38.3685 62.3616 37.3122 62.1448 36.8517C62.3074 36.5538 63.5264 35.7683 66.3709 35.4704C66.5605 35.8225 66.7772 36.1475 66.994 36.4996C67.6712 37.6101 69.4321 37.583 70.1094 36.4996C70.2719 36.2287 70.5428 35.7412 70.7053 35.4704C73.604 35.7683 74.8772 36.5808 75.0127 36.8788C74.7959 37.3392 72.6558 38.3956 68.5923 38.3956L68.5652 38.3685Z" fill="#010101"/>
<path d="M18.34 33.412C18.015 21.3321 0.325082 21.3321 0 33.412C0.325082 45.519 18.015 45.4919 18.34 33.412ZM1.86923 33.412C2.11304 23.7968 16.1999 23.7968 16.4437 33.412C16.1999 43.0272 2.11304 43.0272 1.86923 33.412Z" fill="#010101"/>
</svg>
