<svg width="46" height="42" viewBox="0 0 46 42" fill="none" xmlns="http://www.w3.org/2000/svg">
<path d="M44.6388 39.225C45.3812 39.225 45.9999 39.8437 45.9999 40.5861C45.9999 41.3285 45.3812 41.9472 44.6388 41.9472H5.4138C2.96997 41.9472 0.897357 40.3077 0.216797 38.0804H2.69156V36.5337C2.69156 38.0185 3.89801 39.225 5.38287 39.225H44.6079H44.6388Z" fill="#010101"/>
<path d="M41.9156 18.2823C42.6581 18.2823 43.2768 18.901 43.2768 19.6435C43.2768 20.3859 42.6581 21.0046 41.9156 21.0046H35.0791V18.3133H41.9156V18.2823Z" fill="#010101"/>
<path d="M39.908 6.0941C40.6505 6.0941 41.2692 6.71279 41.2692 7.45522C41.2692 8.19765 40.6505 8.81633 39.908 8.81633C38.1138 8.81633 36.9074 11.322 35.206 18.2823H32.4219C33.3499 14.3846 33.8758 12.5904 34.6801 10.7343C35.9484 7.76457 37.5879 6.0941 39.939 6.0941H39.908Z" fill="#00AEEF"/>
<path d="M35.0808 18.2823V20.9736H34.555H31.7709H22.3358H19.5517H8.84836H6.06425H2.69238V18.2823H6.71387H9.49798H18.9021H21.6862H32.4205H35.0808Z" fill="#010101"/>
<path d="M31.7686 20.9736H34.5527C33.6247 24.9023 33.0988 26.6965 32.2945 28.5216C31.0262 31.4604 29.3867 33.1309 27.0356 33.1309C24.6846 33.1309 23.0451 31.4604 21.7768 28.5216C20.9725 26.6656 20.4775 24.8714 19.5186 20.9736H22.3027C24.035 27.9339 25.2105 30.4396 27.0047 30.4396C28.7989 30.4396 29.9744 27.9339 31.7068 20.9736H31.7686Z" fill="#00AEEF"/>
<path d="M21.6852 18.2823H18.9011C17.1688 11.322 15.9623 8.81633 14.1991 8.81633C12.4358 8.81633 11.1984 11.322 9.497 18.2823H6.71289C7.64093 14.3846 8.16681 12.5904 8.97111 10.7343C10.2394 7.76457 11.879 6.0941 14.23 6.0941C16.581 6.0941 18.2205 7.76457 19.4889 10.7343C20.2932 12.5904 20.7881 14.3846 21.7471 18.2823H21.6852Z" fill="#00AEEF"/>
<path d="M6.06425 20.9736H8.84836C7.92032 24.9023 7.39443 26.6965 6.59014 28.5216C5.5693 30.8727 4.33191 32.3885 2.69238 32.9453V29.8518C3.80603 28.7691 4.79593 26.0469 6.03331 20.9736H6.06425Z" fill="#00AEEF"/>
<path d="M2.69131 32.9453V38.0804H0.216542C0.0618691 37.5855 0 37.0596 0 36.5337V20.9736H2.69131V32.9453Z" fill="#010101"/>
<path d="M2.69131 18.2823H0V20.9736H2.69131V18.2823Z" fill="#010101"/>
<path d="M2.69131 5.97035H0V18.2514H2.69131V5.97035Z" fill="#010101"/>
<path d="M2.69131 1.36112V5.97037H0V1.36112C0 0.618687 0.587756 0 1.36112 0C2.13448 0 2.72224 0.618687 2.72224 1.36112H2.69131Z" fill="#010101"/>
<path d="M0.216542 38.0804H0V36.5337C0 37.0596 0.0928036 37.5855 0.216542 38.0804Z" fill="#010101"/>
</svg>
