<?xml version="1.0" encoding="UTF-8"?>
<svg id="Layer_2" data-name="Layer 2" xmlns="http://www.w3.org/2000/svg" viewBox="0 0 16.15 26.16">
  <defs>
    <style>
      .cls-1, .cls-2 {
        stroke-width: 0px;
      }

      .cls-2 {
        fill: #27aae1;
      }
    </style>
  </defs>
  <g id="Layer_1-2" data-name="Layer 1">
    <g>
      <path class="cls-1" d="m0,26.16v-2.29h3.83V7.38c-.09,0-.19,0-.28,0-1.09,0-2.18,0-3.27,0-.2,0-.27-.05-.26-.25,0-.54,0-.54.54-.54,1,0,1.99,0,2.99,0h.3V0h8.45v6.59c.13,0,.22,0,.32,0,1.09,0,2.18,0,3.27,0,.21,0,.26.06.26.26,0,.53,0,.53-.52.53-1.01,0-2.01,0-3.02,0-.09,0-.18,0-.29,0v16.47h3.83v2.31h-2.35v-.77h1.53v-.74H.82v.75h12.27v.76H0Zm6.92-9.19h-2.27v1.13c.44,0,.86,0,1.29,0,.07,0,.2.03.2.05.02.22.04.44,0,.66,0,.04-.23.07-.36.08-.38,0-.76,0-1.13,0v1.15h2.27v.76h-2.27v1.14c.34,0,.66,0,.99,0,.54,0,.52,0,.53.54,0,.22-.08.25-.27.25-.41-.01-.83,0-1.26,0v1.12h6.85V7.4h-6.84v1.13h2.26v.76h-2.27v1.14c.34,0,.66,0,.99,0,.54,0,.53,0,.53.54,0,.19-.05.26-.24.25-.42-.01-.85,0-1.28,0v1.15h2.27v.77h-2.26v1.13c.35,0,.69,0,1.02,0,.5,0,.48,0,.5.5,0,.25-.08.3-.3.29-.4-.02-.81,0-1.22,0v1.14h2.27v.77Zm-2.27-10.39h6.85V.77h-6.85v1.99c.34,0,.66,0,.99,0,.54,0,.52,0,.53.54,0,.22-.08.26-.27.25-.41-.01-.83,0-1.26,0v1.15h2.27v.77h-2.27v1.11Z"/>
      <path class="cls-2" d="m2.99,21.66c-.44.45-.89.89-1.32,1.32-.43-.43-.88-.87-1.33-1.33.16-.14.34-.31.54-.49.1.1.23.22.39.37v-9.15h.77v9.16c.17-.15.3-.27.44-.39.18.18.35.36.51.52Z"/>
      <path class="cls-2" d="m1.21,9.71c-.11.13-.22.26-.32.39-.19-.2-.36-.37-.51-.53.42-.42.86-.87,1.3-1.31.41.41.86.86,1.3,1.3-.16.16-.33.33-.54.53-.09-.12-.19-.26-.3-.4-.03.02-.05.03-.08.05v1.83h-.78v-1.82s-.05-.03-.08-.04Z"/>
      <path class="cls-1" d="m10,2.26v-.73h.76v.73h-.76Z"/>
      <path class="cls-1" d="m10,3.06h.75v.74h-.75v-.74Z"/>
    </g>
  </g>
</svg>