<svg width="71" height="71" viewBox="0 0 71 71" fill="none" xmlns="http://www.w3.org/2000/svg">
<path d="M35.4657 0.866943C32.4046 0.866943 29.9393 3.33168 29.9393 6.39229C29.9393 9.4529 32.4316 11.9176 35.4657 11.9176C38.4998 11.9176 40.9921 9.4529 40.9921 6.39229C40.9921 3.33168 38.4998 0.866943 35.4657 0.866943ZM35.4657 10.1571C33.3798 10.1571 31.6731 8.47784 31.6731 6.39229C31.6731 4.30674 33.3798 2.62747 35.4657 2.62747C37.5517 2.62747 39.2584 4.30674 39.2584 6.39229C39.2584 8.47784 37.5517 10.1571 35.4657 10.1571Z" fill="#010101"/>
<path d="M14.7417 20.5036C16.2046 20.5036 17.6133 19.9348 18.6427 18.8785C19.6992 17.8221 20.2681 16.4408 20.2681 14.9782C20.2681 13.4885 19.6993 12.1072 18.6698 11.078C17.6404 10.0487 16.2317 9.42578 14.7688 9.47995C13.306 9.47995 11.8973 10.0487 10.8679 11.1051C9.83843 12.1614 9.24243 13.5427 9.24243 15.0053C9.24243 16.495 9.81136 17.8763 10.8408 18.9055C11.8702 19.9348 13.2518 20.5036 14.7417 20.5036ZM12.0869 12.2968C12.8183 11.5655 13.7665 11.1863 14.7688 11.1863C15.7712 11.1863 16.7193 11.5655 17.4237 12.2968C18.8865 13.7594 18.8865 16.17 17.4237 17.6596C16.6922 18.3909 15.7441 18.7701 14.7417 18.7701C13.7394 18.7701 12.7913 18.3909 12.0869 17.6596C10.624 16.197 10.624 13.7865 12.0869 12.2968Z" fill="#010101"/>
<path d="M6.1812 41.2236C9.2153 41.2236 11.7076 38.7318 11.7076 35.6712C11.7076 32.6106 9.24239 30.1188 6.1812 30.1188C3.12001 30.1188 0.654785 32.6106 0.654785 35.6712C0.654785 38.7318 3.12001 41.2236 6.1812 41.2236ZM6.1812 31.8793C8.26714 31.8793 9.94673 33.5857 9.94673 35.6712C9.94673 37.7568 8.26714 39.4631 6.1812 39.4631C4.09526 39.4631 2.41567 37.7568 2.41567 35.6712C2.41567 33.5857 4.09526 31.8793 6.1812 31.8793Z" fill="#010101"/>
<path d="M14.7689 61.9167C16.2317 61.9167 17.6134 61.3479 18.6699 60.3187C19.6993 59.2894 20.2953 57.881 20.2682 56.4184C20.2682 54.9558 19.6993 53.5474 18.6428 52.5182C17.5862 51.4618 16.2046 50.8931 14.7418 50.8931C13.306 50.8931 11.8702 51.4618 10.8408 52.4911C9.81139 53.5203 9.21537 54.9287 9.24246 56.3913C9.24246 57.8539 9.81137 59.2623 10.8679 60.2916C11.9244 61.3208 13.306 61.9167 14.7689 61.9167ZM12.0599 53.7099C12.7642 53.0057 13.7124 52.5994 14.7147 52.5994C15.717 52.5994 16.6923 53.0057 17.3966 53.7099C18.8866 55.1996 18.8866 57.5831 17.3966 59.0727C16.6923 59.777 15.7441 60.1832 14.7418 60.1832C13.7394 60.1832 12.7642 59.777 12.0599 59.0727C10.5699 57.5831 10.5699 55.1996 12.0599 53.7099Z" fill="#010101"/>
<path d="M41.0192 64.9772C41.0192 61.9437 38.5269 59.4519 35.4928 59.4519C32.4587 59.4519 29.9664 61.9166 29.9664 64.9772C29.9664 68.0379 32.4587 70.5026 35.4928 70.5026C38.5269 70.5026 41.0192 68.0379 41.0192 64.9772ZM31.6731 64.9772C31.6731 62.8917 33.3798 61.2124 35.4657 61.2124C37.5517 61.2124 39.2583 62.8917 39.2583 64.9772C39.2583 67.0628 37.5517 68.7421 35.4657 68.7421C33.3798 68.7421 31.6731 67.0628 31.6731 64.9772Z" fill="#010101"/>
<path d="M56.1626 61.9167C57.6255 61.9167 59.0342 61.3479 60.0636 60.2916C61.093 59.2353 61.689 57.8539 61.689 56.3913C61.689 54.9016 61.1201 53.5203 60.0907 52.4911C59.0613 51.4618 57.6797 50.8931 56.1897 50.8931C54.7268 50.8931 53.3181 51.4618 52.2887 52.5182C51.2322 53.5745 50.6633 54.9558 50.6633 56.4184C50.6633 57.9081 51.2322 59.2894 52.2616 60.3187C53.2911 61.3479 54.6727 61.9167 56.1626 61.9167ZM53.5078 53.7099C54.2392 52.9786 55.1874 52.5994 56.1897 52.5994C57.192 52.5994 58.1402 52.9786 58.8445 53.7099C60.3074 55.1725 60.3074 57.5831 58.8445 59.0727C58.1131 59.804 57.165 60.1832 56.1626 60.1832C55.1603 60.1832 54.2121 59.804 53.5078 59.0727C52.0449 57.6102 52.0449 55.1996 53.5078 53.7099Z" fill="#010101"/>
<path d="M59.2509 35.6712C59.2509 38.7318 61.716 41.2236 64.7772 41.2236C67.8384 41.2236 70.3036 38.7318 70.3036 35.6712C70.3036 32.6106 67.8384 30.1188 64.7772 30.1188C61.716 30.1188 59.2509 32.6106 59.2509 35.6712ZM64.7772 31.8793C66.8632 31.8793 68.5428 33.5857 68.5428 35.6712C68.5428 37.7568 66.8632 39.4631 64.7772 39.4631C62.6913 39.4631 61.0117 37.7568 61.0117 35.6712C61.0117 33.5857 62.6913 31.8793 64.7772 31.8793Z" fill="#010101"/>
<path d="M56.1625 9.45288C54.6997 9.45288 53.3181 10.0217 52.2615 11.0509C51.2321 12.0801 50.6361 13.4886 50.6632 14.9511C50.6632 16.4137 51.2321 17.8222 52.2886 18.8514C53.3451 19.9077 54.7267 20.4765 56.1896 20.4765C57.6525 20.4765 59.0341 19.9077 60.0906 18.8785C61.12 17.8492 61.716 16.4408 61.6889 14.9782C61.6889 13.5156 61.12 12.1072 60.0635 11.078C59.007 10.0488 57.6254 9.45288 56.1625 9.45288ZM58.8716 17.6596C58.1672 18.3639 57.2191 18.7701 56.2167 18.7701C55.2144 18.7701 54.2391 18.3639 53.5348 17.6596C52.0448 16.17 52.0448 13.7865 53.5348 12.2968C54.2391 11.5926 55.1873 11.1863 56.1896 11.1863C57.1919 11.1863 58.1672 11.5926 58.8716 12.2968C60.3615 13.7865 60.3615 16.17 58.8716 17.6596Z" fill="#010101"/>
<path d="M42.9967 7.36739C42.8613 7.82784 43.1322 8.31537 43.5927 8.45079C45.5703 9.04666 47.4937 9.85921 49.3087 10.8614C49.4442 10.9426 49.5797 10.9697 49.7422 10.9697C50.0402 10.9697 50.3382 10.8072 50.5007 10.5363C50.7445 10.1301 50.582 9.58836 50.1756 9.3446C48.2522 8.28828 46.2205 7.42156 44.1074 6.7986C43.6469 6.66318 43.1593 6.93403 43.0238 7.39448L42.9967 7.36739Z" fill="#010101"/>
<path d="M21.6226 10.7529C21.7581 10.7529 21.8935 10.7258 22.029 10.6446C23.844 9.66953 25.7675 8.88406 27.7721 8.31528C28.2327 8.17985 28.5035 7.69232 28.3681 7.23188C28.2326 6.77143 27.745 6.50058 27.2845 6.63601C25.1714 7.23188 23.1126 8.07151 21.1892 9.10075C20.7558 9.31743 20.6203 9.85913 20.837 10.2925C20.9996 10.5904 21.2975 10.7529 21.5955 10.7529H21.6226Z" fill="#010101"/>
<path d="M7.23776 28.0332C7.23776 28.0332 7.40029 28.0603 7.48156 28.0603C7.86083 28.0603 8.21299 27.8165 8.32135 27.4374C8.91734 25.4601 9.73004 23.5371 10.7324 21.7224C10.9762 21.3161 10.8137 20.7744 10.4073 20.5307C9.97386 20.2869 9.45914 20.4494 9.21533 20.8557C8.13173 22.7787 7.29192 24.8101 6.66885 26.9227C6.5334 27.3832 6.8043 27.8707 7.26484 28.0061L7.23776 28.0332Z" fill="#010101"/>
<path d="M10.5427 49.0242C9.56748 47.2095 8.78186 45.2865 8.21297 43.2822C8.07752 42.8217 7.58987 42.5509 7.12934 42.6863C6.66881 42.8217 6.3979 43.3093 6.53335 43.7697C7.12934 45.8823 7.96914 47.9408 8.99857 49.8638C9.16111 50.1618 9.4591 50.3243 9.75709 50.3243C9.89254 50.3243 10.028 50.2972 10.1635 50.2159C10.5969 49.9993 10.7323 49.4576 10.5156 49.0242H10.5427Z" fill="#010101"/>
<path d="M20.8099 61.8083C22.7333 62.8646 24.7651 63.7313 26.8781 64.3543C26.9594 64.3543 27.0406 64.3814 27.1219 64.3814C27.5011 64.3814 27.8533 64.1376 27.9617 63.7584C28.0971 63.298 27.8262 62.8104 27.3657 62.675C25.3881 62.0791 23.4647 61.2666 21.6497 60.2644C21.2162 60.0207 20.7015 60.1832 20.4577 60.5895C20.2139 60.9957 20.3764 61.5374 20.7828 61.7812L20.8099 61.8083Z" fill="#010101"/>
<path d="M43.4302 64.5438C43.4302 64.5438 43.5927 64.5438 43.674 64.5167C45.787 63.9209 47.8459 63.0812 49.7693 62.052C50.2027 61.8353 50.3382 61.2936 50.1215 60.8602C49.9047 60.4269 49.3629 60.2915 48.9295 60.5081C47.1144 61.4832 45.191 62.2687 43.1863 62.8375C42.7258 62.9729 42.4549 63.4604 42.5904 63.9209C42.6987 64.3 43.0509 64.5438 43.4302 64.5438Z" fill="#010101"/>
<path d="M64.2897 44.176C64.4251 43.7155 64.1542 43.228 63.6937 43.0926C63.2331 42.9571 62.7455 43.228 62.6101 43.6884C62.0141 45.6656 61.2014 47.5887 60.199 49.4034C59.9552 49.8096 60.1178 50.3513 60.5241 50.5951C60.6596 50.6764 60.795 50.7034 60.9576 50.7034C61.2556 50.7034 61.5536 50.5409 61.7161 50.2701C62.7997 48.347 63.6395 46.3157 64.2625 44.203L64.2897 44.176Z" fill="#010101"/>
<path d="M60.7679 20.937C60.3345 21.1537 60.199 21.6954 60.4157 22.1287C61.391 23.9434 62.1766 25.8664 62.7455 27.8707C62.8539 28.2499 63.206 28.4937 63.5853 28.4937C63.6666 28.4937 63.7479 28.4937 63.8291 28.4666C64.2897 28.3312 64.5606 27.8437 64.4251 27.3832C63.8291 25.2706 62.9893 23.2121 61.9599 21.2891C61.7432 20.8557 61.2014 20.7203 60.7679 20.937Z" fill="#010101"/>
<path d="M24.8193 29.1437C24.7109 32.0147 25.7403 34.7503 27.6908 36.8629C28.9641 38.2172 29.7226 40.0048 29.8852 41.9549C29.533 42.0632 29.2892 42.3883 29.2892 42.7675V46.749C29.2892 47.7511 30.0206 48.5637 30.9958 48.6991V49.62C30.9958 51.218 32.2962 52.5181 33.8945 52.5181H37.1724C38.7707 52.5181 40.0711 51.218 40.0711 49.62V48.6991C40.965 48.5095 41.6694 47.6969 41.6694 46.749V42.7675C41.6694 42.3883 41.4256 42.0632 41.0734 41.9549C41.2359 40.0048 42.0216 38.2172 43.2948 36.8358C45.1369 34.8586 46.1393 32.2855 46.1393 29.577C46.1393 26.6519 44.9202 23.8079 42.7801 21.8036C40.6129 19.7723 37.7684 18.743 34.7885 18.9326C29.3975 19.2576 25.0089 23.7538 24.8193 29.1437ZM39.9085 43.6342V46.749C39.9085 46.8844 39.8002 46.9927 39.6647 46.9927H31.2938C31.1584 46.9927 31.05 46.8844 31.05 46.749V43.6342H39.9085ZM37.1724 50.7846H33.8945C33.2714 50.7846 32.7296 50.27 32.7296 49.62V48.7262H38.3102V49.62C38.3102 50.2429 37.7955 50.7846 37.1453 50.7846H37.1724ZM34.8968 20.639C37.3891 20.4765 39.7731 21.3432 41.5881 23.0496C43.4031 24.7559 44.4055 27.0581 44.4055 29.55C44.4055 31.8251 43.5657 33.9648 42.0216 35.617C40.4503 37.2963 39.5022 39.5173 39.3396 41.8737H31.646C31.4564 39.4902 30.5353 37.2963 28.9641 35.6441C27.3116 33.8836 26.4718 31.6084 26.5531 29.1979C26.7156 24.6747 30.3999 20.9369 34.8968 20.639Z" fill="#00AEEF"/>
<path d="M57.2732 35.8879V35.8067C57.2732 34.6149 57.1649 33.4232 56.9752 32.2315C56.894 31.771 56.4605 31.446 55.9729 31.5272C55.4853 31.6085 55.1873 32.0419 55.2686 32.5294C55.4582 33.6128 55.5395 34.7233 55.5395 35.8067V35.8879C55.5395 36.3755 55.9187 36.7547 56.4063 36.7547C56.894 36.7547 57.2732 36.3755 57.2732 35.8879Z" fill="#010101"/>
<path d="M24.1962 19.2036C24.3587 19.2036 24.5213 19.1494 24.6838 19.0681C25.6049 18.4723 26.5801 17.9306 27.5825 17.4972C28.0159 17.3076 28.2326 16.793 28.043 16.3596C27.8534 15.9263 27.3386 15.7096 26.9052 15.8992C25.8216 16.3867 24.738 16.9555 23.7627 17.6055C23.3564 17.8764 23.248 18.4181 23.5189 18.7973C23.6815 19.0411 23.9524 19.2036 24.2504 19.2036H24.1962Z" fill="#010101"/>
<path d="M33.8674 55.66C33.3798 55.6058 32.9734 55.985 32.9192 56.4454C32.8651 56.933 33.2443 57.3392 33.7048 57.3934C34.3279 57.4476 34.951 57.4747 35.5741 57.4747C36.1429 57.4747 36.7389 57.4747 37.3078 57.4205C37.7954 57.3934 38.1476 56.96 38.1205 56.4725C38.0934 55.985 37.66 55.6329 37.1724 55.687C36.0888 55.7683 34.951 55.7683 33.8674 55.687V55.66Z" fill="#010101"/>
<path d="M20.7829 50.4868C20.4578 50.8389 20.4848 51.3806 20.837 51.7056C21.7039 52.5181 22.6521 53.2494 23.6544 53.9266C23.7899 54.0349 23.9795 54.062 24.142 54.062C24.4129 54.062 24.7109 53.9266 24.8735 53.6828C25.1444 53.2765 25.036 52.7348 24.6297 52.4911C23.7086 51.8952 22.8417 51.191 22.029 50.4597C21.6768 50.1347 21.135 50.1617 20.8099 50.5139L20.7829 50.4868Z" fill="#010101"/>
<path d="M50.2569 50.5679C49.9318 50.2158 49.39 50.1887 49.0378 50.5138C48.2251 51.2451 47.3583 51.9222 46.4372 52.5181C46.0309 52.7889 45.9225 53.3306 46.1934 53.7098C46.3559 53.9536 46.6268 54.1161 46.9248 54.1161C47.0873 54.1161 47.2499 54.0619 47.3853 53.9806C48.3877 53.3306 49.3358 52.5993 50.2298 51.7868C50.582 51.4617 50.6091 50.92 50.284 50.5679H50.2569Z" fill="#010101"/>
<path d="M46.9791 19.2306C47.25 19.2306 47.548 19.0952 47.7105 18.8244C47.9814 18.4181 47.873 17.8764 47.4667 17.6326C46.4643 16.9826 45.4078 16.4138 44.3242 15.9263C43.8908 15.7367 43.3761 15.9263 43.1864 16.3596C42.9968 16.793 43.1864 17.3076 43.6199 17.4972C44.6222 17.9306 45.5975 18.4723 46.5185 19.0681C46.654 19.1765 46.8436 19.2036 47.0061 19.2036L46.9791 19.2306Z" fill="#010101"/>
<path d="M14.1729 32.1773C13.9832 33.3419 13.8749 34.5607 13.8749 35.7525C13.8749 36.24 14.2541 36.6192 14.7417 36.6192C15.2294 36.6192 15.6086 36.24 15.6086 35.7525C15.6086 34.642 15.717 33.5586 15.8796 32.4752C15.9608 31.9877 15.6357 31.5543 15.1752 31.473C14.6876 31.3918 14.2541 31.7168 14.1729 32.1773Z" fill="#010101"/>
<path d="M30.3998 56.8247C30.7791 56.8247 31.1313 56.5538 31.2397 56.1746C31.348 55.7142 31.0771 55.2267 30.6166 55.1183C29.56 54.8475 28.5035 54.4954 27.5012 54.0349C27.0678 53.8453 26.5531 54.0349 26.3634 54.4683C26.1738 54.9016 26.3634 55.4163 26.7969 55.6058C27.8805 56.0934 29.0183 56.4726 30.1831 56.7705C30.2644 56.7705 30.3186 56.7705 30.3998 56.7705V56.8247Z" fill="#010101"/>
<path d="M16.6651 42.2258C16.313 41.1965 16.0421 40.1131 15.8795 39.0297C15.7983 38.5422 15.3648 38.2443 14.8772 38.2984C14.3896 38.3797 14.0916 38.8131 14.1457 39.3006C14.3354 40.4652 14.6334 41.657 15.0126 42.7675C15.1481 43.1196 15.4732 43.3633 15.8253 43.3633C15.9066 43.3633 16.015 43.3633 16.0962 43.3092C16.5568 43.1467 16.8006 42.6591 16.6381 42.1987L16.6651 42.2258Z" fill="#010101"/>
<path d="M17.6945 25.0809C17.2611 24.8372 16.7463 24.9997 16.5025 25.433C15.9336 26.4894 15.446 27.5728 15.0668 28.7103C14.9042 29.1708 15.148 29.6583 15.6085 29.8208C15.6898 29.8479 15.7982 29.875 15.9065 29.875C16.2587 29.875 16.6109 29.6583 16.7193 29.2791C17.0714 28.2499 17.5319 27.2207 18.0466 26.2727C18.2905 25.8393 18.1279 25.3247 17.6945 25.0809Z" fill="#010101"/>
<path d="M44.6763 54.5495C44.4867 54.1161 43.972 53.8994 43.5385 54.089C42.5362 54.5224 41.4797 54.8745 40.4232 55.1453C39.9626 55.2537 39.6646 55.7412 39.8001 56.2016C39.9084 56.6079 40.2606 56.8517 40.6399 56.8517C40.7212 56.8517 40.7753 56.8517 40.8566 56.8517C42.0215 56.5537 43.1593 56.1746 44.2429 55.7141C44.6763 55.5245 44.8931 55.0099 44.7034 54.5765L44.6763 54.5495Z" fill="#010101"/>
<path d="M16.8005 44.8801C16.3671 45.0968 16.2316 45.6385 16.4483 46.0718C17.0172 47.1281 17.6674 48.1303 18.3988 49.0783C18.5614 49.2949 18.8323 49.4033 19.0761 49.4033C19.2657 49.4033 19.4553 49.3491 19.6179 49.2137C19.9971 48.9158 20.0784 48.3741 19.7804 47.9949C19.1032 47.1281 18.5072 46.2073 17.9925 45.2322C17.7758 44.7988 17.234 44.6634 16.8005 44.8801Z" fill="#010101"/>
<path d="M18.4802 22.4538C18.1822 22.833 18.2363 23.3747 18.6156 23.6726C18.7782 23.808 18.9678 23.8622 19.1574 23.8622C19.4283 23.8622 19.6721 23.7538 19.8347 23.5372C20.5119 22.6704 21.2704 21.8579 22.0831 21.1266C22.4353 20.8016 22.4624 20.2599 22.1373 19.9078C21.8123 19.5557 21.2704 19.5286 20.9182 19.8536C20.0514 20.6662 19.2387 21.5329 18.4802 22.4809V22.4538Z" fill="#010101"/>
<path d="M50.2569 19.8265C49.9047 19.5015 49.3629 19.5286 49.0378 19.8807C48.7128 20.2328 48.7399 20.7745 49.092 21.0995C49.9047 21.8308 50.6632 22.6704 51.3134 23.5101C51.476 23.7268 51.7469 23.8351 51.9907 23.8351C52.1803 23.8351 52.37 23.7809 52.5325 23.6455C52.9118 23.3476 52.993 22.8059 52.695 22.4267C51.9636 21.4787 51.1509 20.612 50.2569 19.7994V19.8265Z" fill="#010101"/>
<path d="M55.2415 39.1652C55.0519 40.2486 54.781 41.3049 54.4288 42.3612C54.2663 42.8217 54.5101 43.3092 54.9706 43.4717C55.0519 43.4988 55.1602 43.5259 55.2686 43.5259C55.6208 43.5259 55.973 43.3092 56.0813 42.93C56.4606 41.7924 56.7857 40.6278 56.9753 39.4631C57.0566 39.0027 56.7315 38.5422 56.2709 38.461C55.7833 38.3797 55.3499 38.7047 55.2686 39.1652H55.2415Z" fill="#010101"/>
<path d="M36.4409 14.9782C36.4138 15.4658 36.766 15.872 37.2265 15.9262C38.3101 16.0075 39.4208 16.1971 40.4773 16.4679C40.5586 16.4679 40.6128 16.4679 40.6941 16.4679C41.0733 16.4679 41.4255 16.1971 41.5338 15.8179C41.6422 15.3574 41.3713 14.8699 40.9108 14.7616C39.7459 14.4636 38.5539 14.274 37.389 14.1657C36.9014 14.1115 36.4951 14.4907 36.4409 14.9512V14.9782Z" fill="#010101"/>
<path d="M29.6413 15.8179C29.7496 16.2241 30.1018 16.4679 30.4811 16.4679C30.5624 16.4679 30.6165 16.4679 30.6978 16.4679C31.7543 16.197 32.865 16.0345 33.9486 15.9262C34.4362 15.8991 34.7884 15.4658 34.7342 14.9782C34.68 14.4907 34.2737 14.1386 33.7861 14.1928C32.5941 14.3011 31.4022 14.4907 30.2644 14.7615C29.8038 14.8699 29.5058 15.3574 29.6413 15.8179Z" fill="#010101"/>
<path d="M54.6456 25.4601C54.4289 25.0267 53.887 24.8913 53.4536 25.108C53.0202 25.3247 52.8847 25.8664 53.1014 26.2997C53.6161 27.2748 54.0767 28.2769 54.4288 29.3062C54.5643 29.6583 54.8894 29.902 55.2416 29.902C55.3228 29.902 55.4312 29.902 55.5124 29.8479C55.973 29.6854 56.2168 29.1978 56.0542 28.7374C55.675 27.5998 55.1874 26.5164 54.6185 25.4601H54.6456Z" fill="#010101"/>
<path d="M51.4218 49.322C51.5843 49.4575 51.7739 49.5116 51.9635 49.5116C52.2345 49.5116 52.4783 49.4033 52.6408 49.1866C53.3722 48.2386 54.0495 47.2365 54.6184 46.2073C54.8622 45.7739 54.6997 45.2593 54.2662 45.0155C53.8328 44.7717 53.3181 44.9343 53.0743 45.3676C52.5595 46.3156 51.9365 47.2636 51.2592 48.1032C50.9612 48.4824 51.0154 49.0241 51.3946 49.322H51.4218Z" fill="#010101"/>
</svg>
