<svg width="53" height="25" viewBox="0 0 53 25" fill="none" xmlns="http://www.w3.org/2000/svg">
<path d="M49.7606 20.5817L46.2062 18.0146C45.8607 17.7925 45.4904 17.7431 45.1449 17.9653C44.7993 18.138 44.5771 18.533 44.5771 18.8539V20.4089H37.6165C37.0488 20.4089 36.6045 20.8532 36.6045 21.4209C36.6045 21.9886 37.0488 22.4329 37.6165 22.4329H44.5771V23.988C44.5771 24.3829 44.7993 24.7038 45.1449 24.8766C45.3177 24.9259 45.4904 25 45.5892 25C45.8113 25 46.0334 24.9506 46.2062 24.7778L49.7606 22.2108C50.0321 22.038 50.2049 21.7171 50.2049 21.3716C50.2049 21.026 50.0321 20.7545 49.7606 20.5817Z" fill="#010101"/>
<path d="M32.8042 20.5817L29.2498 18.0146C28.9042 17.7925 28.534 17.7431 28.1884 17.9653C27.8429 18.138 27.6207 18.533 27.6207 18.8539V20.4089H20.6107C20.0429 20.4089 19.5986 20.8532 19.5986 21.4209C19.5986 21.9886 20.0429 22.4329 20.6107 22.4329H27.5713V23.988C27.5713 24.3829 27.7934 24.7038 28.139 24.8766C28.3118 24.9259 28.4846 25 28.5834 25C28.8055 25 29.0277 24.9506 29.2004 24.7778L32.7548 22.2108C33.0264 22.038 33.1991 21.7171 33.1991 21.3716C33.1991 21.026 33.0263 20.7545 32.8042 20.5817Z" fill="#010101"/>
<path d="M15.7977 20.5817L12.2434 18.0146C11.8979 17.7925 11.5275 17.7431 11.182 17.9653C10.8364 18.138 10.6143 18.533 10.6143 18.8539V20.4089H3.65362C3.08591 20.4089 2.6416 20.8532 2.6416 21.4209C2.6416 21.9886 3.08591 22.4329 3.65362 22.4329H10.6143V23.988C10.6143 24.3829 10.8364 24.7038 11.182 24.8766C11.3548 24.9259 11.5276 25 11.6263 25C11.8485 25 12.0706 24.9506 12.2434 24.7778L15.7977 22.2108C16.0692 22.038 16.2421 21.7171 16.2421 21.3716C16.2421 21.026 16.0692 20.7545 15.7977 20.5817Z" fill="#010101"/>
<path d="M49.7606 2.76039L46.2062 0.193336C45.8607 -0.0288131 45.4904 -0.0781807 45.1449 0.143968C44.7993 0.316751 44.5771 0.711684 44.5771 1.03257V2.58761H37.6165C37.0488 2.58761 36.6045 3.03191 36.6045 3.59963C36.6045 4.16734 37.0488 4.61164 37.6165 4.61164H44.5771V6.16668C44.5771 6.56161 44.7993 6.88249 45.1449 7.05527C45.3177 7.10464 45.4904 7.1787 45.5892 7.1787C45.8113 7.1787 46.0334 7.12932 46.2062 6.95654L49.7606 4.38948C50.0321 4.2167 50.2049 3.89582 50.2049 3.55026C50.2049 3.20469 50.0321 2.93318 49.7606 2.76039Z" fill="#010101"/>
<path d="M32.8042 2.76039L29.2498 0.193336C28.9042 -0.0288131 28.534 -0.0781807 28.1884 0.143968C27.8429 0.316751 27.6207 0.711684 27.6207 1.03257V2.58761H20.6107C20.0429 2.58761 19.5986 3.03191 19.5986 3.59963C19.5986 4.16734 20.0429 4.61164 20.6107 4.61164H27.5713V6.16668C27.5713 6.56161 27.7934 6.88249 28.139 7.05527C28.3118 7.10464 28.4846 7.1787 28.5834 7.1787C28.8055 7.1787 29.0277 7.12932 29.2004 6.95654L32.7548 4.38948C33.0264 4.2167 33.1991 3.89582 33.1991 3.55026C33.1991 3.20469 33.0263 2.93318 32.8042 2.76039Z" fill="#010101"/>
<path d="M15.7977 2.76039L12.2434 0.193336C11.8979 -0.0288131 11.5275 -0.0781807 11.182 0.143968C10.8364 0.316751 10.6143 0.711684 10.6143 1.03257V2.58761H3.65362C3.08591 2.58761 2.6416 3.03191 2.6416 3.59963C2.6416 4.16734 3.08591 4.61164 3.65362 4.61164H10.6143V6.16668C10.6143 6.56161 10.8364 6.88249 11.182 7.05527C11.3548 7.10464 11.5276 7.1787 11.6263 7.1787C11.8485 7.1787 12.0706 7.12932 12.2434 6.95654L15.7977 4.38948C16.0692 4.2167 16.2421 3.89582 16.2421 3.55026C16.2421 3.20469 16.0692 2.93318 15.7977 2.76039Z" fill="#010101"/>
<path d="M51.9336 12.6831C51.4893 12.5596 51.2177 12.4116 50.8228 12.1894C50.107 11.7451 49.2184 11.2514 47.5399 11.2514C45.8615 11.2514 44.9728 11.8192 44.257 12.1894C43.6399 12.5843 43.1957 12.8065 42.2577 12.8065C41.3197 12.8065 40.8014 12.535 40.2584 12.1894C39.5425 11.7451 38.654 11.2514 36.9755 11.2514C35.2971 11.2514 34.4084 11.8192 33.6926 12.1894C33.0755 12.5843 32.6312 12.8065 31.6933 12.8065C30.6813 12.8065 30.237 12.535 29.6939 12.1894C28.9781 11.7451 28.0896 11.2514 26.4111 11.2514C24.7326 11.2514 23.844 11.8192 23.1282 12.1894C22.5111 12.5843 22.0668 12.8065 21.1288 12.8065C20.1168 12.8065 19.6725 12.535 19.1295 12.1894C18.4137 11.7451 17.5251 11.2514 15.8467 11.2514C14.1682 11.2514 13.2796 11.8192 12.5638 12.1894C11.9467 12.5843 11.5024 12.8065 10.5644 12.8065C9.55241 12.8065 9.10812 12.535 8.56509 12.1894C7.84927 11.7451 6.96071 11.2514 5.28225 11.2514C3.60379 11.2514 2.71515 11.8192 1.99934 12.1894C1.6044 12.4116 1.33293 12.6337 0.888636 12.6831C0.320921 12.8065 0 13.3001 0 13.8432C0 14.633 0.715805 15.1761 1.4563 15.0033C2.24617 14.8305 2.7892 14.5096 3.2335 14.2134C3.85058 13.8185 4.29487 13.5963 5.23283 13.5963C6.24485 13.5963 6.68914 13.8679 7.23217 14.2134C7.94798 14.6577 8.83662 15.1514 10.5151 15.1514C12.1935 15.1514 13.0821 14.5837 13.7979 14.2134C14.415 13.8185 14.8593 13.5963 15.7973 13.5963C16.8093 13.5963 17.2536 13.8679 17.7967 14.2134C18.5125 14.6577 19.401 15.1514 21.0795 15.1514C22.758 15.1514 23.6465 14.5837 24.3623 14.2134C24.9794 13.8185 25.4237 13.5963 26.3617 13.5963C27.3737 13.5963 27.8181 13.8679 28.3611 14.2134C29.0769 14.6577 29.9655 15.1514 31.6439 15.1514C33.3224 15.1514 34.211 14.5837 34.9268 14.2134C35.5438 13.8185 35.9882 13.5963 36.9262 13.5963C37.9382 13.5963 38.3825 13.8679 38.9255 14.2134C39.6413 14.6577 40.5299 15.1514 42.2084 15.1514C43.8868 15.1514 44.7754 14.5837 45.4912 14.2134C46.1083 13.8185 46.5526 13.5963 47.4906 13.5963C48.5026 13.5963 48.9469 13.8679 49.4899 14.2134C49.9342 14.4849 50.502 14.8305 51.2671 15.0033C51.9829 15.1761 52.7234 14.6084 52.7234 13.8432C52.8469 13.2755 52.4519 12.7818 51.9336 12.6831Z" fill="#00AEEF"/>
</svg>
