<?xml version="1.0" encoding="UTF-8"?>
<svg id="Layer_2" data-name="Layer 2" xmlns="http://www.w3.org/2000/svg" viewBox="0 0 26.31 26.11">
  <defs>
    <style>
      .cls-1, .cls-2 {
        stroke-width: 0px;
      }

      .cls-2 {
        fill: #27aae1;
      }
    </style>
  </defs>
  <g id="Layer_1-2" data-name="Layer 1">
    <g>
      <path class="cls-1" d="m19.37,16.15c.85-.56,1.68-1.12,2.38-1.86.34-.36.39-.8.39-1.24-.01-1.19-.05-2.37-.08-3.56-.02-1.08.12-2.11.79-3,.7-.93,1.66-1.38,2.8-1.47.37-.03.54.14.55.51.04,2.08.1,4.16.1,6.24,0,1.24-.1,2.47-.15,3.71-.03.73-.36,1.33-.83,1.87-.93,1.04-2.03,1.87-3.16,2.67-.18.12-.34.27-.54.36-.4.18-.55.47-.47.9.03.16,0,.32,0,.47.03.02.05.04.06.04.6-.03.68.22.67.71-.02,1.02,0,2.05,0,3.07,0,.41-.15.56-.56.56-2.29,0-4.57,0-6.86,0-.4,0-.57-.16-.57-.56,0-1.07,0-2.13,0-3.2,0-.29.1-.5.4-.58,0-.37,0-.74,0-1.11.02-1.16.02-2.32.06-3.48.03-1.03.36-1.98.89-2.85.59-.96,1.23-1.91,1.9-2.82.26-.35.64-.63,1.02-.84.55-.31,1.11-.14,1.48.37.44.61.52,1.29.37,2.01-.21,1-.43,2-.64,2.99,0,.02,0,.05,0,.1Zm6.02-10.23c-1.01.22-1.71.72-2.11,1.61-.26.58-.33,1.19-.32,1.81.02,1.28.04,2.56.06,3.84.02.77-.3,1.39-.84,1.92-.93.91-2.01,1.61-3.12,2.27-.2.12-.41.2-.62.05-.22-.16-.19-.38-.14-.61.29-1.38.58-2.77.87-4.16.07-.35-.01-.68-.18-.99-.15-.28-.33-.34-.59-.15-.2.14-.4.31-.54.51-.61.87-1.22,1.74-1.79,2.64-.43.69-.76,1.44-.79,2.26-.05,1.52-.05,3.04-.08,4.56,0,.08.01.17.02.26h5.05c0-.39.02-.75,0-1.12-.02-.34.12-.53.39-.71.65-.42,1.3-.84,1.9-1.32.7-.55,1.36-1.16,2.01-1.77.33-.3.6-.67.65-1.14.06-.6.15-1.2.15-1.8.02-2.13,0-4.26,0-6.4,0-.51,0-1.03,0-1.58Zm-10.57,16.74v2.55h6.17v-2.55h-6.17Z"/>
      <path class="cls-1" d="m5.17,21.77c0-.34.01-.66,0-.98,0-.08-.1-.19-.19-.24-1.13-.74-2.23-1.52-3.22-2.44-.3-.28-.57-.59-.86-.89-.61-.65-.73-1.47-.79-2.31-.2-3.13-.09-6.25,0-9.38.01-.37.18-.54.55-.51,1.43.1,3.02.93,3.46,2.94.23,1.05.09,2.11.08,3.16,0,.81,0,1.61.03,2.42,0,.21.11.46.25.63.3.35.65.67,1.01.96.46.37.95.7,1.49,1.08-.23-1.09-.44-2.11-.66-3.12-.14-.66-.09-1.28.25-1.87.4-.69,1.07-.88,1.75-.46.3.18.58.41.79.68.86,1.08,1.63,2.21,2.25,3.45.54,1.09.64,2.25.65,3.43.01,1.07,0,2.15,0,3.22,0,.13.01.22.15.31.13.08.24.28.25.44.02,1.11.02,2.22,0,3.33,0,.34-.18.5-.52.5-2.32,0-4.64,0-6.96,0-.34,0-.5-.17-.5-.51,0-1.08,0-2.17,0-3.25,0-.43.12-.56.57-.57.04,0,.08,0,.16-.01Zm5.93,0c0-.05.02-.09.02-.12,0-1.43,0-2.85-.03-4.28-.01-.89-.26-1.74-.73-2.49-.61-.98-1.27-1.93-1.93-2.89-.13-.19-.32-.34-.51-.47-.26-.18-.43-.13-.59.15-.17.31-.25.64-.18.99.16.81.34,1.63.51,2.44.12.6.25,1.19.37,1.79.04.2.05.43-.16.53-.14.07-.36.1-.48.03-1.22-.69-2.4-1.44-3.38-2.46-.31-.33-.6-.68-.65-1.15-.06-.51-.09-1.03-.09-1.54,0-1.13.06-2.25.07-3.38,0-.6-.15-1.17-.46-1.69-.43-.72-1.07-1.13-1.92-1.29,0,.3,0,.58,0,.85-.09,2.64-.13,5.27,0,7.91.05,1.03.35,1.9,1.16,2.55,0,0,.01.01.02.02,1.06,1,2.23,1.85,3.47,2.63.33.2.47.43.44.82-.03.35,0,.7,0,1.06h5.05Zm-5.77,3.44h6.18v-2.54h-6.18v2.54Z"/>
      <path class="cls-2" d="m17.71,8.28c-.02,2.24-1.75,4.16-3.97,4.43-2.55.3-4.81-1.49-5.1-4.03-.09-.81.13-1.57.43-2.3.7-1.67,1.66-3.2,2.67-4.69.33-.48.67-.96,1.01-1.43.23-.32.57-.33.79-.03,1.35,1.84,2.62,3.73,3.56,5.81.32.71.6,1.44.59,2.25ZM13.16,1.2c-.29.43-.57.82-.83,1.22-.89,1.34-1.74,2.69-2.38,4.17-.25.58-.48,1.16-.44,1.81.16,2.27,2.21,3.84,4.44,3.37,2.11-.44,3.44-2.75,2.63-4.68-.08-.2-.15-.4-.24-.6-.74-1.66-1.73-3.18-2.75-4.68-.13-.2-.27-.39-.43-.61Z"/>
      <path class="cls-2" d="m10.43,8.49c.01-.91.21-1.67.54-2.41.22-.47.46-.94.7-1.4.15-.29.39-.38.63-.25.24.13.29.36.15.66-.31.66-.65,1.31-.9,1.99-.3.82-.37,1.67.02,2.51.12.26.02.51-.21.61-.24.1-.48,0-.6-.28-.21-.48-.35-.99-.33-1.43Z"/>
    </g>
  </g>
</svg>