<?xml version="1.0" encoding="UTF-8"?>
<svg id="Layer_2" data-name="Layer 2" xmlns="http://www.w3.org/2000/svg" viewBox="0 0 26.12 26.12">
  <defs>
    <style>
      .cls-1, .cls-2, .cls-3 {
        stroke-width: 0px;
      }

      .cls-2 {
        fill: #27aae1;
      }

      .cls-3 {
        fill: none;
      }
    </style>
  </defs>
  <g id="Layer_1-2" data-name="Layer 1">
    <g>
      <path class="cls-3" d="m26.12,26.12c-8.71,0-17.41,0-26.12,0V0C8.7,0,17.41,0,26.12,0v26.12Zm-6.72-10.64s-.05-.03-.05-.04c-.37-.74-1.39-.95-2.1-.3-.82.74-1.69,1.42-2.52,2.14-.16.14-.28.14-.45.04-.37-.22-.77-.4-1.13-.64-1.13-.74-2.3-.77-3.51-.24-.68.29-1.36.57-2.03.86-.12.05-.2.06-.31-.05-.27-.28-.61-.41-1.01-.41-1.18,0-2.36,0-3.54,0-.86,0-1.43.58-1.43,1.44,0,1.89,0,3.78,0,5.68,0,.86.57,1.44,1.43,1.44,1.17,0,2.34,0,3.51,0,.86,0,1.42-.56,1.44-1.41,0-.32.01-.65,0-.97,0-.17.04-.28.2-.37.36-.21.71-.43,1.06-.66.31-.21.61-.21.93-.02.55.32,1.1.64,1.66.94.8.43,1.65.63,2.55.5,1.12-.16,2.24-.37,3.36-.53.74-.1,1.37-.4,1.95-.86.46-.36.94-.7,1.41-1.04,1.14-.84,2.29-1.67,3.42-2.51.5-.37.71-.89.59-1.5-.13-.65-.54-1.06-1.19-1.21-.43-.1-.83.02-1.21.25-.02-.07-.04-.11-.06-.16-.36-1.14-1.63-1.51-2.54-.73-.14.12-.28.24-.42.36Zm-9.42-2.86c-.1.28-.21.57-.31.87-.16.47.04.89.5,1.07.28.11.57.21.86.31.55.19.97,0,1.17-.55.1-.26.19-.52.28-.76h1.24c.1.26.19.54.3.81.19.47.62.67,1.09.51.26-.09.53-.19.79-.29.62-.23.81-.66.57-1.26-.09-.23-.19-.47-.28-.68.32-.29.62-.56.94-.84.25.14.51.3.78.44.45.25.92.13,1.19-.31.16-.27.32-.54.47-.82.25-.47.12-.93-.35-1.19-.24-.13-.49-.26-.73-.39.08-.42.15-.83.23-1.25.27-.05.55-.1.83-.16.48-.09.76-.44.7-.93-.04-.36-.1-.72-.19-1.07-.11-.46-.53-.71-.99-.61-.24.05-.48.11-.72.15-.06,0-.15-.02-.18-.07-.2-.32-.39-.65-.58-.98.19-.23.39-.46.59-.71.3-.39.26-.86-.11-1.18-.24-.21-.49-.42-.74-.62-.41-.32-.89-.26-1.22.14-.15.18-.28.38-.44.56-.04.05-.15.09-.2.07-.35-.12-.7-.25-1.07-.39,0-.28,0-.59,0-.89-.02-.5-.36-.84-.86-.84-.31,0-.61,0-.92,0-.58,0-.92.38-.89.96.01.21.03.42.02.64,0,.06-.07.15-.12.18-.34.14-.68.26-1.05.4-.17-.2-.36-.44-.56-.67-.35-.41-.82-.45-1.24-.11-.22.18-.44.37-.66.56-.45.38-.49.87-.09,1.31.18.2.36.4.52.59-.21.38-.4.73-.61,1.11-.28-.05-.57-.1-.86-.15-.48-.09-.91.18-1.01.64-.07.35-.13.7-.17,1.05-.06.49.23.85.72.94.28.05.56.1.82.15.09.42.18.8.27,1.21-.23.13-.47.28-.71.42-.52.3-.64.75-.35,1.27.14.24.28.48.42.72.3.49.77.61,1.26.31.23-.14.46-.28.67-.42.33.26.64.51.98.78Z"/>
      <path class="cls-1" d="m19.4,15.48c.14-.12.27-.24.42-.36.91-.78,2.19-.42,2.54.73.02.05.03.1.06.16.38-.23.77-.35,1.21-.25.65.15,1.06.56,1.19,1.21.12.61-.09,1.13-.59,1.5-1.14.84-2.28,1.68-3.42,2.51-.47.35-.95.68-1.41,1.04-.58.46-1.21.76-1.95.86-1.12.15-2.24.37-3.36.53-.9.13-1.75-.07-2.55-.5-.56-.3-1.11-.62-1.66-.94-.32-.19-.62-.19-.93.02-.35.23-.7.45-1.06.66-.15.09-.2.2-.2.37.01.32,0,.64,0,.97-.02.85-.58,1.41-1.44,1.41-1.17,0-2.34,0-3.51,0-.86,0-1.43-.58-1.43-1.44,0-1.89,0-3.78,0-5.68,0-.86.57-1.44,1.43-1.44,1.18,0,2.36,0,3.54,0,.4,0,.74.12,1.01.41.11.11.19.1.31.05.68-.29,1.36-.57,2.03-.86,1.21-.53,2.38-.5,3.51.24.36.24.76.42,1.13.64.17.1.29.09.45-.04.84-.72,1.71-1.4,2.52-2.14.71-.64,1.73-.44,2.1.3,0,.01.02.02.05.04Zm-11.69,6.26c.28-.17.53-.32.78-.48.59-.38,1.19-.4,1.8-.05.51.29,1.02.58,1.52.87.76.43,1.56.58,2.42.44.89-.15,1.77-.31,2.66-.42.84-.1,1.56-.43,2.23-.95,1.21-.94,2.47-1.82,3.71-2.73.3-.22.61-.44.9-.67.22-.17.29-.41.2-.68-.08-.26-.27-.43-.54-.43-.17,0-.37.06-.52.16-1.37.91-2.73,1.84-4.08,2.77-.15.1-.26.26-.41.37-.23.17-.45.39-.71.47-.78.24-1.58.46-2.38.61-1.25.24-2.48.13-3.65-.43-.29-.14-.39-.38-.28-.62.11-.24.37-.32.65-.18.99.48,2.04.57,3.1.36.75-.15,1.49-.37,2.24-.56.34-.09.51-.33.47-.65-.04-.29-.28-.48-.62-.48-.65,0-1.31,0-1.96,0-.5,0-.98-.11-1.42-.35-.42-.23-.83-.45-1.24-.7-.78-.48-1.6-.53-2.43-.19-.75.3-1.5.63-2.25.94-.15.06-.22.14-.21.32,0,1.02,0,2.04,0,3.06,0,.06,0,.13.01.24Zm-.89-.59c0-.95,0-1.9,0-2.85,0-.38-.19-.58-.58-.58-1.15,0-2.31,0-3.46,0-.4,0-.59.2-.59.6,0,1.87,0,3.75,0,5.62,0,.4.2.59.6.6,1.14,0,2.29,0,3.43,0,.41,0,.6-.19.6-.61,0-.92,0-1.85,0-2.77Zm11.87-2.61c.85-.58,1.72-1.17,2.58-1.77.23-.16.32-.41.23-.7-.15-.51-.72-.65-1.14-.27-.71.63-1.41,1.26-2.12,1.9-.04.04-.07.08-.09.1.18.25.34.48.53.74Zm-2.92-1.01c.47,0,.88,0,1.28,0,.06,0,.13-.07.19-.12.39-.35.79-.7,1.18-1.04.21-.19.25-.42.09-.6-.16-.19-.38-.2-.61-.02-.26.21-.52.43-.78.65-.43.36-.86.72-1.35,1.13Z"/>
      <path class="cls-2" d="m9.99,12.63c-.34-.27-.65-.52-.98-.78-.21.13-.44.28-.67.42-.49.3-.96.18-1.26-.31-.14-.24-.28-.48-.42-.72-.29-.51-.17-.96.35-1.27.24-.14.48-.28.71-.42-.09-.4-.18-.79-.27-1.21-.25-.05-.53-.1-.82-.15-.49-.08-.78-.45-.72-.94.04-.35.1-.7.17-1.05.1-.46.53-.72,1.01-.64.29.05.58.1.86.15.21-.37.4-.73.61-1.11-.17-.18-.34-.39-.52-.59-.39-.44-.36-.93.09-1.31.22-.19.44-.38.66-.56.42-.34.88-.3,1.24.11.2.23.39.46.56.67.37-.14.71-.26,1.05-.4.06-.02.12-.12.12-.18,0-.21-.01-.42-.02-.64-.03-.59.31-.96.89-.96.31,0,.61,0,.92,0,.5,0,.84.34.86.84,0,.3,0,.61,0,.89.37.14.72.27,1.07.39.06.02.16-.02.2-.07.16-.18.29-.38.44-.56.33-.4.81-.45,1.22-.14.25.2.5.41.74.62.37.33.42.79.11,1.18-.19.25-.4.48-.59.71.2.34.38.66.58.98.03.04.12.08.18.07.24-.04.48-.1.72-.15.46-.09.88.15.99.61.09.35.15.71.19,1.07.05.49-.22.83-.7.93-.28.05-.56.11-.83.16-.08.42-.15.83-.23,1.25.24.13.49.25.73.39.47.26.6.72.35,1.19-.15.28-.31.55-.47.82-.27.44-.73.56-1.19.31-.27-.15-.53-.3-.78-.44-.32.28-.62.55-.94.84.09.21.18.45.28.68.24.6.05,1.04-.57,1.26-.26.1-.52.2-.79.29-.48.16-.91-.04-1.09-.51-.11-.27-.21-.55-.3-.81h-1.24c-.09.24-.18.5-.28.76-.2.55-.62.74-1.17.55-.29-.1-.58-.2-.86-.31-.46-.18-.66-.61-.5-1.07.1-.3.21-.59.31-.87Zm8.83-1.95c-.25-.13-.48-.25-.71-.37-.43-.23-.58-.56-.48-1.03.08-.41.14-.83.2-1.25.04-.32.18-.49.49-.55.36-.07.73-.14,1.11-.21-.05-.22-.09-.41-.13-.61-.02-.1-.05-.19-.08-.3-.27.06-.52.12-.78.17-.47.11-.8-.05-1.03-.48-.16-.3-.33-.59-.51-.88-.28-.42-.27-.74.04-1.14.18-.22.36-.44.56-.68-.14-.11-.25-.2-.37-.29-.12-.09-.24-.18-.37-.28-.16.22-.32.42-.47.62-.32.42-.67.5-1.16.29-.29-.12-.58-.24-.88-.33-.53-.16-.72-.41-.73-.95,0-.27,0-.54,0-.83-.34.02-.63.03-.95.05.02.28.04.54.05.79.02.48-.2.78-.66.93-.31.1-.61.21-.9.33-.52.23-.85.17-1.21-.27-.17-.21-.35-.41-.53-.62-.25.23-.46.43-.69.64.2.22.4.42.58.63.29.33.31.68.09,1.05-.2.33-.4.67-.59,1.01-.2.36-.53.52-.93.45-.3-.05-.59-.1-.9-.14-.04.33-.08.62-.12.92.4.06.77.11,1.15.17.28.04.39.2.43.48.05.43.12.85.2,1.27.1.48-.02.79-.44,1.05-.24.15-.49.29-.75.44.18.28.34.53.51.79.23-.15.45-.29.66-.42.45-.28.79-.24,1.17.11.24.22.5.44.76.63.4.3.5.62.34,1.09-.09.27-.19.54-.29.83.31.1.6.18.89.27.12-.38.24-.72.35-1.07.11-.32.26-.43.59-.37.49.09.98.08,1.47,0,.38-.06.52.03.66.39.09.25.18.49.27.74.04.11.09.21.13.32.26-.11.5-.2.73-.3.04-.02.07-.04.12-.06-.11-.26-.21-.51-.31-.76-.18-.44-.08-.78.3-1.08.27-.21.53-.42.78-.65.37-.34.7-.4,1.15-.15.25.14.49.28.75.42.15-.29.28-.55.43-.83Z"/>
      <path class="cls-3" d="m7.71,21.74c0-.11-.01-.18-.01-.24,0-1.02,0-2.04,0-3.06,0-.17.06-.25.21-.32.75-.31,1.5-.64,2.25-.94.84-.34,1.65-.29,2.43.19.4.25.82.47,1.24.7.44.24.91.35,1.42.35.65,0,1.31,0,1.96,0,.34,0,.58.2.62.48.04.32-.13.56-.47.65-.74.19-1.48.41-2.24.56-1.06.21-2.11.12-3.1-.36-.28-.14-.54-.06-.65.18-.11.24,0,.48.28.62,1.17.56,2.4.67,3.65.43.8-.15,1.6-.37,2.38-.61.26-.08.48-.3.71-.47.15-.11.26-.26.41-.37,1.36-.93,2.72-1.85,4.08-2.77.14-.1.34-.16.52-.16.27,0,.45.18.54.43.09.27.02.51-.2.68-.29.23-.6.45-.9.67-1.24.91-2.49,1.79-3.71,2.73-.67.52-1.39.85-2.23.95-.89.11-1.77.27-2.66.42-.86.14-1.67,0-2.42-.44-.51-.29-1.02-.58-1.52-.87-.61-.35-1.21-.33-1.8.05-.25.16-.5.31-.78.48Z"/>
      <path class="cls-3" d="m6.82,21.15c0,.92,0,1.85,0,2.77,0,.42-.19.61-.6.61-1.14,0-2.29,0-3.43,0-.4,0-.59-.19-.6-.6,0-1.87,0-3.75,0-5.62,0-.4.19-.6.59-.6,1.15,0,2.31,0,3.46,0,.39,0,.58.2.58.58,0,.95,0,1.9,0,2.85Zm-1.91-.34c.76,0,1.39-.64,1.39-1.4,0-.76-.64-1.39-1.4-1.39-.76,0-1.39.64-1.39,1.4,0,.76.63,1.39,1.39,1.39Z"/>
      <path class="cls-3" d="m18.7,18.54c-.18-.26-.35-.49-.53-.74.01-.02.05-.06.09-.1.7-.63,1.41-1.27,2.12-1.9.42-.37.99-.23,1.14.27.08.28,0,.54-.23.7-.86.6-1.73,1.19-2.58,1.77Z"/>
      <path class="cls-3" d="m15.77,17.54c.49-.41.92-.77,1.35-1.13.26-.22.52-.44.78-.65.22-.18.45-.17.61.02.15.18.12.41-.09.6-.39.35-.78.7-1.18,1.04-.06.05-.12.12-.19.12-.4.01-.8,0-1.28,0Z"/>
      <path class="cls-3" d="m18.82,10.67c-.14.28-.28.55-.43.83-.26-.15-.51-.28-.75-.42-.45-.25-.78-.2-1.15.15-.25.23-.51.45-.78.65-.37.29-.48.63-.3,1.08.1.25.21.5.31.76-.04.02-.08.05-.12.06-.23.1-.47.19-.73.3-.05-.11-.09-.22-.13-.32-.09-.25-.18-.49-.27-.74-.14-.36-.27-.45-.66-.39-.49.08-.98.09-1.47,0-.33-.06-.48.05-.59.37-.12.34-.23.69-.35,1.07-.3-.09-.58-.18-.89-.27.1-.29.2-.56.29-.83.16-.47.05-.79-.34-1.09-.26-.2-.52-.41-.76-.63-.38-.35-.72-.39-1.17-.11-.21.14-.43.27-.66.42-.17-.26-.33-.51-.51-.79.26-.15.51-.29.75-.44.43-.26.54-.57.44-1.05-.09-.42-.15-.85-.2-1.27-.04-.28-.15-.43-.43-.48-.38-.06-.75-.11-1.15-.17.04-.3.07-.59.12-.92.31.05.6.09.9.14.41.07.73-.09.93-.45.19-.34.38-.68.59-1.01.22-.37.2-.72-.09-1.05-.18-.21-.38-.41-.58-.63.23-.21.44-.41.69-.64.18.21.36.42.53.62.36.43.69.5,1.21.27.29-.13.6-.24.9-.33.45-.15.68-.45.66-.93-.01-.25-.03-.51-.05-.79.31-.02.61-.03.95-.05,0,.29,0,.56,0,.83,0,.55.21.79.73.95.3.09.59.2.88.33.49.21.84.13,1.16-.29.15-.2.31-.4.47-.62.13.1.25.19.37.28.12.09.24.18.37.29-.2.24-.38.46-.56.68-.32.39-.32.71-.04,1.14.18.28.35.58.51.88.23.43.55.59,1.03.48.25-.06.51-.11.78-.17.03.11.06.2.08.3.04.2.09.39.13.61-.38.07-.75.14-1.11.21-.32.06-.45.22-.49.55-.06.42-.12.84-.2,1.25-.09.47.05.81.48,1.03.23.12.46.24.71.37Zm-3.13-3.82s.04,0,.06.01c-.01.11-.01.22-.04.32-.26,1.12-1.29,1.75-2.41,1.49-.25-.06-.45-.02-.61.19-.53.7-1.07,1.4-1.6,2.11-.2.27-.2.53.01.7.21.16.48.1.68-.15.41-.54.84-1.07,1.23-1.62.17-.24.33-.31.62-.29,1.97.12,3.44-1.76,2.88-3.66-.08-.26-.21-.45-.48-.5-.25-.05-.43.1-.58.29-.39.49-.79.97-1.18,1.47-.13.17-.24.18-.39.04-.16-.14-.33-.26-.5-.39-.27-.21-.27-.24-.06-.5.39-.49.79-.97,1.18-1.46.31-.39.14-.86-.35-.92-.28-.03-.58-.03-.86.01-1.53.23-2.65,1.8-2.29,3.31.13.54.05.92-.32,1.27-.04.03-.06.08-.09.12-.32.42-.64.83-.96,1.25-.12.16-.17.34-.03.49.09.11.27.21.4.2.14-.01.31-.14.4-.26.51-.64,1-1.31,1.51-1.95.21-.26.25-.49.1-.81-.48-1.01,0-2.22,1.02-2.65.09-.04.19-.06.29-.09-.25.39-.52.72-.79,1.06-.39.5-.33,1.1.17,1.51.22.18.45.36.68.54.55.42,1.1.36,1.54-.17.26-.31.51-.63.76-.95Z"/>
      <path class="cls-1" d="m4.91,20.82c-.76,0-1.39-.63-1.39-1.39,0-.76.63-1.4,1.39-1.4.75,0,1.4.64,1.4,1.39,0,.76-.63,1.39-1.39,1.4Zm0-1.89c-.28,0-.5.2-.51.48,0,.29.22.52.51.52.28,0,.49-.22.49-.5,0-.29-.21-.5-.49-.5Z"/>
      <path class="cls-1" d="m15.69,6.86c-.25.32-.51.63-.76.95-.44.53-.99.59-1.54.17-.23-.18-.46-.35-.68-.54-.5-.41-.56-1-.17-1.51.27-.34.54-.67.79-1.06-.1.03-.2.05-.29.09-1.03.43-1.5,1.64-1.02,2.65.15.31.11.55-.1.81-.52.64-1,1.31-1.51,1.95-.1.12-.26.24-.4.26-.13.01-.3-.1-.4-.2-.13-.15-.08-.34.03-.49.32-.42.64-.84.96-1.25.03-.04.06-.09.09-.12.38-.36.45-.74.32-1.27-.36-1.51.75-3.08,2.29-3.31.28-.04.58-.05.86-.01.5.06.67.53.35.92-.39.49-.79.98-1.18,1.46-.21.26-.21.29.06.5.17.13.34.25.5.39.15.14.26.13.39-.04.38-.5.79-.98,1.18-1.47.15-.19.33-.34.58-.29.26.05.4.24.48.5.56,1.89-.91,3.77-2.88,3.66-.29-.02-.46.06-.62.29-.39.55-.82,1.08-1.23,1.62-.2.26-.47.32-.68.15-.21-.17-.21-.43-.01-.7.53-.7,1.07-1.4,1.6-2.11.16-.21.35-.25.61-.19,1.13.26,2.15-.37,2.41-1.49.02-.1.02-.21.04-.32-.02,0-.04,0-.06-.01Z"/>
      <path class="cls-3" d="m4.91,18.93c.29,0,.49.21.49.5,0,.28-.21.5-.49.5-.29,0-.51-.23-.51-.52,0-.28.23-.49.51-.48Z"/>
    </g>
  </g>
</svg>