<?xml version="1.0" encoding="UTF-8"?>
<svg id="Layer_2" data-name="Layer 2" xmlns="http://www.w3.org/2000/svg" viewBox="0 0 26.45 26.45">
  <defs>
    <style>
      .cls-1, .cls-2 {
        stroke-width: 0px;
      }

      .cls-2 {
        fill: #27aae1;
      }
    </style>
  </defs>
  <g id="Layer_1-2" data-name="Layer 1">
    <g>
      <path class="cls-1" d="m2.02,18.42c-.55,0-1.08,0-1.6,0-.29,0-.48-.21-.41-.46.05-.21.21-.29.42-.29.52,0,1.03,0,1.57,0v-7.28c-.5,0-1,0-1.5,0-.39,0-.5-.12-.5-.51,0-.49,0-.98,0-1.47,0-.38.11-.49.5-.49.5,0,1,.01,1.5,0,.17,0,.35-.06.49-.16C5.95,5.23,9.4,2.71,12.86.18c.33-.24.4-.24.73,0,3.43,2.51,6.87,5.02,10.3,7.53.2.14.39.22.64.21.48-.02.96,0,1.45,0,.36,0,.48.12.48.48,0,.52,0,1.03,0,1.55,0,.3-.13.44-.44.44-.52,0-1.03,0-1.56,0v7.26h.48c-.03-.06-.08-.12-.07-.18.03-.15.04-.34.14-.41.1-.07.34-.07.43,0,.28.23.54.5.78.77.15.17.1.35-.05.5-.19.19-.38.38-.57.57-.23.23-.43.29-.6.15-.22-.18-.17-.38-.04-.61h-.51c0,.12,0,.22,0,.33,0,2.09,0,4.18,0,6.26,0,.74-.36,1.23-1.01,1.39-.11.03-.23.03-.34.03-6.57,0-13.14,0-19.7,0-.81,0-1.35-.55-1.35-1.4,0-2.1,0-4.19,0-6.29,0-.1,0-.21,0-.34Zm21.64-8.01H2.8v7.25h.91c-.15-.3-.13-.48.05-.61.17-.13.37-.09.59.13.2.19.39.39.59.59.15.15.19.35.04.51-.24.27-.5.54-.78.77-.09.07-.31.06-.44,0-.16-.08-.21-.26-.12-.44.02-.05.04-.1.07-.15h-.93c0,.11,0,.2,0,.29,0,2.09,0,4.17,0,6.26,0,.52.19.71.71.71,6.5,0,12.99,0,19.49,0,.5,0,.7-.2.7-.69,0-2.11,0-4.21,0-6.32,0-.09,0-.17-.01-.27-.63,0-1.23,0-1.84,0-.42,0-.62-.12-.61-.39,0-.25.19-.36.6-.36.61,0,1.23,0,1.85,0v-7.27Zm-.78-2.51c-3.26-2.38-6.45-4.71-9.65-7.05-3.21,2.35-6.4,4.68-9.65,7.05h19.3ZM.76,9.62h24.92v-.93H.76v.93Z"/>
      <path class="cls-2" d="m8.03,18.03c.01-2.88,2.34-5.19,5.22-5.18,2.88.01,5.19,2.34,5.18,5.22-.01,2.88-2.34,5.19-5.22,5.18-2.88-.01-5.19-2.34-5.18-5.22Zm9.64.01c0-2.44-2-4.44-4.45-4.44-2.45,0-4.44,1.99-4.44,4.44,0,2.46,2,4.45,4.46,4.45,2.44,0,4.43-2.01,4.43-4.46Z"/>
      <path class="cls-2" d="m16.99,13.11c-.8-.61-1.67-.99-2.63-1.17-1.31-.24-2.57-.07-3.78.48-.1.05-.24.11-.32.08-.13-.06-.27-.18-.31-.31-.07-.19.07-.33.25-.42,1-.48,2.04-.71,3.15-.69,1.49.03,2.83.49,4.03,1.36.06.05.13.09.2.14.05-.11.06-.24.13-.28.12-.07.29-.15.4-.11.11.04.23.21.25.33.03.33.02.66,0,.99,0,.24-.15.38-.42.39-.25.01-.5,0-.75,0-.24,0-.48,0-.56-.29-.08-.27.11-.4.35-.51Z"/>
      <path class="cls-2" d="m8.87,23.5c-.08.34-.21.46-.44.44-.22-.02-.33-.19-.34-.49,0-.27,0-.53,0-.8,0-.3.14-.44.44-.45.25,0,.5,0,.75,0,.23,0,.46.02.54.29.08.28-.11.4-.35.51.72.55,1.5.91,2.36,1.11,1.4.32,2.76.16,4.06-.44.28-.13.49-.08.59.14.11.23,0,.43-.29.56-2.51,1.09-4.89.85-7.13-.72-.06-.04-.11-.08-.19-.14Z"/>
      <path class="cls-2" d="m18.69,22.41c.32.08.45.2.43.43-.02.22-.18.34-.49.34-.27,0-.54,0-.8,0-.3,0-.44-.14-.46-.44-.01-.26,0-.52,0-.78,0-.24.04-.46.31-.52.26-.06.39.1.48.36.48-.61.8-1.25,1.01-1.95.46-1.52.34-3.01-.31-4.45-.06-.13-.08-.31-.04-.45.03-.09.21-.21.3-.2.13.02.3.13.37.25.34.65.55,1.35.64,2.08.25,1.93-.22,3.67-1.39,5.23-.02.02-.02.05-.05.09Z"/>
      <path class="cls-2" d="m7.77,13.69c-.33-.07-.45-.21-.43-.44.02-.22.18-.33.47-.33.28,0,.55,0,.83,0,.3,0,.44.14.45.44,0,.28,0,.57,0,.86,0,.22-.09.39-.32.43-.21.04-.36-.07-.43-.27,0-.02-.03-.04-.06-.08-.6.78-.97,1.64-1.16,2.58-.25,1.32-.08,2.59.48,3.8.13.29.09.5-.1.61-.2.11-.42.03-.55-.22-.39-.79-.63-1.63-.68-2.51-.11-1.77.36-3.36,1.43-4.78.02-.03.03-.06.06-.11Z"/>
      <path class="cls-2" d="m12.85,16.35c0-.68,0-1.3,0-1.92,0-.38.17-.53.55-.49,1.76.18,2.64,2.1,1.64,3.56-.03.04-.06.09-.12.17.4,0,.76,0,1.12,0,.28,0,.55,0,.83,0,.34,0,.49.16.47.5-.1,1.72-2.04,2.7-3.48,1.75-.07-.05-.14-.1-.26-.18,0,.43,0,.81,0,1.2,0,.26,0,.52,0,.78,0,.31-.16.46-.47.44-.84-.07-1.5-.46-1.89-1.21-.4-.77-.34-1.53.11-2.26.05-.07.1-.14.18-.26-.48,0-.92,0-1.36,0-.2,0-.39,0-.59,0-.34,0-.49-.16-.46-.5.08-.85.49-1.51,1.26-1.89.76-.37,1.52-.31,2.24.15.07.04.13.09.24.17Zm-.41.7c-.37-.44-.98-.61-1.56-.41-.51.17-.9.61-.92,1.03.65,0,1.3,0,1.95,0,.06,0,.14-.06.18-.11.12-.16.23-.33.34-.51Zm1.15-2.3c0,.69,0,1.36,0,2.02,0,.05.04.11.09.14.17.12.35.23.54.36.42-.41.58-.91.42-1.49-.14-.52-.49-.87-1.05-1.03Zm-.75,6.59c0-.69,0-1.34,0-1.99,0-.06-.04-.14-.08-.17-.17-.12-.35-.23-.54-.36-.42.4-.58.91-.42,1.48.14.52.49.87,1.06,1.04Zm3.68-2.92c-.7,0-1.35,0-2.01,0-.05,0-.12.03-.15.07-.13.18-.24.37-.36.56.41.41.91.57,1.48.42.52-.14.87-.49,1.05-1.06Zm-3.28-.84c-.25-.01-.47.19-.48.44-.02.25.18.47.43.49.26.02.49-.19.5-.45,0-.25-.2-.46-.44-.48Z"/>
    </g>
  </g>
</svg>