<svg width="49" height="70" viewBox="0 0 49 70" fill="none" xmlns="http://www.w3.org/2000/svg">
<path d="M48.0696 18.1221C48.9907 20.8306 46.6338 23.7558 46.6338 26.0851C46.6338 28.4144 48.9907 31.3396 48.0696 34.0481C47.1756 36.7295 43.5455 37.6233 42.2994 39.3297C41.1345 40.9277 41.27 44.2862 39.482 46.0468L46.2004 62.9749C46.2817 63.1916 46.2817 63.4083 46.2275 63.625C46.0378 64.0854 45.5231 64.3563 45.0355 64.1937L36.0145 60.9435L31.6801 69.4753C31.5717 69.692 31.3821 69.8545 31.1653 69.9358C30.6777 70.0983 30.163 69.8545 30.0005 69.367L24.2032 54.7682L18.4059 69.367C18.3246 69.5837 18.1621 69.7733 17.9453 69.8816C17.5119 70.1254 16.943 69.9358 16.6992 69.5024L12.3648 60.9435L3.34375 64.1937C3.15412 64.2479 2.91031 64.2479 2.72068 64.1667C2.23306 64.0041 2.01634 63.4625 2.17888 62.9749L8.89724 46.0468C7.10929 44.2862 7.27183 40.9277 6.07986 39.3297C4.83371 37.6233 1.20363 36.7295 0.309655 34.0481C-0.58432 31.3396 1.77252 28.4144 1.77252 26.0851C1.77252 23.7558 -0.58432 20.8306 0.309655 18.1221C1.20363 15.4407 4.83371 14.5469 6.07986 12.8405C7.3531 11.1342 7.08219 7.4235 9.33068 5.77132C11.5792 4.11913 15.0467 5.50047 17.1056 4.79626C19.1644 4.11913 21.2503 0.923096 24.2032 0.923096C27.156 0.923096 29.2149 4.11913 31.2737 4.79626C33.3326 5.50047 36.8272 4.11913 39.0757 5.77132C41.2971 7.4235 41.0262 11.1342 42.2994 12.8405C43.5455 14.5469 47.1756 15.4407 48.0696 18.1221ZM45.6857 22.3744C46.986 18.8263 46.8235 18.2304 43.6539 16.2261C40.7823 14.4114 40.3218 13.7885 39.482 10.5112C38.561 6.96306 38.1004 6.61095 34.4162 6.80055C31.0299 6.96306 30.2714 6.71929 27.6436 4.60666C24.5553 2.14192 23.8239 2.14192 20.7627 4.60666C18.135 6.71929 17.3494 6.96306 13.9902 6.80055C10.3059 6.61095 9.8183 6.96306 8.92432 10.5112C8.05744 13.7885 7.59691 14.4114 4.75244 16.2261C1.5558 18.2304 1.39326 18.8263 2.69359 22.3744C3.91265 25.6517 3.91265 26.5185 2.69359 29.7957C1.39326 33.3439 1.5558 33.9398 4.75244 35.944C7.59691 37.7587 8.05744 38.3817 8.92432 41.659C9.84539 45.2071 10.3059 45.5592 13.9902 45.3696C17.3765 45.2071 18.135 45.4509 20.7627 47.5635C23.8239 50.0283 24.5553 50.0283 27.6436 47.5635C30.2714 45.4509 31.0299 45.2071 34.4162 45.3696C38.1004 45.5592 38.561 45.2071 39.482 41.659C40.3218 38.3817 40.7823 37.7587 43.6539 35.944C46.8235 33.9398 46.986 33.3439 45.6857 29.7957C44.4937 26.5185 44.4937 25.6517 45.6857 22.3744ZM43.7623 61.7832L37.8837 46.9947C35.7707 47.6448 32.9804 46.8052 31.2737 47.3739C29.6212 47.9156 27.8333 50.2179 25.6931 50.9762L25.1784 52.2763L30.9486 66.8481L34.7412 59.3726C34.9038 59.0747 35.2289 58.8851 35.554 58.8851C35.6623 58.8851 35.7707 58.8851 35.879 58.9392L43.7623 61.7832ZM17.4306 66.8481L23.6343 51.22C21.0065 50.8679 19.029 47.9969 17.1056 47.3739C15.3989 46.8052 12.6086 47.6448 10.4956 46.9947L4.64408 61.7832L12.5273 58.9392C12.9608 58.7767 13.4213 58.9663 13.638 59.3726L17.4306 66.8481Z" fill="#010101"/>
<path d="M24.2032 9.42786C33.3867 9.42786 40.8636 16.8762 40.8636 26.0852C40.8636 35.2941 33.3867 42.7425 24.2032 42.7425C15.0196 42.7425 7.54272 35.2941 7.51562 26.0852C7.51562 16.8762 14.9925 9.42786 24.2032 9.42786ZM39.0215 26.0852C39.0215 22.2932 37.5857 18.5013 34.6871 15.6032C28.8898 9.80705 19.4895 9.80705 13.7193 15.6032C7.92198 21.3994 7.92198 30.7709 13.7193 36.5671C19.4895 42.3633 28.8898 42.3633 34.6871 36.5671C37.5857 33.669 39.0215 29.8771 39.0215 26.0852Z" fill="#010101"/>
<path d="M34.064 18.3117C35.3372 19.5847 35.3372 21.6431 34.064 22.8891L23.1738 33.8043C23.1738 33.8043 23.1467 33.8043 23.1467 33.8314C21.7922 35.1586 19.5708 35.1586 18.2163 33.7772L14.2882 29.7145C13.7193 29.1186 13.3671 28.3061 13.3671 27.4664C13.3671 25.6517 14.83 24.1891 16.6179 24.1891C17.4848 24.1891 18.3246 24.5412 18.9206 25.1642L20.7086 27.0601L29.4858 18.3117C30.759 17.0387 32.7908 17.0387 34.064 18.3117ZM32.7637 21.589C33.3326 21.0202 33.3055 20.1264 32.7366 19.5847C32.4928 19.3409 32.1406 19.1784 31.7613 19.1784C31.4092 19.1784 31.0299 19.3409 30.7861 19.5847L21.3587 29.0103C21.1691 29.1999 20.9524 29.3082 20.7086 29.3082C20.4647 29.3082 20.248 29.1999 20.0584 29.0103H20.0313L17.5932 26.4372C17.0514 25.8955 16.1574 25.8955 15.6156 26.4643C15.3447 26.708 15.2093 27.0601 15.2093 27.4393C15.2093 27.8185 15.3447 28.1706 15.6156 28.4415L19.5437 32.5042C20.1938 33.1543 21.2233 33.1272 21.8734 32.5042L32.7637 21.589Z" fill="#00AEEF"/>
</svg>
