<?xml version="1.0" encoding="UTF-8"?>
<svg id="Layer_2" data-name="Layer 2" xmlns="http://www.w3.org/2000/svg" viewBox="0 0 15.83 26.44">
  <defs>
    <style>
      .cls-1 {
        fill: #020202;
      }

      .cls-1, .cls-2 {
        stroke-width: 0px;
      }

      .cls-2 {
        fill: #29a9e1;
      }
    </style>
  </defs>
  <g id="Layer_1-2" data-name="Layer 1">
    <g>
      <path class="cls-1" d="m6.07,0c-1.53,0-2.8,1.27-2.8,2.8v12.14c-2.01,1.06-3.27,3.11-3.27,5.44,0,1.74.74,3.38,2.06,4.54,1.11,1,2.53,1.53,4.06,1.53.21,0,.48,0,.74-.05,2.74-.32,4.96-2.53,5.28-5.23.32-2.53-.95-4.96-3.22-6.12V2.9c-.05-1.64-1.32-2.9-2.85-2.9m4.96,21.01c-.26,2.27-2.11,4.06-4.38,4.33-1.48.16-2.85-.26-3.96-1.21-1.06-.95-1.69-2.32-1.69-3.75,0-1.95,1.16-3.75,2.96-4.54.21-.11.32-.26.32-.48V2.85c0-.95.79-1.74,1.74-1.74s1.74.79,1.74,1.74v12.46c0,.21.11.42.32.48,2.06.9,3.22,3.01,2.96,5.23"/>
      <path class="cls-2" d="m6.54,3.54c0-.32-.21-.53-.53-.53s-.53.21-.53.53v13.67c-1.53.26-2.69,1.58-2.69,3.17,0,1.79,1.43,3.22,3.22,3.22s3.22-1.43,3.22-3.22c0-1.58-1.16-2.9-2.69-3.17V3.54Zm1.64,16.78c0,1.21-.95,2.16-2.16,2.16s-2.16-.95-2.16-2.16.95-2.16,2.16-2.16c1.21.05,2.16,1,2.16,2.16"/>
      <path class="cls-1" d="m13.67,5.23h-2.27c-.32,0-.53.21-.53.53s.21.53.53.53h2.27c.32,0,.53-.21.53-.53s-.21-.53-.53-.53"/>
      <path class="cls-1" d="m11.88,7.92c0,.32.21.53.53.53h2.9c.32,0,.53-.21.53-.53s-.21-.53-.53-.53h-2.96c-.26,0-.48.26-.48.53"/>
      <path class="cls-1" d="m11.4,10.61h2.27c.32,0,.53-.21.53-.53s-.21-.53-.53-.53h-2.27c-.32,0-.53.21-.53.53s.26.53.53.53"/>
    </g>
  </g>
</svg>