<svg width="71" height="69" viewBox="0 0 71 69" fill="none" xmlns="http://www.w3.org/2000/svg">
<path d="M63.4539 15.872C68.1947 21.5869 70.6599 28.8186 70.6599 36.2128C70.6599 54.1973 56.1396 68.7419 38.1246 68.7419C31.2166 68.7419 24.3086 66.5481 18.7822 62.2957C17.9695 61.6998 17.1839 61.0227 16.2899 60.2102L15.423 61.3206C14.5291 62.2957 12.8494 61.8082 12.8494 60.4268L12.9308 56.662C8.19001 50.8387 5.61641 43.7154 5.61641 36.2128C5.61641 33.7752 5.91437 31.3104 6.51035 28.8186L6.2124 29.1165C6.10404 29.3332 5.91443 29.4145 5.7248 29.5228C5.21008 29.6041 4.83075 29.2249 4.72239 28.8186L4.23479 25.5684L0.956903 25.9747C0.767272 25.9747 0.577638 25.8663 0.360916 25.758C-0.0183458 25.4871 -0.126726 24.8913 0.171265 24.485L4.42444 18.9326C3.1512 17.0637 2.33853 14.7886 2.33853 12.3238C2.33853 9.04652 3.63885 6.20259 5.80606 4.00871C7.89201 1.95024 10.8448 0.677246 14.0144 0.677246C17.1839 0.677246 20.1368 1.95024 22.2227 4.00871C23.1167 4.90251 23.7939 5.79632 24.3086 6.87972C28.643 4.79417 33.3838 3.71077 38.1246 3.71077C43.7594 3.71077 49.2045 5.20045 54.0536 7.85478C56.3021 9.15486 58.0901 10.5362 60.0676 12.2155L60.9616 11.2133C61.7472 10.1299 63.5352 10.7258 63.5352 12.1071L63.4539 15.872ZM68.9532 36.267C68.9532 29.8207 66.9756 23.6995 63.3184 18.5534C63.1288 19.068 62.6412 19.2576 62.1536 19.3659L61.1784 19.4472C64.7272 24.3767 66.7047 30.227 66.7047 36.2399C66.7047 51.9492 53.9453 64.7063 38.1246 64.7063C29.9434 64.7063 24.3898 61.9436 18.2675 56.6891C17.9695 56.4183 17.8611 55.8224 18.1862 55.4161L19.3511 54.2244L14.6104 54.9286V59.6685L15.6127 58.4767C15.8836 58.0975 16.4796 58.0975 16.7775 58.3955C22.5207 63.9208 30.2143 67.0898 38.1246 67.0898C55.1101 67.0898 68.9532 53.2493 68.9532 36.267ZM61.7472 17.6596V12.9197L60.7449 14.0031C60.474 14.4094 59.878 14.4094 59.4717 14.0843C57.4941 12.2155 55.6248 10.7258 53.2409 9.34446C48.6085 6.77138 43.4614 5.49838 38.1246 5.49838C33.5735 5.49838 29.1307 6.50053 24.9859 8.47774C25.2839 9.15486 25.4735 9.96741 25.5818 10.7258C29.4287 8.77567 33.7902 7.77353 38.1246 7.77353C42.459 7.77353 45.7369 8.45065 49.0148 9.85907C52.1844 11.2404 55.0289 13.2176 58.0088 15.872C58.388 16.1699 58.4964 16.7658 58.09 17.0637L57.0065 18.3367L61.7472 17.6596ZM64.9167 36.2399C64.9167 30.1999 62.9392 24.485 59.1736 19.7451L56.5188 20.2326C55.1372 20.4222 54.3516 18.743 55.2185 17.7679L56.2208 16.5762C53.566 14.4094 51.0737 12.6217 48.3105 11.43C45.3577 10.157 42.0798 9.56114 38.1246 9.56114C33.7902 9.56114 29.537 10.5633 25.6902 12.6217C25.5819 15.0052 24.7962 17.172 23.6042 18.9596L27.8574 24.485C28.1554 24.8913 28.0471 25.4871 27.6407 25.7851C27.5595 25.8663 27.2615 25.9747 27.0447 25.9747L23.7939 25.5684L23.3063 28.8457C23.3063 29.2249 22.8187 29.6311 22.304 29.5228C22.1143 29.4416 21.9247 29.3332 21.8164 29.1436L17.3735 23.4016C16.4796 23.6995 15.4772 23.8891 14.3936 23.8891C12.416 27.7623 11.4408 31.9875 11.4408 36.2399C11.4408 42.2799 13.4184 47.9948 17.0756 52.7618L19.8387 52.3555C21.112 52.1659 22.006 53.7368 21.112 54.739L20.1367 55.9036C25.6631 60.5352 30.8103 63.027 38.1246 63.027C52.9429 63.027 64.9167 51.0554 64.9167 36.2399ZM25.2839 23.9975L22.4123 20.341L22.2227 20.5306C21.3287 21.4244 20.2451 22.2099 19.0531 22.8057L21.9247 26.5705L22.1956 24.485C22.3039 24.0787 22.7103 23.6995 23.1979 23.7808L25.2839 23.9975ZM23.9023 12.3238C23.9023 9.56114 22.8187 7.0964 21.0307 5.30879C19.2428 3.54826 16.7776 2.46486 14.0144 2.46486C11.2512 2.46486 8.78599 3.54826 6.99804 5.30879C5.21009 7.0964 4.12649 9.56114 4.12649 12.3238C4.12649 15.0865 5.21009 17.47 6.99804 19.3388C8.78599 21.1264 11.2512 22.2099 14.0144 22.2099C16.7776 22.2099 19.2428 21.1264 21.0307 19.2305C22.7916 17.47 23.9023 14.9781 23.9023 12.3238ZM14.2039 53.2222L15.2064 53.0326C11.6575 48.1844 9.65282 42.3611 9.65282 36.2399C9.65282 31.9875 10.6552 27.7352 12.5244 23.8891C11.8471 23.7808 11.2511 23.5912 10.6551 23.4016L9.65282 24.7829C8.18995 28.4394 7.40437 32.2855 7.40437 36.2399C7.40437 42.6591 9.38192 48.7803 13.0391 54.0348C13.2287 53.5472 13.7163 53.3306 14.2039 53.2222ZM6.10402 26.5705L8.97557 22.8057C7.7836 22.2099 6.70004 21.4244 5.80606 20.5306L5.61641 20.341L2.74486 23.9975L4.83078 23.7808C5.3184 23.6995 5.72479 24.0787 5.80606 24.485L6.10402 26.5705Z" fill="#010101"/>
<path d="M54.5413 30.9042C58.0089 30.9042 58.7945 35.644 56.3022 37.1337C57.6025 38.7047 57.1962 41.2777 55.327 42.2799C56.519 44.0404 55.5437 46.5322 53.4578 47.0198C54.3517 48.8886 53.0513 51.3534 50.7758 51.3534H48.5273C48.121 51.8409 47.4437 52.5451 45.1682 52.5451L37.1494 52.4368C33.411 52.4368 31.1355 48.7803 29.1579 47.9948C29.1579 49.3762 27.9659 50.4596 26.5843 50.4596L19.27 50.3783C17.0757 50.3783 15.5044 48.5907 16.1004 46.4239L19.7576 32.5834C20.1369 31.2021 21.1392 29.9291 22.6291 29.8208L26.5573 29.7124C27.7492 29.7124 28.8328 30.6062 29.0224 31.8792C32.0836 31.6084 35.4699 29.6312 36.3639 26.5435L38.1247 19.7451C39.9127 14.4094 45.8454 16.197 45.6558 20.4223L45.1411 26.9497C45.0598 29.0353 47.4166 30.7958 49.0962 30.7958L54.5413 30.9042ZM54.433 35.8336C56.8169 35.7524 56.5189 32.6647 54.5142 32.5834H46.5227C44.3555 32.5834 44.4638 35.7524 46.5227 35.7524L54.433 35.8336ZM53.7557 40.8715C55.9229 40.7902 56.0313 37.6213 53.539 37.5129H46.631C44.0574 37.5129 44.3555 40.7902 46.333 40.7902L53.7557 40.8715ZM52.6721 45.3405C54.433 45.3405 54.6497 42.957 53.0514 42.5507L46.4414 42.4695C44.4638 42.5507 44.4638 45.2321 46.2518 45.3405H52.6721ZM50.7758 49.5928C52.5637 49.4032 52.2658 47.3177 50.9925 47.1281H46.333C44.7618 47.399 45.0598 49.7012 46.5227 49.7012C47.9043 49.7012 49.3129 49.5928 50.7758 49.5928ZM37.2307 50.7575H44.6535C43.3531 49.7824 43.1635 47.5886 44.2471 46.3156C42.8655 45.1238 42.8655 42.8487 44.1659 41.684C43.2719 40.8985 42.8655 39.5985 43.1634 38.4338C41.8089 40.0047 39.8314 41.0881 37.5287 41.684C36.4451 41.9819 36.0658 40.3027 37.1494 40.0047C40.1023 39.2193 42.4862 37.4317 43.2718 34.4523C43.1635 32.9897 43.8678 31.5 45.2494 31.0125C44.2471 30.3083 43.2719 29.0353 43.4615 26.8414L43.8678 20.341C44.0574 17.9575 40.5086 17.1721 39.8043 20.2327L38.0435 27.0581C36.9598 30.9042 32.8963 33.2876 29.1308 33.5856V46.2072C31.9211 46.8031 33.6819 50.5679 37.2307 50.7575ZM27.3699 47.9136V32.2855C27.3699 31.798 26.9636 31.5 26.5573 31.5H24.688V48.699L26.5573 48.7803C27.37 48.7803 27.3699 48.1844 27.3699 47.9136ZM23.0084 48.699V31.5C22.0331 31.5 21.6268 32.2855 21.4372 33.071L17.78 46.9114C17.482 47.9948 18.2677 48.699 19.27 48.699H23.0084Z" fill="#00AEEF"/>
<path d="M20.2179 8.55898C21.7891 8.77566 22.4935 10.5633 21.3016 11.7279L19.053 14.0031L19.5406 17.0637C19.8386 18.6346 18.2403 19.718 16.8587 19.0409L14.0143 17.5512L11.1428 19.0409C9.76116 19.718 8.18987 18.6346 8.46077 17.0637L8.97549 14.0031L6.69993 11.7279C5.50796 10.5362 6.21229 8.77566 7.78352 8.55898L10.7635 8.07145L12.2263 5.20043C13.012 3.81909 14.9896 3.81909 15.8023 5.20043L17.2651 8.07145L20.2179 8.55898ZM20.1366 10.5633C20.245 10.3466 20.245 10.2653 20.0283 10.2653L16.5608 9.66946C16.5608 9.66946 16.0732 9.66946 15.8835 9.26319L14.3123 6.01298C14.2039 5.7963 13.8247 5.7963 13.6892 6.01298L12.118 9.26319C11.9283 9.66946 11.522 9.66946 11.4407 9.66946L7.97317 10.2653C7.78354 10.2653 7.78352 10.3466 7.86479 10.5633L10.4384 13.1093C10.6551 13.3259 10.7363 13.5155 10.7363 13.8135L10.1403 17.3616C10.1403 17.5512 10.2488 17.5512 10.3571 17.47L13.608 15.8719C13.906 15.6823 14.2039 15.6823 14.3935 15.8719L17.6715 17.47C17.6715 17.47 17.8611 17.5512 17.8611 17.3616L17.2651 13.8135C17.2651 13.5155 17.3464 13.3259 17.5631 13.1093L20.1366 10.5633Z" fill="#010101"/>
</svg>
