<svg width="53" height="53" viewBox="0 0 53 53" fill="none" xmlns="http://www.w3.org/2000/svg">
<path fill-rule="evenodd" clip-rule="evenodd" d="M16.8448 42.5095H4.16486C3.83038 42.5095 3.4959 42.327 3.31346 42.023C3.13101 41.7189 3.13101 41.354 3.31346 41.0499L25.6324 2.40217C25.8149 2.09809 26.119 1.91565 26.4535 1.91565C26.788 1.91565 27.1224 2.09809 27.2745 2.40217L49.5935 41.0499C49.7759 41.354 49.7759 41.7189 49.5935 42.023C49.411 42.327 49.1069 42.5095 48.7421 42.5095H30.8625C30.4064 42.5095 30.0416 42.8744 30.0416 43.3305C30.0416 43.7866 30.4064 44.1515 30.8625 44.1515H48.7421C49.6847 44.1515 50.5361 43.665 51.0226 42.844C51.4787 42.023 51.4787 41.0195 51.0226 40.2289L28.7036 1.58117C28.2475 0.760169 27.3657 0.273651 26.4231 0.273651C25.4804 0.273651 24.629 0.760169 24.1425 1.58117C19.6118 9.45667 6.35422 32.3534 1.82353 40.2289C1.36742 41.0499 1.36742 42.0534 1.82353 42.844C2.27964 43.665 3.16145 44.1515 4.10408 44.1515H16.784C17.2401 44.1515 17.605 43.7866 17.605 43.3305C17.605 42.8744 17.2401 42.5095 16.784 42.5095H16.8448Z" fill="#010101" stroke="black" stroke-width="0.25" stroke-miterlimit="10"/>
<path fill-rule="evenodd" clip-rule="evenodd" d="M18.0335 50.1114L23.7198 39.3472C24.0543 38.7086 24.0238 37.9788 23.6589 37.3707C23.294 36.7625 22.625 36.3976 21.9257 36.3976H13.6853C13.6853 36.3976 13.4117 36.3368 13.3509 36.2152C13.2901 36.0936 13.2901 35.9415 13.3509 35.8503L20.527 25.1165C20.7702 24.7516 20.679 24.2347 20.3141 23.961C19.9188 23.7178 19.4324 23.809 19.1587 24.1739C16.6045 27.9748 13.6853 32.3839 11.9825 34.9077C11.5568 35.5158 11.5264 36.3368 11.8913 36.9754C12.2562 37.6443 12.9251 38.0396 13.6853 38.0396H21.9257C21.9257 38.0396 22.169 38.1005 22.2298 38.2221C22.2906 38.3437 22.2906 38.4653 22.2298 38.587L15.8746 50.6283C15.5402 51.2364 15.7226 52.027 16.27 52.4223C16.8173 52.848 17.6078 52.7872 18.1248 52.3007C23.1724 47.4355 33.9367 37.0058 38.5282 32.5967C39.1363 32.019 39.3187 31.1372 38.9843 30.377C38.6802 29.6168 37.92 29.0999 37.099 29.0999H27.4295C27.4295 29.0999 27.1862 29.0391 27.1254 28.9174C27.0646 28.7958 27.0646 28.6742 27.1254 28.5525C28.2809 26.3632 30.2877 22.6231 31.4432 20.4338C31.7777 19.7952 31.7473 19.035 31.3824 18.4269C31.0175 17.8187 30.3485 17.4539 29.6492 17.4539H26.0003C24.5408 17.4539 23.142 18.1836 22.321 19.3999C21.8953 20.0385 21.3784 20.8291 20.7703 21.7109C20.527 22.0758 20.6182 22.5927 20.9831 22.8664C21.3479 23.1096 21.8649 23.0184 22.1386 22.6535C22.7467 21.7717 23.2637 20.9811 23.6894 20.3426C24.2063 19.5824 25.0577 19.1263 25.9699 19.1263H29.6188C29.6188 19.1263 29.862 19.1871 29.9228 19.3087C29.9836 19.4303 29.9836 19.552 29.9228 19.6736C28.7673 21.8629 26.7605 25.603 25.605 27.7924C25.2706 28.4309 25.3009 29.1911 25.6658 29.7992C26.0307 30.4074 26.6997 30.7723 27.3991 30.7723H37.0686C37.0686 30.7723 37.3423 30.8635 37.4031 31.0155C37.4639 31.1676 37.4031 31.3196 37.3119 31.4108L17.9423 50.1114H18.0335Z" fill="#00AEEF" stroke="#00AEEF" stroke-width="0.25" stroke-miterlimit="10"/>
</svg>
