<?xml version="1.0" encoding="UTF-8"?>
<svg id="Layer_2" data-name="Layer 2" xmlns="http://www.w3.org/2000/svg" viewBox="0 0 19.52 26.18">
  <defs>
    <style>
      .cls-1, .cls-2 {
        stroke-width: 0px;
      }

      .cls-2 {
        fill: #27aae1;
      }
    </style>
  </defs>
  <g id="Layer_1-2" data-name="Layer 1">
    <g>
      <path class="cls-1" d="m8.95,26.18c-.38-.06-.77-.11-1.15-.19-3.46-.76-5.88-2.8-7.11-6.1-1.39-3.7-.65-7.08,1.94-10.05,2.26-2.59,4.27-5.35,5.78-8.45.12-.25.24-.51.36-.76C8.98.22,9.31,0,9.77,0c.46,0,.81.22,1,.63.81,1.75,1.77,3.41,2.86,5,.17.25.14.47-.06.6-.2.14-.42.07-.6-.19-1.06-1.55-2.01-3.16-2.8-4.86-.03-.06-.04-.14-.09-.18-.1-.09-.22-.22-.33-.22-.1,0-.24.12-.3.22-.34.65-.64,1.31-.99,1.96-1.48,2.72-3.32,5.19-5.37,7.51-1.32,1.5-2.11,3.23-2.27,5.22-.35,4.46,2.63,8.65,7.1,9.52,4.99.97,9.59-2.04,10.61-6.99.59-2.88-.15-5.44-2.04-7.68-.79-.94-1.56-1.89-2.34-2.84-.21-.25-.2-.47,0-.63.19-.15.41-.09.61.15.88,1.07,1.79,2.13,2.64,3.22,1.59,2.02,2.28,4.33,2.05,6.9-.39,4.21-3.39,7.63-7.51,8.6-.39.09-.79.13-1.18.19-.07.01-.13.03-.19.05h-1.64Z"/>
      <path class="cls-2" d="m9.77,12.01c-.32.57-.61,1.09-.91,1.61-.28.49-.74.72-1.25.65-.82-.12-1.31-.97-.94-1.71.47-.92.97-1.84,1.52-2.71.74-1.17,2.45-1.13,3.19.05.26.42.49.86.74,1.28.05.08.16.16.24.16.82.05,1.33.64,1.23,1.46-.05.41-.12.83-.19,1.23-.13.73-.85,1.17-1.56.94-.45-.15-.9-.32-1.33-.52-.61-.27-.89-1-.58-1.59.14-.27.11-.45-.05-.66-.04-.05-.06-.1-.12-.2Zm3.07.63c.01-.36-.26-.57-.6-.48-.33.08-.43.04-.6-.25-.28-.49-.56-.99-.84-1.49-.5-.87-1.55-.87-2.05,0-.31.54-.61,1.08-.91,1.62-.15.27-.32.53-.43.81-.05.13-.04.36.04.47.08.11.3.18.44.16.13-.02.27-.17.34-.3.4-.69.78-1.39,1.18-2.09.21-.36.54-.36.75,0,.24.42.48.84.72,1.26.18.31.16.41-.11.66-.25.24-.22.59.09.74.4.18.82.34,1.23.49.25.09.5-.06.55-.31.08-.43.14-.87.21-1.29Z"/>
      <path class="cls-2" d="m13.43,18.44c-.27-.48-.51-.89-.73-1.31-.41-.77,0-1.64.85-1.81.46-.1.98.11,1.23.54.44.76.89,1.51,1.28,2.29.62,1.25-.31,2.7-1.71,2.71-.42,0-.83,0-1.25,0-.13,0-.21.03-.28.15-.4.69-1.21.84-1.84.36-.32-.24-.63-.49-.94-.75-.66-.54-.65-1.42,0-1.96.3-.24.59-.48.9-.72.66-.51,1.45-.37,1.88.34.15.25.37.08.61.16Zm.03,1.65h0c.3,0,.6.01.89,0,.87-.04,1.37-.91.97-1.67-.37-.7-.77-1.38-1.16-2.07-.06-.1-.18-.23-.27-.24-.15-.01-.34.03-.46.12-.17.13-.16.34-.05.53.33.58.66,1.17.99,1.76.22.39.06.67-.39.68-.43,0-.85,0-1.28,0-.34,0-.43-.09-.51-.41-.09-.36-.42-.49-.72-.26-.31.23-.62.48-.92.73-.29.24-.29.53,0,.77.28.23.57.46.86.69.36.28.68.17.79-.27.06-.24.2-.36.46-.35.27,0,.54,0,.82,0Z"/>
      <path class="cls-2" d="m6.16,18.42c.52,0,1.02,0,1.51,0,.65,0,1.12.4,1.24,1.03.13.68-.41,1.38-1.1,1.41-.26.01-.53,0-.79,0-.24,0-.4-.16-.4-.37,0-.22.16-.38.41-.39.2,0,.41,0,.61,0,.32,0,.5-.18.5-.46,0-.27-.18-.43-.49-.43-.66,0-1.31,0-1.97,0-.09,0-.19,0-.28-.02-.29-.05-.42-.3-.29-.55.23-.43.47-.85.71-1.27.11-.19.28-.23.49-.18.46.11.69-.09.64-.55-.04-.37-.1-.74-.16-1.11-.06-.34-.32-.49-.64-.38-.38.14-.75.28-1.11.44-.35.15-.41.52-.12.78.24.22.26.34.1.62-.25.45-.51.89-.75,1.33-.46.83-.02,1.67.92,1.77.27.03.41.17.4.4,0,.23-.16.36-.43.37-1.36.02-2.28-1.51-1.65-2.75.2-.39.44-.77.64-1.16.04-.08.04-.21,0-.29-.4-.71-.14-1.48.61-1.79.36-.15.72-.29,1.09-.43.84-.32,1.62.15,1.73,1.05.05.4.12.79.17,1.19.08.66-.42,1.3-1.08,1.32-.3,0-.41.15-.5.42Z"/>
    </g>
  </g>
</svg>